<svg width="293.69" height="411.1" version="1.1" viewBox="0 0 77.707 108.77" xmlns="http://www.w3.org/2000/svg">
 <g>
  <g transform="translate(-38.136 -44.878)">
   <path transform="rotate(179.81)" d="m-54.263-70.813c0 0.53624-0.94614 1.0689-1.003 1.6023-0.99261 9.3091-10.448 17.968-21.48 17.988-11.664 0.02128-21.072-8.0381-21.121-17.932l-1.2536-0.98386 0.11831 0.92454c0.05199 10.477 10.166 18.939 22.258 18.917 12.092-0.02206 22.321-8.7408 22.321-19.218z" color="#000000" color-rendering="auto" dominant-baseline="auto" fill="#ea8585" image-rendering="auto" shape-rendering="auto" solid-color="#000000" stop-color="#000000" style="font-feature-settings:normal;font-variant-alternates:normal;font-variant-caps:normal;font-variant-east-asian:normal;font-variant-ligatures:normal;font-variant-numeric:normal;font-variant-position:normal;font-variation-settings:normal;inline-size:0;isolation:auto;mix-blend-mode:normal;shape-margin:0;shape-padding:0;text-decoration-color:#000000;text-decoration-line:none;text-decoration-style:solid;text-indent:0;text-orientation:mixed;text-transform:none;white-space:normal"/>
   <g>
    <path d="m55.763 63.383s-4.8036-7.5139-1.0412-15.794c0.67563-1.4869 11.764 4.7983 11.764 4.7983z" fill="#ea8585"/>
    <path d="m57.294 60.407s-3.0191-4.7226-0.65438-9.9268c0.42464-0.93453 7.3937 3.0158 7.3937 3.0158z" fill="#f6cbcb"/>
   </g>
   <g transform="matrix(-1 0 0 1 154.78 .12381)">
    <path d="m56.493 63.437s-5.5333-7.5679-1.7708-15.848c0.67563-1.4869 11.791 4.9874 11.791 4.9874-3.7834 3.4039-7.2794 6.9481-10.02 10.861z" fill="#ea8585"/>
    <path d="m57.294 60.407s-3.0191-4.7226-0.65438-9.9268c0.42464-0.93453 7.3937 3.0158 7.3937 3.0158z" fill="#f6cbcb"/>
   </g>
  </g>
 </g>
</svg>
