<svg width="293.69" height="411.1" version="1.1" viewBox="0 0 77.707 108.77" xmlns="http://www.w3.org/2000/svg" xmlns:xlink="http://www.w3.org/1999/xlink">
 <g transform="translate(-38.136 -44.878)">
  <path d="m68.584 59.1c-4.2164 2.2128-4.1374 5.2036-6.8489 5.0691-2.4357-0.1208-0.14844-4.19 3.1366-6.3996 3.4423-2.3153 6.3684-3.6487 8.5508-3.0515 2.817 0.77079-3.3356 3.5933-4.8385 4.3821z" fill="#e5c8cb"/>
 </g>
 <g>
  <g transform="translate(-38.136 -44.878)">
   <path d="m56.392 53.08c-1.1426 1.083-1.8007 2.6754-2.0415 4.1979-0.41412 2.1254-5.9702 8.4277-5.7711 10.686-0.0038 2.0005 2.0877 6.4523 4.1767 7.1089 2.0531 0.86634 6.6802-7.3744 8.2015-8.8606 3.6681-2.9063 8.5046-4.3003 12.761-2.5647 1.5766 1.3908 3.2942 1.9916 5.0303 1.0741 1.4373-0.74125 2.6474-0.75414 5.1594-0.99219 1.9862-0.13484 4.4309-0.31893 5.7203 1.6975 1.4853 1.5196 1.9986 3.6543 3.2755 5.2478 1.7356 0.63714 3.8921 1.0392 5.0271 2.6458 0.25078 2.4565 2.7117 3.3329 4.5673 1.8426 1.5784-1.2372 2.0202-3.6894 1.6504-5.5468-1.2407-1.4312-2.3921-2.7656-1.9571-5.0523 0.64083-1.7561-0.28738-4.0922-1.1177-5.9761-0.98787-1.7396-3.089-3.1188-5.1493-3.5599-1.4864-1.3391-1.8101-1.4489-3.8144-2.0805-1.7605-2.0485-4.5448-2.0069-6.5514-3.6834-1.8034-1.2776-3.9604-0.55655-5.9548-0.82372-1.9327-0.75142-3.2565 1.5511-5.2021 1.0041-1.9281-0.55802-3.9543-0.70654-5.9491-0.43219-1.9893 0.24986-3.7995 1.1782-5.3243 2.4455-1.6177 0.66833-5.8037 0.55659-6.7371 1.622z" fill="#9b9dab" stroke="#67697c"/>
   <path id="path1215" d="m98.99 72.792c0.02601-0.2067 0.07777-0.40963 0.09943-0.61673 0.0062-0.05959 0.02216-0.12489-0.0046-0.18074-0.02322-0.0484-0.0845-0.04751-0.12946-0.04022-0.13306 0.02157-0.26086 0.0667-0.3881 0.10972-0.2253 0.07618-0.45475 0.14208-0.67188 0.24074-0.26998 0.12267-0.51868 0.29451-0.72114 0.51135-0.16752 0.17942-0.3243 0.36892-0.47166 0.56517-0.34754 0.46285-0.63941 0.97805-0.78458 1.5415-0.07376 0.28629-0.11675 0.58308-0.10185 0.87892 0.02424 0.48133 0.21935 0.94227 0.5042 1.3266 0.37031 0.49967 0.87716 0.89168 1.4393 1.1527 0.47911 0.22245 1.0078 0.36358 1.5382 0.33498 0.40658-0.02192 0.80649-0.1205 1.1869-0.26233 0.47981-0.1789 0.94109-0.42457 1.3251-0.76627 0.28524-0.25382 0.52645-0.57129 0.63646-0.9415 0.0811-0.27307 0.073-0.56679 7.2e-4 -0.84136-0.0854-0.32405-0.22056-0.63782-0.41817-0.9097-0.0981-0.13504-0.21751-0.25351-0.3492-0.35616-0.42915-0.33451-0.93456-0.56478-1.46-0.69955-0.55189-0.14157-1.1371-0.18501-1.6973-0.06748-0.37724 0.07913-0.74842 0.23052-1.0399 0.48596-0.18796 0.16475-0.30117 0.40228-0.33875 0.64726-0.05168 0.33689 0.011 0.68409 0.14007 0.99655 0.11517 0.2788 0.2778 0.54704 0.5128 0.73942 0.25463 0.20845 0.57149 0.33231 0.89493 0.38154 0.29315 0.04462 0.59568 0.03636 0.88407-0.03349 0.3246-0.07862 0.62316-0.2397 0.89324-0.43446 0.12761-0.09202 0.25717-0.187 0.35012-0.31656 0.0807-0.11251 0.1415-0.23722 0.20752-0.35849 0.0566-0.10394 0.12536-0.21619 0.11351-0.33665-0.01-0.0978-0.0814-0.17218-0.13932-0.24572-0.13626-0.17305-0.33971-0.28806-0.55662-0.32368-0.29816-0.04897-0.60697 0.02855-0.86664 0.17648-0.25489 0.14521-0.48096 0.36331-0.58565 0.64115-0.02877 0.07636-0.04808 0.15587-0.0688 0.23466-0.01641 0.0624-0.01094 0.13071 0.02333 0.18698 0.05068 0.08321 0.13428 0.13815 0.19633 0.21172" fill="#9b9dab" stroke="#67697c" stroke-width=".26458px"/>
   <use transform="matrix(.54577 -.76866 .76866 .54577 -57.676 110.43)" width="100%" height="100%" xlink:href="#path1215"/>
   <use transform="matrix(.36691 .95461 -.95461 .36691 129.6 -65.894)" width="100%" height="100%" xlink:href="#path1215"/>
   <use transform="matrix(.26999 -.94173 .94173 .26999 -24.766 136.25)" width="100%" height="100%" xlink:href="#path1215"/>
   <use transform="matrix(-.20507 1.0691 -1.0691 -.20507 175.53 -39.003)" width="100%" height="100%" xlink:href="#path1215"/>
   <use transform="matrix(.77955 -.47286 .47286 .77955 -57.971 55.856)" width="100%" height="100%" xlink:href="#path1215"/>
   <use transform="matrix(-.20507 1.0691 -1.0691 -.20507 159.09 -37.894)" width="100%" height="100%" xlink:href="#path1215"/>
   <use transform="matrix(-1.0691 -.20507 .20507 -1.0691 176.58 150.04)" width="100%" height="100%" xlink:href="#path1215"/>
   <use transform="matrix(.54577 -.76866 .76866 .54577 -44.868 97.003)" width="100%" height="100%" xlink:href="#path1215"/>
  </g>
 </g>
</svg>
