<?xml version="1.0" encoding="UTF-8" standalone="no"?>
<svg
   xmlns:dc="http://purl.org/dc/elements/1.1/"
   xmlns:cc="http://creativecommons.org/ns#"
   xmlns:rdf="http://www.w3.org/1999/02/22-rdf-syntax-ns#"
   xmlns:svg="http://www.w3.org/2000/svg"
   xmlns="http://www.w3.org/2000/svg"
   xmlns:xlink="http://www.w3.org/1999/xlink"
   id="svg8"
   version="1.1"
   viewBox="0 0 77.706579 108.77032"
   height="411.1004"
   width="293.69418">
  <defs
     id="defs2" />
  <metadata
     id="metadata5">
    <rdf:RDF>
      <cc:Work
         rdf:about="">
        <dc:format>image/svg+xml</dc:format>
        <dc:type
           rdf:resource="http://purl.org/dc/dcmitype/StillImage" />
        <dc:title></dc:title>
      </cc:Work>
    </rdf:RDF>
  </metadata>
  <g
     transform="translate(-38.136244,-44.878254)"
     style="display:inline"
     id="layer1">
    <path
       id="path1061"
       style="fill:#e5c8cb;fill-opacity:1;stroke:none;stroke-width:0.335388;stroke-linecap:round;stroke-linejoin:bevel;stroke-miterlimit:4;stroke-dasharray:none;stroke-opacity:1"
       d="m 68.583792,59.100081 c -4.216396,2.212808 -4.137399,5.203559 -6.848888,5.069084 -2.435709,-0.1208 -0.148435,-4.190036 3.136594,-6.399604 3.442285,-2.31534 6.368359,-3.648691 8.550789,-3.051539 2.817041,0.770792 -3.335644,3.593347 -4.838495,4.382059 z" />
  </g>
  <g
     id="layer5">
    <g
       id="g1377"
       style="display:inline"
       transform="translate(-38.136245,-44.878255)">
      <path
         id="path1121"
         style="fill:#9b9dab;stroke:#67697c;stroke-width:1;stroke-linecap:butt;stroke-linejoin:miter;stroke-miterlimit:4;stroke-dasharray:none;stroke-opacity:1"
         d="m 56.392494,53.080337 c -1.1426,1.082996 -1.800742,2.675404 -2.041459,4.197858 -0.414119,2.125382 -5.970166,8.427708 -5.771145,10.686153 -0.0038,2.000536 2.087734,6.452325 4.176721,7.108903 2.053055,0.866344 6.680204,-7.374365 8.201535,-8.860639 3.668105,-2.906267 8.504593,-4.300273 12.761331,-2.564684 1.57659,1.390792 3.294189,1.991593 5.030308,1.074076 1.437261,-0.741253 2.647351,-0.754135 5.159375,-0.992188 1.986194,-0.134843 4.430884,-0.318933 5.720336,1.697488 1.485331,1.519615 1.998581,3.654285 3.275497,5.247825 1.735648,0.637136 3.892056,1.039196 5.027084,2.645833 0.250775,2.456462 2.711683,3.332872 4.567343,1.842596 1.57837,-1.237213 2.0202,-3.689392 1.65036,-5.546763 -1.24072,-1.431218 -2.39213,-2.765597 -1.95707,-5.052291 0.64083,-1.756088 -0.28738,-4.09216 -1.11774,-5.976066 -0.98787,-1.739577 -3.088977,-3.118841 -5.149335,-3.559853 -1.486447,-1.339137 -1.81013,-1.448858 -3.814392,-2.080539 -1.760523,-2.048458 -4.544836,-2.006898 -6.551413,-3.683418 -1.803356,-1.277624 -3.960367,-0.556546 -5.954844,-0.823716 -1.932693,-0.751415 -3.256504,1.551061 -5.202052,1.004134 -1.928123,-0.558023 -3.954292,-0.706541 -5.949116,-0.432193 -1.989303,0.249863 -3.799453,1.178157 -5.324258,2.445525 -1.61766,0.66833 -5.803691,0.556594 -6.737066,1.621959 z" />
      <path
         style="fill:#9b9dab;stroke:#67697c;stroke-width:0.264583px;stroke-linecap:butt;stroke-linejoin:miter;stroke-opacity:1"
         d="m 98.990411,72.791795 c 0.02601,-0.206705 0.07777,-0.40963 0.09943,-0.616734 0.0062,-0.05959 0.02216,-0.124889 -0.0046,-0.180744 -0.02322,-0.0484 -0.0845,-0.04751 -0.12946,-0.04022 -0.133061,0.02157 -0.260862,0.0667 -0.3881,0.109724 -0.225295,0.07618 -0.454747,0.142081 -0.671882,0.240742 -0.269975,0.12267 -0.518675,0.294514 -0.721135,0.51135 -0.167525,0.179421 -0.324304,0.368925 -0.471663,0.565174 -0.347544,0.462851 -0.639413,0.978053 -0.78458,1.541524 -0.07376,0.28629 -0.11675,0.583077 -0.101853,0.878923 0.02424,0.481326 0.219349,0.942271 0.504199,1.326633 0.370306,0.499672 0.877163,0.891682 1.43934,1.152702 0.479113,0.222453 1.00776,0.363583 1.538237,0.334983 0.406576,-0.02192 0.806492,-0.120497 1.186872,-0.262329 0.47981,-0.178905 0.94109,-0.424567 1.32509,-0.766271 0.28524,-0.253825 0.52645,-0.571291 0.63646,-0.941504 0.0811,-0.273066 0.073,-0.566792 7.2e-4,-0.841364 -0.0854,-0.32405 -0.22056,-0.637816 -0.41817,-0.909703 -0.0981,-0.13504 -0.21751,-0.25351 -0.3492,-0.356156 -0.42915,-0.334509 -0.93456,-0.564783 -1.45995,-0.699554 -0.551893,-0.141568 -1.137077,-0.185007 -1.697347,-0.06748 -0.377235,0.07913 -0.748423,0.23052 -1.039859,0.485961 -0.187962,0.164747 -0.301168,0.402275 -0.338751,0.647256 -0.05168,0.336894 0.011,0.684094 0.14007,0.996548 0.115171,0.278799 0.277804,0.54704 0.512798,0.739415 0.25463,0.20845 0.571493,0.332306 0.894928,0.381537 0.293146,0.04462 0.595684,0.03636 0.884073,-0.03349 0.324604,-0.07862 0.623158,-0.239698 0.893238,-0.434456 0.12761,-0.09202 0.25717,-0.186998 0.35012,-0.31656 0.0807,-0.112514 0.1415,-0.237223 0.20752,-0.35849 0.0566,-0.10394 0.12536,-0.216189 0.11351,-0.336654 -0.01,-0.0978 -0.0814,-0.172176 -0.13932,-0.245717 -0.13626,-0.173048 -0.33971,-0.288057 -0.55662,-0.323684 -0.29816,-0.04897 -0.606974,0.02855 -0.866639,0.176483 -0.254888,0.145208 -0.480964,0.363311 -0.585646,0.641147 -0.02877,0.07636 -0.04808,0.15587 -0.0688,0.234665 -0.01641,0.0624 -0.01094,0.130711 0.02333,0.18698 0.05068,0.08321 0.134279,0.13815 0.196334,0.211723"
         id="path1215" />
      <use
         id="use1319"
         xlink:href="#path1215"
         transform="matrix(0.54577492,-0.76866243,0.76866243,0.54577492,-57.67601,110.43401)"
         x="0"
         y="0"
         width="100%"
         height="100%" />
      <use
         id="use1321"
         xlink:href="#path1215"
         transform="matrix(0.36691094,0.95460515,-0.95460515,0.36691094,129.59842,-65.893517)"
         x="0"
         y="0"
         width="100%"
         height="100%" />
      <use
         id="use1325"
         xlink:href="#path1215"
         transform="matrix(0.2699887,-0.94172756,0.94172756,0.2699887,-24.766376,136.25235)"
         x="0"
         y="0"
         width="100%"
         height="100%" />
      <use
         id="use1343"
         xlink:href="#path1215"
         transform="matrix(-0.2050721,1.0691207,-1.0691207,-0.2050721,175.52563,-39.00348)"
         x="0"
         y="0"
         width="100%"
         height="100%" />
      <use
         id="use1349"
         xlink:href="#path1215"
         transform="matrix(0.7795491,-0.47286181,0.47286181,0.7795491,-57.971259,55.856113)"
         x="0"
         y="0"
         width="100%"
         height="100%" />
      <use
         height="100%"
         width="100%"
         y="0"
         x="0"
         transform="matrix(-0.2050721,1.0691207,-1.0691207,-0.2050721,159.08833,-37.893811)"
         xlink:href="#path1215"
         id="use1359" />
      <use
         id="use1361"
         xlink:href="#path1215"
         transform="matrix(-1.0691207,-0.2050721,0.2050721,-1.0691207,176.57757,150.04049)"
         x="0"
         y="0"
         width="100%"
         height="100%" />
      <use
         height="100%"
         width="100%"
         y="0"
         x="0"
         transform="matrix(0.54577492,-0.76866243,0.76866243,0.54577492,-44.868014,97.002939)"
         xlink:href="#path1215"
         id="use1363" />
    </g>
  </g>
  <g
     id="layer4" />
  <g
     transform="translate(-38.136244,-44.878254)"
     style="display:inline"
     id="layer2" />
  <g
     transform="translate(-38.136244,-44.878254)"
     id="layer3" />
</svg>
