<svg width="293.69" height="411.1" version="1.1" viewBox="0 0 77.707 108.77" xmlns="http://www.w3.org/2000/svg">
 <g transform="translate(-38.136 -44.878)">
  <path d="m68.584 59.1c-4.2164 2.2128-4.1374 5.2036-6.8489 5.0691-2.4357-0.1208-0.14844-4.19 3.1366-6.3996 3.4423-2.3153 6.3684-3.6487 8.5508-3.0515 2.817 0.77079-3.3356 3.5933-4.8385 4.3821z" fill="#e5c8cb"/>
 </g>
 <g>
  <g>
   <g>
    <path transform="scale(.26458)" d="m147.37 21.836c-14.125-0.02855-28.265 1.6356-40.945 4.9941-25.359 6.7169-41 27.187-41 40.689l-2 65.529c-4.76e-4 13.385-6.6306 12.766 18.381 19.525 12.754 3.4471 38.788-8.832 64.693-8.8406 25.342-8e-3 50.561 12.328 63.102 9.0066 25.36-6.717 21-6.1871 21-19.689l-2-65.531h-0.4082c0.085-13.346-15.12-33.718-39.975-40.525-12.616-3.4097-26.723-5.1297-40.848-5.1582zm-71.293 61.475 47.637-5.0554 17.133 16.239-1.2676 29.582-17.935 8.585-46.832-19.771zm141.54 0 1.2676 29.58-40.906 16.474-23.863-5.2884-1.2656-29.582 15.527-17.721z" fill="#77767b" stroke="#5e5c64" stroke-linecap="round" stroke-linejoin="round" stroke-width="5.3783"/>
    <g fill="#5e5c64">
     <g>
      <circle cx="19.644" cy="17.493" r=".93544" style="paint-order:stroke fill markers"/>
      <circle cx="21.702" cy="13.938" r=".93544" style="paint-order:stroke fill markers"/>
      <circle cx="24.509" cy="11.225" r=".93544" style="paint-order:stroke fill markers"/>
      <circle cx="28.158" cy="9.2154" r=".93544" style="paint-order:stroke fill markers"/>
      <circle cx="32.087" cy="8.467" r=".93544" style="paint-order:stroke fill markers"/>
      <circle cx="36.016" cy="7.9993" r=".93544" style="paint-order:stroke fill markers"/>
     </g>
     <g transform="matrix(-1 0 0 1 77.082 0)">
      <circle cx="19.644" cy="17.493" r=".93544" style="paint-order:stroke fill markers"/>
      <circle cx="21.702" cy="13.938" r=".93544" style="paint-order:stroke fill markers"/>
      <circle cx="24.509" cy="11.225" r=".93544" style="paint-order:stroke fill markers"/>
      <circle cx="28.158" cy="9.2154" r=".93544" style="paint-order:stroke fill markers"/>
      <circle cx="32.087" cy="8.467" r=".93544" style="paint-order:stroke fill markers"/>
      <circle cx="36.016" cy="7.9993" r=".93544" style="paint-order:stroke fill markers"/>
     </g>
    </g>
   </g>
  </g>
 </g>
</svg>
