<svg width="293.69" height="411.1" version="1.1" viewBox="0 0 77.707 108.77" xmlns="http://www.w3.org/2000/svg">
 <g>
  <g transform="translate(-38.136 -44.878)">
   <path transform="matrix(.26458 0 0 .26458 38.136 44.878)" d="m210.5 51.016-127.07 0.22852c-5.6508 6.339-7.5345 8.5644-10.979 16.306l149.22 0.75128c-3.4521-7.8271-5.4652-10.882-11.172-17.286z" fill="#f2857d" stroke="#eb3f33" stroke-linecap="round" stroke-width="3.7795"/>
   <g>
    <g stroke="#35c073" stroke-linecap="round" stroke-width=".25872">
     <g fill="#99f368">
      <path d="m95.096 64.061s-3.6133 1.0734-5.2333-2.8805c0 0 3.6132-1.0734 5.2333 2.8805z"/>
      <path d="m86.617 66.412s-0.98152-3.6393 3.0121-5.1587c0 0 0.9815 3.6393-3.0121 5.1587z"/>
      <path d="m93.962 56.666s0.10142 3.768-4.137 4.3093c0 0-0.10142-3.7679 4.137-4.3093z"/>
      <path d="m84.195 58.393s3.5606-1.2371 5.3593 2.6388c0 0-3.5605 1.237-5.3593-2.6388z"/>
     </g>
     <g fill="#4fcf88">
      <path d="m86.629 55.787s3.648 0.94886 2.991 5.171c0 0-3.6479-0.94884-2.991-5.171z"/>
      <path d="m95.926 59.903s-2.1222 3.1151-5.8763 1.0744c0 0 2.1222-3.1151 5.8763-1.0744z"/>
      <path d="m91.493 66.944s-3.2812-1.8552-1.5604-5.7663c0 0 3.2811 1.8552 1.5604 5.7663z"/>
      <path d="m84.029 62.885s1.7081-3.3601 5.6915-1.8142c0 0-1.7081 3.3601-5.6915 1.8142z"/>
     </g>
    </g>
    <g fill="#ffe099" fill-rule="evenodd" stroke="#ffce5c" stroke-width=".26458">
     <path d="m88.444 59.931c0.05394 0.0938-0.09983 0.11899-0.15591 0.08965-0.15195-0.07951-0.12207-0.29356-0.02339-0.40146 0.17652-0.19302 0.48482-0.13802 0.64702 0.04287 0.23802 0.26547 0.15519 0.67896-0.10913 0.89257-0.35231 0.2847-0.87415 0.17294-1.1381-0.1754-0.33218-0.43834-0.19099-1.0699 0.24166-1.3837 0.52399-0.38008 1.2658-0.20921 1.6292 0.30792 0.42823 0.60942 0.22755 1.462-0.37418 1.8748-0.69472 0.47655-1.6583 0.24596-2.1203-0.44044-0.52498-0.77993-0.26442-1.8547 0.5067-2.3659 0.86508-0.57349 2.0511-0.28293 2.6114 0.57296 0.62206 0.95019 0.30146 2.2476-0.63922 2.857"/>
     <path transform="rotate(52.071 88.731 59.563)" d="m89.8 58.321c0.05394 0.0938-0.09983 0.11898-0.15591 0.08965-0.15195-0.07951-0.12207-0.29356-0.02339-0.40146 0.17652-0.19302 0.48482-0.13802 0.64702 0.04287 0.23802 0.26547 0.15519 0.67896-0.10914 0.89257-0.35231 0.2847-0.87415 0.17294-1.1381-0.1754-0.33218-0.43834-0.19099-1.0699 0.24166-1.3837 0.52399-0.38008 1.2658-0.20921 1.6292 0.30792 0.42823 0.60942 0.22755 1.462-0.37418 1.8748-0.69472 0.47655-1.6583 0.24596-2.1203-0.44044-0.52498-0.77993-0.26443-1.8547 0.5067-2.3659 0.86508-0.57349 2.0511-0.28293 2.6114 0.57296 0.62206 0.9502 0.30146 2.2476-0.63922 2.857"/>
     <path transform="rotate(131.04 89.993 60.276)" d="m89.8 58.321c0.05394 0.0938-0.09983 0.11898-0.15591 0.08965-0.15195-0.07951-0.12207-0.29356-0.02339-0.40146 0.17652-0.19302 0.48482-0.13802 0.64702 0.04287 0.23802 0.26547 0.15519 0.67896-0.10914 0.89257-0.35231 0.2847-0.87415 0.17294-1.1381-0.1754-0.33218-0.43834-0.19099-1.0699 0.24166-1.3837 0.52399-0.38008 1.2658-0.20921 1.6292 0.30792 0.42823 0.60942 0.22755 1.462-0.37418 1.8748-0.69472 0.47655-1.6583 0.24596-2.1203-0.44044-0.52498-0.77993-0.26443-1.8547 0.5067-2.3659 0.86508-0.57349 2.0511-0.28293 2.6114 0.57296 0.62206 0.9502 0.30146 2.2476-0.63922 2.857"/>
     <path transform="rotate(207.12 90.445 60.71)" d="m89.8 58.321c0.05394 0.0938-0.09983 0.11898-0.15591 0.08965-0.15195-0.07951-0.12207-0.29356-0.02339-0.40146 0.17652-0.19302 0.48482-0.13802 0.64702 0.04287 0.23802 0.26547 0.15519 0.67896-0.10914 0.89257-0.35231 0.2847-0.87415 0.17294-1.1381-0.1754-0.33218-0.43834-0.19099-1.0699 0.24166-1.3837 0.52399-0.38008 1.2658-0.20921 1.6292 0.30792 0.42823 0.60942 0.22755 1.462-0.37418 1.8748-0.69472 0.47655-1.6583 0.24596-2.1203-0.44044-0.52498-0.77993-0.26443-1.8547 0.5067-2.3659 0.86508-0.57349 2.0511-0.28293 2.6114 0.57296 0.62206 0.9502 0.30146 2.2476-0.63922 2.857"/>
     <path transform="rotate(-71.709 91.407 61.646)" d="m89.8 58.321c0.05394 0.0938-0.09983 0.11898-0.15591 0.08965-0.15195-0.07951-0.12207-0.29356-0.02339-0.40146 0.17652-0.19302 0.48482-0.13802 0.64702 0.04287 0.23802 0.26547 0.15519 0.67896-0.10914 0.89257-0.35231 0.2847-0.87415 0.17294-1.1381-0.1754-0.33218-0.43834-0.19099-1.0699 0.24166-1.3837 0.52399-0.38008 1.2658-0.20921 1.6292 0.30792 0.42823 0.60942 0.22755 1.462-0.37418 1.8748-0.69472 0.47655-1.6583 0.24596-2.1203-0.44044-0.52498-0.77993-0.26443-1.8547 0.5067-2.3659 0.86508-0.57349 2.0511-0.28293 2.6114 0.57296 0.62206 0.9502 0.30146 2.2476-0.63922 2.857"/>
    </g>
   </g>
  </g>
 </g>
</svg>
