<?xml version="1.0" encoding="UTF-8" standalone="no"?>
<svg
   xmlns:dc="http://purl.org/dc/elements/1.1/"
   xmlns:cc="http://creativecommons.org/ns#"
   xmlns:rdf="http://www.w3.org/1999/02/22-rdf-syntax-ns#"
   xmlns:svg="http://www.w3.org/2000/svg"
   xmlns="http://www.w3.org/2000/svg"
   xmlns:sodipodi="http://sodipodi.sourceforge.net/DTD/sodipodi-0.dtd"
   xmlns:inkscape="http://www.inkscape.org/namespaces/inkscape"
   width="293.69418"
   height="411.1004"
   viewBox="0 0 77.706579 108.77032"
   version="1.1"
   id="svg8"
   inkscape:version="1.0 (4035a4fb49, 2020-05-01)"
   sodipodi:docname="summer_feelings_w_hat.svg"
   inkscape:export-filename="C:\Users\johan\Bohne.png"
   inkscape:export-xdpi="300"
   inkscape:export-ydpi="300">
  <defs
     id="defs2" />
  <sodipodi:namedview
     inkscape:guide-bbox="true"
     showguides="true"
     id="base"
     pagecolor="#ffffff"
     bordercolor="#666666"
     borderopacity="1.0"
     inkscape:pageopacity="0.0"
     inkscape:pageshadow="2"
     inkscape:zoom="2"
     inkscape:cx="110.76045"
     inkscape:cy="217.60166"
     inkscape:document-units="mm"
     inkscape:current-layer="layer2"
     inkscape:document-rotation="0"
     showgrid="false"
     inkscape:snap-smooth-nodes="true"
     inkscape:object-paths="true"
     inkscape:snap-nodes="true"
     inkscape:window-width="1920"
     inkscape:window-height="1017"
     inkscape:window-x="-8"
     inkscape:window-y="-8"
     inkscape:window-maximized="1"
     lock-margins="false"
     fit-margin-top="20"
     fit-margin-left="20"
     fit-margin-right="20"
     fit-margin-bottom="20"
     units="px"
     inkscape:snap-object-midpoints="true">
    <sodipodi:guide
       id="guide899"
       orientation="0,-1"
       position="7.5406243,38.920321" />
    <sodipodi:guide
       position="38.820489,102.42969"
       orientation="1,0"
       id="guide881" />
    <sodipodi:guide
       id="guide1062"
       orientation="0,-1"
       position="49.410933,95.276569" />
    <sodipodi:guide
       id="guide1064"
       orientation="0,-1"
       position="36.247913,89.588027" />
  </sodipodi:namedview>
  <metadata
     id="metadata5">
    <rdf:RDF>
      <cc:Work
         rdf:about="">
        <dc:format>image/svg+xml</dc:format>
        <dc:type
           rdf:resource="http://purl.org/dc/dcmitype/StillImage" />
        <dc:title></dc:title>
      </cc:Work>
    </rdf:RDF>
  </metadata>
  <g
     inkscape:label="Body"
     inkscape:groupmode="layer"
     id="layer1"
     style="display:inline"
     transform="translate(-38.136244,-44.878254)" />
  <g
     inkscape:groupmode="layer"
     id="layer4"
     inkscape:label="Gesicht" />
  <g
     inkscape:groupmode="layer"
     id="layer2"
     inkscape:label="Shirt"
     style="display:inline"
     transform="translate(-38.136244,-44.878254)" />
  <g
     style="display:inline"
     inkscape:label="Hair"
     id="layer5"
     inkscape:groupmode="layer">
    <g
       id="g1207"
       style="display:inline"
       transform="translate(-38.136245,-44.878255)">
      <path
         id="path1068"
         style="display:inline;fill:#f2857d;stroke:#eb3f33;stroke-width:3.77953;stroke-linecap:round;stroke-linejoin:miter;stroke-miterlimit:4;stroke-dasharray:none;stroke-opacity:1"
         d="M 210.5,51.015625 83.427432,51.244141 c -5.650812,6.339028 -7.534497,8.564363 -10.978938,16.306111 l 149.223426,0.75128 C 218.21986,60.474477 216.20675,57.419872 210.5,51.015625 Z"
         sodipodi:nodetypes="ccccc"
         transform="matrix(0.26458333,0,0,0.26458333,38.136244,44.878254)" />
      <g
         id="g1187">
        <g
           id="g1170">
          <path
             id="path1148"
             style="display:inline;fill:#99f368;stroke:#35c073;stroke-width:0.258724;stroke-linecap:round;stroke-linejoin:miter;stroke-miterlimit:4;stroke-dasharray:none;stroke-opacity:1"
             d="m 95.096434,64.06054 c 0,0 -3.613281,1.07338 -5.233345,-2.880481 0,0 3.613232,-1.073366 5.233345,2.880481 z"
             sodipodi:nodetypes="ccc"
             inkscape:transform-center-x="-2.7693061"
             inkscape:transform-center-y="1.5176574" />
          <path
             inkscape:transform-center-y="2.7299773"
             inkscape:transform-center-x="1.587314"
             sodipodi:nodetypes="ccc"
             d="m 86.617087,66.411974 c 0,0 -0.981515,-3.63931 3.012112,-5.158706 0,0 0.981502,3.63926 -3.012112,5.158706 z"
             style="display:inline;fill:#99f368;stroke:#35c073;stroke-width:0.258724;stroke-linecap:round;stroke-linejoin:miter;stroke-miterlimit:4;stroke-dasharray:none;stroke-opacity:1"
             id="path1150" />
          <path
             sodipodi:nodetypes="ccc"
             d="m 93.961792,56.665973 c 0,0 0.10142,3.767978 -4.137048,4.309281 0,0 -0.10142,-3.767927 4.137048,-4.309281 z"
             style="display:inline;fill:#99f368;stroke:#35c073;stroke-width:0.258724;stroke-linecap:round;stroke-linejoin:miter;stroke-miterlimit:4;stroke-dasharray:none;stroke-opacity:1"
             id="path927-4" />
          <path
             id="path1152"
             style="display:inline;fill:#99f368;stroke:#35c073;stroke-width:0.258724;stroke-linecap:round;stroke-linejoin:miter;stroke-miterlimit:4;stroke-dasharray:none;stroke-opacity:1"
             d="m 84.195179,58.393466 c 0,0 3.560568,-1.237055 5.359271,2.638804 0,0 -3.560519,1.23704 -5.359271,-2.638804 z"
             sodipodi:nodetypes="ccc"
             inkscape:transform-center-x="2.8356411"
             inkscape:transform-center-y="-1.389778" />
          <path
             inkscape:transform-center-y="-2.730644"
             inkscape:transform-center-x="1.5861604"
             sodipodi:nodetypes="ccc"
             d="m 86.628769,55.786524 c 0,0 3.647961,0.948858 2.991042,5.170952 0,0 -3.647912,-0.948844 -2.991042,-5.170952 z"
             style="display:inline;fill:#4fcf88;stroke:#35c073;stroke-width:0.258724;stroke-linecap:round;stroke-linejoin:miter;stroke-miterlimit:4;stroke-dasharray:none;stroke-opacity:1"
             id="path1154" />
          <path
             id="path1156"
             style="display:inline;fill:#4fcf88;stroke:#35c073;stroke-width:0.258724;stroke-linecap:round;stroke-linejoin:miter;stroke-miterlimit:4;stroke-dasharray:none;stroke-opacity:1"
             d="m 95.925637,59.902979 c 0,0 -2.122242,3.115131 -5.876293,1.074365 0,0 2.122213,-3.115089 5.876293,-1.074365 z"
             sodipodi:nodetypes="ccc"
             inkscape:transform-center-x="-3.1053641"
             inkscape:transform-center-y="-0.5736198" />
          <path
             inkscape:transform-center-y="3.0467485"
             inkscape:transform-center-x="-0.83044789"
             sodipodi:nodetypes="ccc"
             d="m 91.492783,66.943689 c 0,0 -3.281175,-1.85522 -1.5604,-5.766301 0,0 3.281131,1.855195 1.5604,5.766301 z"
             style="display:inline;fill:#4fcf88;stroke:#35c073;stroke-width:0.258724;stroke-linecap:round;stroke-linejoin:miter;stroke-miterlimit:4;stroke-dasharray:none;stroke-opacity:1"
             id="path1158" />
          <path
             id="path1160"
             style="display:inline;fill:#4fcf88;stroke:#35c073;stroke-width:0.258724;stroke-linecap:round;stroke-linejoin:miter;stroke-miterlimit:4;stroke-dasharray:none;stroke-opacity:1"
             d="m 84.029373,62.885472 c 0,0 1.708093,-3.360115 5.691542,-1.81423 0,0 -1.708071,3.360069 -5.691542,1.81423 z"
             sodipodi:nodetypes="ccc"
             inkscape:transform-center-x="3.0069827"
             inkscape:transform-center-y="0.96455837" />
        </g>
        <g
           id="g1146">
          <path
             d="m 88.443642,59.931068 c 0.05394,0.0938 -0.09983,0.118986 -0.155908,0.08965 -0.151953,-0.07951 -0.12207,-0.293555 -0.02339,-0.401461 0.176524,-0.193018 0.484825,-0.138018 0.647015,0.04287 0.238021,0.265467 0.155194,0.678963 -0.109134,0.892569 -0.352309,0.284704 -0.874154,0.172939 -1.138123,-0.175395 -0.332178,-0.438343 -0.190987,-1.069856 0.241655,-1.383677 0.523989,-0.380079 1.265848,-0.209212 1.629231,0.307916 0.428234,0.609419 0.22755,1.462021 -0.374177,1.874785 -0.694717,0.476552 -1.658313,0.245962 -2.120338,-0.440437 -0.524981,-0.77993 -0.264425,-1.854692 0.506697,-2.365892 0.865084,-0.57349 2.051132,-0.282927 2.611447,0.572958 0.622055,0.950194 0.301456,2.247617 -0.639219,2.856999"
             sodipodi:t0="0"
             sodipodi:argument="-17.800594"
             sodipodi:radius="2.1581185"
             sodipodi:revolution="3"
             sodipodi:expansion="1"
             sodipodi:cy="59.931068"
             sodipodi:cx="88.443642"
             id="path904-8"
             style="display:inline;fill:#ffe099;fill-rule:evenodd;stroke:#ffce5c;stroke-width:0.264583"
             sodipodi:type="spiral" />
          <path
             sodipodi:type="spiral"
             style="display:inline;fill:#ffe099;fill-rule:evenodd;stroke:#ffce5c;stroke-width:0.264583"
             id="path1116"
             sodipodi:cx="89.800034"
             sodipodi:cy="58.321327"
             sodipodi:expansion="1"
             sodipodi:revolution="3"
             sodipodi:radius="2.1581185"
             sodipodi:argument="-17.800594"
             sodipodi:t0="0"
             d="m 89.800034,58.321327 c 0.05394,0.0938 -0.09983,0.118985 -0.155908,0.08965 -0.151954,-0.07951 -0.122071,-0.293555 -0.02339,-0.401461 0.176524,-0.193018 0.484825,-0.138018 0.647015,0.04287 0.238021,0.265467 0.155194,0.678962 -0.109135,0.892569 -0.352308,0.284704 -0.874153,0.172939 -1.138122,-0.175395 -0.332179,-0.438343 -0.190988,-1.069856 0.241655,-1.383677 0.523989,-0.380079 1.265848,-0.209213 1.629231,0.307916 0.428234,0.609419 0.22755,1.462021 -0.374177,1.874785 -0.694717,0.476552 -1.658314,0.245961 -2.120338,-0.440437 -0.524981,-0.77993 -0.264426,-1.854692 0.506697,-2.365892 0.865084,-0.57349 2.051132,-0.282928 2.611446,0.572957 0.622056,0.950195 0.301457,2.247618 -0.639218,2.857"
             transform="rotate(52.071141,88.731195,59.563156)" />
          <path
             transform="rotate(131.03906,89.993058,60.275753)"
             d="m 89.800034,58.321327 c 0.05394,0.0938 -0.09983,0.118985 -0.155908,0.08965 -0.151954,-0.07951 -0.122071,-0.293555 -0.02339,-0.401461 0.176524,-0.193018 0.484825,-0.138018 0.647015,0.04287 0.238021,0.265467 0.155194,0.678962 -0.109135,0.892569 -0.352308,0.284704 -0.874153,0.172939 -1.138122,-0.175395 -0.332179,-0.438343 -0.190988,-1.069856 0.241655,-1.383677 0.523989,-0.380079 1.265848,-0.209213 1.629231,0.307916 0.428234,0.609419 0.22755,1.462021 -0.374177,1.874785 -0.694717,0.476552 -1.658314,0.245961 -2.120338,-0.440437 -0.524981,-0.77993 -0.264426,-1.854692 0.506697,-2.365892 0.865084,-0.57349 2.051132,-0.282928 2.611446,0.572957 0.622056,0.950195 0.301457,2.247618 -0.639218,2.857"
             sodipodi:t0="0"
             sodipodi:argument="-17.800594"
             sodipodi:radius="2.1581185"
             sodipodi:revolution="3"
             sodipodi:expansion="1"
             sodipodi:cy="58.321327"
             sodipodi:cx="89.800034"
             id="path1118"
             style="display:inline;fill:#ffe099;fill-rule:evenodd;stroke:#ffce5c;stroke-width:0.264583"
             sodipodi:type="spiral" />
          <path
             sodipodi:type="spiral"
             style="display:inline;fill:#ffe099;fill-rule:evenodd;stroke:#ffce5c;stroke-width:0.264583"
             id="path1122"
             sodipodi:cx="89.800034"
             sodipodi:cy="58.321327"
             sodipodi:expansion="1"
             sodipodi:revolution="3"
             sodipodi:radius="2.1581185"
             sodipodi:argument="-17.800594"
             sodipodi:t0="0"
             d="m 89.800034,58.321327 c 0.05394,0.0938 -0.09983,0.118985 -0.155908,0.08965 -0.151954,-0.07951 -0.122071,-0.293555 -0.02339,-0.401461 0.176524,-0.193018 0.484825,-0.138018 0.647015,0.04287 0.238021,0.265467 0.155194,0.678962 -0.109135,0.892569 -0.352308,0.284704 -0.874153,0.172939 -1.138122,-0.175395 -0.332179,-0.438343 -0.190988,-1.069856 0.241655,-1.383677 0.523989,-0.380079 1.265848,-0.209213 1.629231,0.307916 0.428234,0.609419 0.22755,1.462021 -0.374177,1.874785 -0.694717,0.476552 -1.658314,0.245961 -2.120338,-0.440437 -0.524981,-0.77993 -0.264426,-1.854692 0.506697,-2.365892 0.865084,-0.57349 2.051132,-0.282928 2.611446,0.572957 0.622056,0.950195 0.301457,2.247618 -0.639218,2.857"
             transform="rotate(-152.87838,90.444704,60.710491)" />
          <path
             transform="rotate(-71.708528,91.40661,61.646087)"
             d="m 89.800034,58.321327 c 0.05394,0.0938 -0.09983,0.118985 -0.155908,0.08965 -0.151954,-0.07951 -0.122071,-0.293555 -0.02339,-0.401461 0.176524,-0.193018 0.484825,-0.138018 0.647015,0.04287 0.238021,0.265467 0.155194,0.678962 -0.109135,0.892569 -0.352308,0.284704 -0.874153,0.172939 -1.138122,-0.175395 -0.332179,-0.438343 -0.190988,-1.069856 0.241655,-1.383677 0.523989,-0.380079 1.265848,-0.209213 1.629231,0.307916 0.428234,0.609419 0.22755,1.462021 -0.374177,1.874785 -0.694717,0.476552 -1.658314,0.245961 -2.120338,-0.440437 -0.524981,-0.77993 -0.264426,-1.854692 0.506697,-2.365892 0.865084,-0.57349 2.051132,-0.282928 2.611446,0.572957 0.622056,0.950195 0.301457,2.247618 -0.639218,2.857"
             sodipodi:t0="0"
             sodipodi:argument="-17.800594"
             sodipodi:radius="2.1581185"
             sodipodi:revolution="3"
             sodipodi:expansion="1"
             sodipodi:cy="58.321327"
             sodipodi:cx="89.800034"
             id="path1124"
             style="display:inline;fill:#ffe099;fill-rule:evenodd;stroke:#ffce5c;stroke-width:0.264583"
             sodipodi:type="spiral" />
        </g>
      </g>
    </g>
  </g>
  <g
     inkscape:groupmode="layer"
     id="layer3"
     inkscape:label="Hose"
     transform="translate(-38.136244,-44.878254)" />
</svg>
