<svg width="293.69" height="411.1" version="1.1" viewBox="0 0 77.707 108.77" xmlns="http://www.w3.org/2000/svg">
 <g transform="translate(-38.136 -44.878)">
  <g transform="translate(38.136 44.878)" stroke="#e79a9a">
   <g>
    <path d="m30.391 103.93 3.7485-2.3077-3.7514-3.9728 3.693-3.939h-3.6205l3.6952 3.999-3.7524 3.9756 3.761 2.2263-0.25676 0.48743z" fill="none" stroke-width=".165"/>
    <path d="m34.238 104.86c-5e-6 0.76716 0.38017 1.7866-1.4206 2.0205-2.4816 0.32226-7.3607 0.40708-7.3607-0.36007 5e-6 -0.76716 2.0286-2.4882 4.531-2.4882s4.2504 0.0606 4.2504 0.82779z" fill="#edd4d4" stroke-linecap="round" stroke-width=".265" style="paint-order:stroke fill markers"/>
   </g>
   <g transform="matrix(-1 0 0 1 77.647 0)">
    <path d="m30.391 103.93 3.7485-2.3077-3.7514-3.9728 3.693-3.939h-3.6205l3.6952 3.999-3.7524 3.9756 3.761 2.2263-0.25676 0.48743z" fill="none" stroke-width=".165"/>
    <path d="m34.238 104.86c-5e-6 0.76716 0.38017 1.7866-1.4206 2.0205-2.4816 0.32226-7.3607 0.40708-7.3607-0.36007 5e-6 -0.76716 2.0286-2.4882 4.531-2.4882s4.2504 0.0606 4.2504 0.82779z" fill="#edd4d4" stroke-linecap="round" stroke-width=".265" style="paint-order:stroke fill markers"/>
   </g>
  </g>
 </g>
</svg>
