<svg width="293.69" height="411.1" version="1.1" viewBox="0 0 77.707 108.77" xmlns="http://www.w3.org/2000/svg">
 <defs>
  <mask id="mask1640" maskUnits="userSpaceOnUse">
   <path d="m55.234 114.73c0.55469 5.3895 2.9019 10.499 9.5756 14.763v17.295h9.57v-11.809h5.1547v11.809h9.57v-17.295c6.6737-4.2642 9.0204-9.3734 9.5751-14.763h-21.723z" fill="#343945" stroke="#000"/>
  </mask>
 </defs>
 <g transform="translate(-38.136 -44.878)">
  <g>
   <path transform="matrix(.26458 0 0 .26458 38.136 44.878)" d="m64.621 264c2.0965 20.37 10.968 39.68 36.191 55.797v65.367h36.17v-44.633h19.482v44.633h36.17v-65.367c25.224-16.117 34.093-35.427 36.189-55.797h-82.102z" fill="#343945" stroke="#000" stroke-width="3.7795"/>
   <path transform="matrix(.26458 0 0 .26458 38.136 44.878)" d="m64.621 264c2.0965 20.37 10.968 39.68 36.191 55.797v65.367h36.17v-44.633h19.482v44.633h36.17v-65.367c25.224-16.117 34.093-35.427 36.189-55.797h-82.102z" fill="#859999" stroke="#6f8585" stroke-width="3.7795"/>
   <g fill="#343945" mask="url(#mask1640)" stroke="#9babab" stroke-width=".5px">
    <path d="m96.971 115.18v33.196"/>
    <path d="m93.332 115.2v33.181"/>
    <path d="m89.694 115.22v33.165"/>
    <path d="m86.056 115.24v33.148"/>
    <path d="m82.418 115.26v33.132"/>
    <path d="m78.78 115.29v33.116"/>
    <path d="m75.141 115.31v33.101"/>
    <path d="m71.503 115.33v33.084"/>
    <path d="m67.865 115.35v33.068"/>
    <path d="m64.226 115.37v33.052"/>
    <path d="m60.588 115.4v33.035"/>
    <path d="m56.95 115.42v33.02"/>
   </g>
  </g>
 </g>
</svg>
