<svg width="293.69" height="411.1" version="1.1" viewBox="0 0 77.707 108.77" xmlns="http://www.w3.org/2000/svg">
 <g transform="translate(-38.136 -44.878)">
  <g>
   <g>
    <path d="m54.538 110.39c-2.488 5.7797-7.61 15.331-6.812 21.572 0.43455 3.3989 6.6052 1.8887 9.9742 2.5012 2.0219-0.0163 4.1452-2.0856 5.6634 0.40221 2.2862 1.5662 4.4358-1.4557 6.7597-0.37595 2.0106 0.45292 4.3367 0.0421 6.06-1.0458 0.65849-0.27537 0.82283-0.49015 1.7176-0.11353 1.8219 0.72844 4.0978 1.3097 6.0447 0.51829 2.2943-0.37406 4.8059 2.3424 6.8117 0.0433 1.8349-2.2138 4.1141 1.2224 6.3531-0.10499 2.8976-0.76549 8.5062 0.69833 8.6939-2.2928 0.39409-6.2801-6.098-21.021-6.098-21.021-15.371 0.28198-31.23-0.0835-45.168-0.083z" fill="#d3eeea" stroke="#b6e2dc" stroke-width=".9"/>
    <g fill="#b6e2dc">
     <path d="m61.185 133.66 5.928-15.657-3.7499 16.87z"/>
     <path d="m90.757 133.89-5.9605-14.734 1.2172 14.959c1.846 0.98727 3.4399 0.96358 4.7433-0.22434z"/>
     <path d="m69.149 134.26 4.1598-10.965 2.8742 10.156c-2.3041 1.2624-4.6455 1.6117-7.034 0.80937z"/>
     <path d="m48.847 133.63 9.4963-12.132-3.414 12.802z"/>
     <path d="m93.542 133.42-1.9859-6.7303 5.554 7.1008z"/>
     <path d="m101.58 133.51-2.38-12.331 5.096 12.02z"/>
    </g>
   </g>
   <g>
    <g fill="#b6e2dc" stroke="#b6e2dc" stroke-width=".9">
     <path d="m59.021 114.73-4.0991-24.071 2.7603 0.0081 4.0699 24.063z"/>
     <path d="m95.077 114.73 4.0749-24.063h-2.7361l-4.0699 24.063z"/>
    </g>
    <g>
     <g>
      <circle cx="93.93" cy="113.15" r="1.4211" fill="#ea8585"/>
      <circle cx="93.93" cy="113.15" r=".39428" fill="#b6e2dc"/>
     </g>
     <g>
      <circle cx="60.165" cy="113.31" r="1.4211" fill="#ea8585"/>
      <circle cx="60.165" cy="113.31" r=".39428" fill="#b6e2dc"/>
     </g>
    </g>
   </g>
  </g>
 </g>
</svg>
