<svg width="293.69" height="411.1" version="1.1" viewBox="0 0 77.707 108.77" xmlns="http://www.w3.org/2000/svg">
 <defs>
  <linearGradient id="linearGradient1006" x1="76.36" x2="77.156" y1="116.15" y2="116.23" gradientTransform="translate(.017952 .023399)" gradientUnits="userSpaceOnUse">
   <stop stop-color="#fffaff" offset="0"/>
   <stop stop-color="#ffd6ff" offset="1"/>
  </linearGradient>
 </defs>
 <g transform="translate(-38.136 -44.878)">
  <g>
   <path transform="matrix(.26458 0 0 .26458 38.136 44.878)" d="m64.279 264c3.05 34.5 35.27 61.156 51.928 62.566l0.10352 64.934h11.482l-0.16406-60.699c6.4963 0.81052 13.252 1.8872 19.094 1.8066 5.8421 0.08051 12.597-0.99612 19.094-1.8066l-0.16211 60.699h11.482l0.10156-64.934c16.657-1.4104 48.88-28.067 51.93-62.566h-164.89z" fill="#3e90cc" stroke="#2f7bb1" stroke-width="3.7795"/>
   <g>
    <path d="m75.727 114.73v6.7046h2.5257v-6.7046z" fill="#3e90cc" stroke="#2f7bb1" stroke-width=".5"/>
    <g>
     <g>
      <circle cx="76.975" cy="116.17" r=".77759" fill="#2f7bb1"/>
      <circle cx="76.975" cy="116.17" r=".59635" fill="url(#linearGradient1006)"/>
     </g>
     <path d="m76.957 117.33v3.4845" fill="#fffaff" stroke="#2f7bb1" stroke-width=".5"/>
    </g>
   </g>
  </g>
 </g>
</svg>
