<svg width="293.69" height="411.1" version="1.1" viewBox="0 0 77.707 108.77" xmlns="http://www.w3.org/2000/svg">
 <g transform="translate(-38.136 -44.878)">
  <g transform="translate(-1.2708e-6)">
   <g stroke="#7eb49e">
    <path transform="matrix(.26458 0 0 .26458 38.136 44.878)" d="m63.235 181.01-3.9071 68.072c1.5664 26.527 2.8697 53.053 52.637 79.58v62.281h18.893v-56.215l15.865 1.3984 15.865-1.3984v56.215h18.893v-62.281c49.767-26.527 51.07-53.053 52.637-79.58l-3.3305-68.072h-4.5491l-6.2688 48.479h-146.49l-5.7731-48.479z" fill="#97c3b1" stroke-width="3.7795"/>
    <path d="m68.255 148.02h4.0094v-2.3762h-4.0094z" fill="#a4cbbb" stroke-width=".21222px"/>
    <path d="m81.566 148.02h4.0094v-2.3762h-4.0094z" fill="#a4cbbb" stroke-width=".21222px"/>
   </g>
   <g stroke="#7c6750" stroke-linecap="round">
    <path d="m57.6 107.44h39.061" fill="none" stroke-dasharray="1.59, 1.59" stroke-width=".265"/>
    <path d="m68.531 145.97h3.4148" fill="#7c6750" stroke-dasharray="0.39, 0.39" stroke-width=".065"/>
    <path d="m81.864 145.97h3.4148" fill="#7c6750" stroke-dasharray="0.39, 0.39" stroke-width=".065"/>
   </g>
   <path transform="matrix(.26458 0 0 .26458 38.136 44.878)" d="m104.96 252.66v22.82c12.414 15.045 25.937 16.225 41.766 18.189 16.561-2.2664 29.354-3.1442 41.767-18.189v-22.82h-41.768z" fill="none" stroke="#7eb49e" stroke-width="1.3795"/>
   <path d="m66.091 111.91-1.31e-4 2.8159 21.697-1e-5v-2.8158z" fill="#a4cbbb"/>
  </g>
 </g>
</svg>
