<?xml version="1.0" encoding="UTF-8" standalone="no"?>
<svg
   xmlns:dc="http://purl.org/dc/elements/1.1/"
   xmlns:cc="http://creativecommons.org/ns#"
   xmlns:rdf="http://www.w3.org/1999/02/22-rdf-syntax-ns#"
   xmlns:svg="http://www.w3.org/2000/svg"
   xmlns="http://www.w3.org/2000/svg"
   id="svg8"
   version="1.1"
   viewBox="0 0 77.706579 108.77032"
   height="411.1004"
   width="293.69418">
  <defs
     id="defs2" />
  <metadata
     id="metadata5">
    <rdf:RDF>
      <cc:Work
         rdf:about="">
        <dc:format>image/svg+xml</dc:format>
        <dc:type
           rdf:resource="http://purl.org/dc/dcmitype/StillImage" />
        <dc:title></dc:title>
      </cc:Work>
    </rdf:RDF>
  </metadata>
  <g
     transform="translate(-38.136244,-44.878254)"
     style="display:inline"
     id="layer1" />
  <g
     id="layer4" />
  <g
     transform="translate(-38.136244,-44.878254)"
     style="display:inline"
     id="layer2" />
  <g
     transform="translate(-38.136244,-44.878254)"
     id="layer3">
    <g
       id="g1107"
       style="display:inline"
       transform="translate(-1.2708333e-6)">
      <path
         id="path1045"
         style="fill:#cebcb6;stroke:#9d786c;stroke-width:1;stroke-linecap:butt;stroke-linejoin:miter;stroke-miterlimit:4;stroke-dasharray:none;stroke-opacity:1"
         d="m 54.245855,114.72825 -2.645833,28.70729 c 0.504043,2.25844 2.536775,1.56002 4.130666,1.30755 2.467287,0.21282 3.246329,-0.10011 5.003258,-0.0881 2.014597,0.32211 4.032668,1.61723 6.096133,0.78313 1.633024,-0.50709 3.304873,-0.24021 4.841586,0.42103 2.161691,0.40899 4.221623,-1.33797 6.403631,-0.40291 1.732206,1.00294 3.621111,1.02273 5.447557,0.25523 2.124241,-0.61499 4.202453,0.75436 6.307589,0.24262 2.134847,-0.93067 4.46346,-0.36177 6.665302,-0.74987 1.838291,-0.32402 3.774266,-0.47894 5.443476,-1.31427 0.71604,-0.52224 0.1423,-1.50026 0.20842,-2.25085 -0.82676,-8.97029 -1.65352,-17.94058 -2.48027,-26.91087 H 54.245855 Z" />
      <path
         style="fill:#9d786c;stroke:none;stroke-width:0.264583px;stroke-linecap:butt;stroke-linejoin:miter;stroke-opacity:1"
         d="m 55.730688,144.74309 4.233681,-25.71536 0.769577,25.62726 z"
         id="path1055" />
      <path
         style="fill:#9d786c;stroke:none;stroke-width:0.264583px;stroke-linecap:butt;stroke-linejoin:miter;stroke-opacity:1"
         d="m 66.830079,145.43812 -0.699008,-16.07693 -1.138592,16.33716 z"
         id="path1057" />
      <path
         style="fill:#9d786c;stroke:none;stroke-width:0.264583px;stroke-linecap:butt;stroke-linejoin:miter;stroke-opacity:1"
         d="m 71.671665,145.85915 1.917883,-20.8134 2.521018,20.16565 z"
         id="path1059" />
      <path
         style="fill:#9d786c;stroke:none;stroke-width:0.264583px;stroke-linecap:butt;stroke-linejoin:miter;stroke-opacity:1"
         d="m 85.343829,145.58109 2.651545,-22.40623 1.835068,22.77923 z"
         id="path1062" />
      <path
         style="fill:#9d786c;stroke:none;stroke-width:0.264583px;stroke-linecap:butt;stroke-linejoin:miter;stroke-opacity:1"
         d="m 96.495744,145.20422 1.041151,-20.06493 4.402325,18.75066 z"
         id="path1064" />
      <path
         style="fill:#ded2ce;stroke:none;stroke-width:0.264583px;stroke-linecap:butt;stroke-linejoin:miter;stroke-opacity:1"
         d="m 59.964369,119.02773 2.814961,25.65063 -2.060146,-0.51495 z"
         id="path1066" />
      <path
         style="fill:#ded2ce;stroke:none;stroke-width:0.264583px;stroke-linecap:butt;stroke-linejoin:miter;stroke-opacity:1"
         d="m 66.131071,129.36119 1.977503,15.33113 -1.300165,0.24741 z"
         id="path1068" />
      <path
         style="fill:#ded2ce;stroke:none;stroke-width:0.264583px;stroke-linecap:butt;stroke-linejoin:miter;stroke-opacity:1"
         d="m 87.995374,123.17486 -4.24331,21.97221 1.65014,-0.0593 z"
         id="path1070" />
    </g>
  </g>
</svg>
