<svg width="293.69" height="411.1" version="1.1" viewBox="0 0 77.707 108.77" xmlns="http://www.w3.org/2000/svg">
 <g transform="translate(-38.136 -44.878)">
  <g transform="translate(-1.2708e-6)">
   <path d="m54.246 114.73-2.6458 28.707c0.50404 2.2584 2.5368 1.56 4.1307 1.3076 2.4673 0.21282 3.2463-0.10011 5.0033-0.0881 2.0146 0.32211 4.0327 1.6172 6.0961 0.78313 1.633-0.50709 3.3049-0.24021 4.8416 0.42103 2.1617 0.40899 4.2216-1.338 6.4036-0.40291 1.7322 1.0029 3.6211 1.0227 5.4476 0.25523 2.1242-0.61499 4.2025 0.75436 6.3076 0.24262 2.1348-0.93067 4.4635-0.36177 6.6653-0.74987 1.8383-0.32402 3.7743-0.47894 5.4435-1.3143 0.71604-0.52224 0.1423-1.5003 0.20842-2.2508-0.82676-8.9703-1.6535-17.941-2.4803-26.911h-45.422z" fill="#cebcb6" stroke="#9d786c"/>
   <g fill="#9d786c">
    <path d="m55.731 144.74 4.2337-25.715 0.76958 25.627z"/>
    <path d="m66.83 145.44-0.69901-16.077-1.1386 16.337z"/>
    <path d="m71.672 145.86 1.9179-20.813 2.521 20.166z"/>
    <path d="m85.344 145.58 2.6515-22.406 1.8351 22.779z"/>
    <path d="m96.496 145.2 1.0412-20.065 4.4023 18.751z"/>
   </g>
   <g fill="#ded2ce">
    <path d="m59.964 119.03 2.815 25.651-2.0601-0.51495z"/>
    <path d="m66.131 129.36 1.9775 15.331-1.3002 0.24741z"/>
    <path d="m87.995 123.17-4.2433 21.972 1.6501-0.0593z"/>
   </g>
  </g>
 </g>
</svg>
