<svg width="293.69" height="411.1" version="1.1" viewBox="0 0 77.707 108.77" xmlns="http://www.w3.org/2000/svg">
 <g transform="translate(-38.136 -44.878)">
  <g>
   <g transform="translate(-.17943 .67513)">
    <path transform="matrix(.26458 0 0 .26458 38.136 44.878)" d="m64.365 264s4.5763 31.5 13.616 43.513c8.1924 10.887 34.915 21.253 34.915 21.253l1.6579 16.853 14.271 0.10425 0.89889-10.787 17 1.0371s11.031-0.78963 16.531-2.7896l1.4787 11.79 13.852-0.67462c2.5845-10.967 1.5723-6.7471 2.8146-13.584 7.5751-1.9659 22.376-12.371 30.521-23.582 6.4341-8.856 11.867-18.055 14.238-25.87 1.805-5.9511 2.8993-10.013 3.6745-17.263l-83.109 2e-5z" fill="#6fd89e" stroke="#35c073" stroke-width="3.7795"/>
    <path d="m61.912 115.42s0.29713 3.6557-0.43182 6.4977c-0.45974 1.7924-3.7212 1.0853-3.7212 1.0853" fill="none" stroke="#ffce5c" stroke-dasharray="1.05833, 0.529166" stroke-linecap="round" stroke-width=".26458"/>
    <path d="m91.801 115.37s-0.28059 3.7054 0.44835 6.5473c0.45974 1.7924 3.2913 1.1184 3.2913 1.1184" fill="none" stroke="#ffce5c" stroke-dasharray="0.795, 0.795" stroke-linecap="round" stroke-width=".265"/>
   </g>
   <g transform="translate(-.26358 .36984)">
    <path d="m75.639 114.73v6.1516h2.4403v-6.1516z" fill="#7fdca9" stroke="#35c073" stroke-width=".5"/>
    <g fill="#ffce5c">
     <circle cx="76.859" cy="116" r=".49111" style="paint-order:stroke fill markers"/>
     <circle cx="76.859" cy="117.8" r=".49111" style="paint-order:stroke fill markers"/>
     <circle cx="76.859" cy="119.6" r=".49111" style="paint-order:stroke fill markers"/>
    </g>
    <g stroke="#35c073" stroke-width=".26458px">
     <path d="m68.679 136.35 3.308 0.0978 0.01409-1.8997-3.366 1.7e-4z" fill="#7fdca9"/>
     <path d="m82.172 135.95c0.19844 0.33073 3.2145 0.0276 3.2145 0.0276l0.1544-1.8529-3.6182 0.0857c-0.1754-0.0117 0.19086 1.7747 0.24932 1.7396z" fill="#7fdca9"/>
     <path d="m60.824 114.73s0.69904 2.6775 0.13229 5.5562c-0.6936 3.523-4.3827 0.90341-4.3827 0.90341" fill="none"/>
     <path d="m92.967 114.73s-0.69904 2.6775-0.13229 5.5562c0.6936 3.523 4.3827 0.90341 4.3827 0.90341" fill="none"/>
    </g>
   </g>
  </g>
 </g>
</svg>
