<?xml version="1.0" encoding="UTF-8" standalone="no"?>
<svg
   xmlns:dc="http://purl.org/dc/elements/1.1/"
   xmlns:cc="http://creativecommons.org/ns#"
   xmlns:rdf="http://www.w3.org/1999/02/22-rdf-syntax-ns#"
   xmlns:svg="http://www.w3.org/2000/svg"
   xmlns="http://www.w3.org/2000/svg"
   xmlns:sodipodi="http://sodipodi.sourceforge.net/DTD/sodipodi-0.dtd"
   xmlns:inkscape="http://www.inkscape.org/namespaces/inkscape"
   width="293.69418"
   height="411.1004"
   viewBox="0 0 77.706579 108.77032"
   version="1.1"
   id="svg8"
   inkscape:version="1.0 (4035a4fb49, 2020-05-01)"
   sodipodi:docname="surferbohne_pants.svg"
   inkscape:export-filename="C:\Users\johan\Bohne.png"
   inkscape:export-xdpi="300"
   inkscape:export-ydpi="300">
  <defs
     id="defs2">
    <inkscape:path-effect
       simplify_just_coalesce="false"
       simplify_individual_paths="false"
       helper_size="0"
       smooth_angles="360"
       threshold="0.000736842"
       steps="1"
       lpeversion="1"
       is_visible="true"
       id="path-effect1230"
       effect="simplify" />
    <inkscape:path-effect
       simplify_just_coalesce="false"
       simplify_individual_paths="false"
       helper_size="0"
       smooth_angles="360"
       threshold="0.000736842"
       steps="1"
       lpeversion="1"
       is_visible="true"
       id="path-effect1226"
       effect="simplify" />
    <inkscape:path-effect
       simplify_just_coalesce="false"
       simplify_individual_paths="false"
       helper_size="0"
       smooth_angles="360"
       threshold="0.000736842"
       steps="1"
       lpeversion="1"
       is_visible="true"
       id="path-effect1222"
       effect="simplify" />
    <inkscape:path-effect
       simplify_just_coalesce="false"
       simplify_individual_paths="false"
       helper_size="0"
       smooth_angles="360"
       threshold="0.000736842"
       steps="1"
       lpeversion="1"
       is_visible="true"
       id="path-effect1218"
       effect="simplify" />
    <inkscape:path-effect
       simplify_just_coalesce="false"
       simplify_individual_paths="false"
       helper_size="0"
       smooth_angles="360"
       threshold="0.000736842"
       steps="1"
       lpeversion="1"
       is_visible="true"
       id="path-effect1129"
       effect="simplify" />
    <inkscape:path-effect
       simplify_just_coalesce="false"
       simplify_individual_paths="false"
       helper_size="0"
       smooth_angles="360"
       threshold="0.000736842"
       steps="1"
       lpeversion="1"
       is_visible="true"
       id="path-effect1005"
       effect="simplify" />
    <inkscape:path-effect
       simplify_just_coalesce="false"
       simplify_individual_paths="false"
       helper_size="0"
       smooth_angles="360"
       threshold="0.000736842"
       steps="1"
       lpeversion="1"
       is_visible="true"
       id="path-effect973"
       effect="simplify" />
    <inkscape:path-effect
       simplify_just_coalesce="false"
       simplify_individual_paths="false"
       helper_size="0"
       smooth_angles="360"
       threshold="0.000736842"
       steps="1"
       lpeversion="1"
       is_visible="true"
       id="path-effect969"
       effect="simplify" />
    <inkscape:path-effect
       simplify_just_coalesce="false"
       simplify_individual_paths="false"
       helper_size="0"
       smooth_angles="360"
       threshold="0.000736842"
       steps="1"
       lpeversion="1"
       is_visible="true"
       id="path-effect965"
       effect="simplify" />
    <inkscape:path-effect
       simplify_just_coalesce="false"
       simplify_individual_paths="false"
       helper_size="0"
       smooth_angles="360"
       threshold="0.000736842"
       steps="1"
       lpeversion="1"
       is_visible="true"
       id="path-effect961"
       effect="simplify" />
    <inkscape:path-effect
       simplify_just_coalesce="false"
       simplify_individual_paths="false"
       helper_size="0"
       smooth_angles="360"
       threshold="0.000736842"
       steps="1"
       lpeversion="1"
       is_visible="true"
       id="path-effect957"
       effect="simplify" />
    <inkscape:path-effect
       simplify_just_coalesce="false"
       simplify_individual_paths="false"
       helper_size="0"
       smooth_angles="360"
       threshold="0.000736842"
       steps="1"
       lpeversion="1"
       is_visible="true"
       id="path-effect953"
       effect="simplify" />
    <inkscape:path-effect
       simplify_just_coalesce="false"
       simplify_individual_paths="false"
       helper_size="0"
       smooth_angles="360"
       threshold="0.000736842"
       steps="1"
       lpeversion="1"
       is_visible="true"
       id="path-effect949"
       effect="simplify" />
    <inkscape:path-effect
       simplify_just_coalesce="false"
       simplify_individual_paths="false"
       helper_size="0"
       smooth_angles="360"
       threshold="0.000736842"
       steps="1"
       lpeversion="1"
       is_visible="true"
       id="path-effect945"
       effect="simplify" />
    <inkscape:path-effect
       simplify_just_coalesce="false"
       simplify_individual_paths="false"
       helper_size="0"
       smooth_angles="360"
       threshold="0.000736842"
       steps="1"
       lpeversion="1"
       is_visible="true"
       id="path-effect941"
       effect="simplify" />
    <inkscape:path-effect
       simplify_just_coalesce="false"
       simplify_individual_paths="false"
       helper_size="0"
       smooth_angles="360"
       threshold="0.000736842"
       steps="1"
       lpeversion="1"
       is_visible="true"
       id="path-effect937"
       effect="simplify" />
    <inkscape:path-effect
       simplify_just_coalesce="false"
       simplify_individual_paths="false"
       helper_size="0"
       smooth_angles="360"
       threshold="0.000736842"
       steps="1"
       lpeversion="1"
       is_visible="true"
       id="path-effect933"
       effect="simplify" />
    <inkscape:path-effect
       simplify_just_coalesce="false"
       simplify_individual_paths="false"
       helper_size="0"
       smooth_angles="360"
       threshold="0.000736842"
       steps="1"
       lpeversion="1"
       is_visible="true"
       id="path-effect929"
       effect="simplify" />
    <inkscape:path-effect
       fuse_tolerance="0"
       hide_knot="false"
       vertical_pattern="false"
       prop_units="false"
       tang_offset="0"
       normal_offset="0"
       spacing="0"
       scale_y_rel="false"
       prop_scale="1"
       copytype="single_stretched"
       pattern="M 0,5 C 0,2.24 2.24,0 5,0 7.76,0 10,2.24 10,5 10,7.76 7.76,10 5,10 2.24,10 0,7.76 0,5 Z"
       lpeversion="1"
       is_visible="true"
       id="path-effect889"
       effect="skeletal" />
    <clipPath
       id="clipPath1442"
       clipPathUnits="userSpaceOnUse">
      <path
         style="display:inline;fill:#ad98c3;stroke:#987eb4;stroke-width:1.98279;stroke-linecap:butt;stroke-linejoin:miter;stroke-miterlimit:4;stroke-dasharray:none;stroke-opacity:1"
         d="M 73.37379,64.851237 45.029671,92.438902 61.077976,108.75559 74.536508,104.08176 67.724757,114.5992 84.076446,131.46894 119.4677,112.359 C 102.49456,94.676346 87.246463,79.354775 73.373644,64.851346 Z"
         id="path1444"
         sodipodi:nodetypes="cccccccc" />
    </clipPath>
    <clipPath
       id="clipPath1446"
       clipPathUnits="userSpaceOnUse">
      <path
         style="display:inline;fill:#ad98c3;stroke:#987eb4;stroke-width:1.98279;stroke-linecap:butt;stroke-linejoin:miter;stroke-miterlimit:4;stroke-dasharray:none;stroke-opacity:1"
         d="m 41.184125,78.924574 -28.344118,27.587666 16.048304,16.31669 13.458532,-4.67384 -6.811751,10.51744 16.351689,16.86975 35.39125,-19.10994 C 70.304893,108.74968 55.056798,93.428112 41.183979,78.924683 Z"
         id="path1448"
         sodipodi:nodetypes="cccccccc" />
    </clipPath>
    <clipPath
       id="clipPath1450"
       clipPathUnits="userSpaceOnUse">
      <path
         style="display:inline;fill:#ad98c3;stroke:#987eb4;stroke-width:1.98279;stroke-linecap:butt;stroke-linejoin:miter;stroke-miterlimit:4;stroke-dasharray:none;stroke-opacity:1"
         d="m 84.715908,76.551894 -28.344118,27.587666 16.048304,16.31669 13.458532,-4.67384 -6.811751,10.51744 16.351689,16.86975 35.391246,-19.10994 C 113.83668,106.377 98.588581,91.055432 84.715762,76.552003 Z"
         id="path1452"
         sodipodi:nodetypes="cccccccc" />
    </clipPath>
    <clipPath
       id="clipPath1454"
       clipPathUnits="userSpaceOnUse">
      <path
         style="display:inline;fill:#ad98c3;stroke:#987eb4;stroke-width:1.98279;stroke-linecap:butt;stroke-linejoin:miter;stroke-miterlimit:4;stroke-dasharray:none;stroke-opacity:1"
         d="m 41.074036,128.69246 20.234049,20.21059 28.356735,-16.41347 0.89582,-10.90779 9.70895,4.25206 29.19774,-16.76183 -6.14554,-27.622373 C 92.800252,98.875244 66.083751,114.44205 41.074098,128.69257 Z"
         id="path1456"
         sodipodi:nodetypes="cccccccc" />
    </clipPath>
    <clipPath
       id="clipPath1458"
       clipPathUnits="userSpaceOnUse">
      <path
         style="display:inline;fill:#ad98c3;stroke:#987eb4;stroke-width:1.08697;stroke-linecap:butt;stroke-linejoin:miter;stroke-miterlimit:4;stroke-dasharray:none;stroke-opacity:1"
         d="m 76.60593,120.5722 -0.670937,18.56342 14.539788,3.17856 4.054235,-5.20295 1.562368,6.12752 14.923106,3.3435 7.63768,-16.60496 c -15.56642,-3.5442 -29.30073,-6.48647 -42.046258,-9.40501 z"
         id="path1460"
         sodipodi:nodetypes="cccccccc" />
    </clipPath>
  </defs>
  <sodipodi:namedview
     inkscape:guide-bbox="true"
     showguides="true"
     id="base"
     pagecolor="#ffffff"
     bordercolor="#666666"
     borderopacity="1.0"
     inkscape:pageopacity="0.0"
     inkscape:pageshadow="2"
     inkscape:zoom="2"
     inkscape:cx="-44.549898"
     inkscape:cy="300.50922"
     inkscape:document-units="mm"
     inkscape:current-layer="layer3"
     inkscape:document-rotation="0"
     showgrid="false"
     inkscape:snap-smooth-nodes="true"
     inkscape:object-paths="true"
     inkscape:snap-nodes="true"
     inkscape:window-width="1920"
     inkscape:window-height="1017"
     inkscape:window-x="-8"
     inkscape:window-y="-8"
     inkscape:window-maximized="1"
     lock-margins="false"
     fit-margin-top="20"
     fit-margin-left="20"
     fit-margin-right="20"
     fit-margin-bottom="20"
     units="px"
     inkscape:snap-object-midpoints="true">
    <sodipodi:guide
       position="-39.475708,107.08651"
       orientation="1,0"
       id="guide881" />
    <sodipodi:guide
       id="guide1121"
       orientation="1,0"
       position="60.502883,32.57032" />
  </sodipodi:namedview>
  <metadata
     id="metadata5">
    <rdf:RDF>
      <cc:Work
         rdf:about="">
        <dc:format>image/svg+xml</dc:format>
        <dc:type
           rdf:resource="http://purl.org/dc/dcmitype/StillImage" />
        <dc:title></dc:title>
      </cc:Work>
    </rdf:RDF>
  </metadata>
  <g
     inkscape:label="Body"
     inkscape:groupmode="layer"
     id="layer1"
     style="display:inline"
     transform="translate(-38.136244,-44.878254)" />
  <g
     inkscape:groupmode="layer"
     id="layer4"
     inkscape:label="Gesicht" />
  <g
     style="display:inline"
     inkscape:groupmode="layer"
     id="layer3"
     inkscape:label="Hose"
     transform="translate(-38.136244,-44.878254)">
    <g
       id="g1601"
       style="display:inline"
       transform="translate(-1.2708333e-6)">
      <g
         id="g1462"
         style="opacity:1"
         transform="translate(-1.2708333e-6)">
        <path
           style="color:#000000;font-style:normal;font-variant:normal;font-weight:normal;font-stretch:normal;font-size:medium;line-height:normal;font-family:sans-serif;font-variant-ligatures:normal;font-variant-position:normal;font-variant-caps:normal;font-variant-numeric:normal;font-variant-alternates:normal;font-variant-east-asian:normal;font-feature-settings:normal;font-variation-settings:normal;text-indent:0;text-align:start;text-decoration:none;text-decoration-line:none;text-decoration-style:solid;text-decoration-color:#000000;letter-spacing:normal;word-spacing:normal;text-transform:none;writing-mode:lr-tb;direction:ltr;text-orientation:mixed;dominant-baseline:auto;baseline-shift:baseline;text-anchor:start;white-space:normal;shape-padding:0;shape-margin:0;inline-size:0;clip-rule:nonzero;display:inline;overflow:visible;visibility:visible;isolation:auto;mix-blend-mode:normal;color-interpolation:sRGB;color-interpolation-filters:linearRGB;solid-color:#000000;solid-opacity:1;vector-effect:none;fill:#ad98c3;fill-opacity:1;fill-rule:nonzero;stroke:none;stroke-width:1;stroke-linecap:butt;stroke-linejoin:miter;stroke-miterlimit:4;stroke-dasharray:none;stroke-dashoffset:0;stroke-opacity:1;color-rendering:auto;image-rendering:auto;shape-rendering:auto;text-rendering:auto;enable-background:accumulate;stop-color:#000000;stop-opacity:1"
           d="m 57.23577,121.07825 3.125474,16.80104 13.692187,-0.0661 2.595066,-5.48539 2.633209,5.18756 14.069452,0.005 3.522586,-16.44177 c -14.687324,-0.056 -27.608898,0.0605 -39.637974,-3.4e-4 z"
           id="path1464" />
        <path
           style="color:#000000;font-style:normal;font-variant:normal;font-weight:normal;font-stretch:normal;font-size:medium;line-height:normal;font-family:sans-serif;font-variant-ligatures:normal;font-variant-position:normal;font-variant-caps:normal;font-variant-numeric:normal;font-variant-alternates:normal;font-variant-east-asian:normal;font-feature-settings:normal;font-variation-settings:normal;text-indent:0;text-align:start;text-decoration:none;text-decoration-line:none;text-decoration-style:solid;text-decoration-color:#000000;letter-spacing:normal;word-spacing:normal;text-transform:none;writing-mode:lr-tb;direction:ltr;text-orientation:mixed;dominant-baseline:auto;baseline-shift:baseline;text-anchor:start;white-space:normal;shape-padding:0;shape-margin:0;inline-size:0;clip-rule:nonzero;display:inline;overflow:visible;visibility:visible;isolation:auto;mix-blend-mode:normal;color-interpolation:sRGB;color-interpolation-filters:linearRGB;solid-color:#000000;solid-opacity:1;vector-effect:none;fill:#987eb4;fill-opacity:1;fill-rule:nonzero;stroke:none;stroke-width:1;stroke-linecap:butt;stroke-linejoin:miter;stroke-miterlimit:4;stroke-dasharray:none;stroke-dashoffset:0;stroke-opacity:1;color-rendering:auto;image-rendering:auto;shape-rendering:auto;text-rendering:auto;enable-background:accumulate;stop-color:#000000;stop-opacity:1"
           d="m 56.630301,121.0763 0.111329,0.59375 3.201171,17.21094 14.425782,-0.0684 2.292968,-4.84961 2.310547,4.55273 14.78125,0.004 3.736329,-17.43945 -0.617188,-0.002 c -14.691086,-0.056 -27.612682,0.0608 -39.636719,0 z m 1.203126,1.00195 c 11.690478,0.0538 24.240657,-0.0491 38.419921,0 l -3.308593,15.44141 -13.359375,-0.004 -2.955079,-5.82421 -2.896484,6.12304 -12.958984,0.0625 z"
           id="path1466" />
        <path
           id="path1474"
           d="m 56.630301,121.0763 0.111329,0.59375 3.201171,17.21094 14.425782,-0.0684 2.292968,-4.84961 2.310547,4.55273 14.78125,0.004 3.736329,-17.43945 -0.617188,-0.002 c -14.691086,-0.056 -27.612682,0.0608 -39.636719,0 z m 1.203126,1.00195 c 11.690478,0.0538 24.240657,-0.0491 38.419921,0 l -3.308593,15.44141 -13.359375,-0.004 -2.955079,-5.82421 -2.896484,6.12304 -12.958984,0.0625 z"
           style="color:#000000;font-style:normal;font-variant:normal;font-weight:normal;font-stretch:normal;font-size:medium;line-height:normal;font-family:sans-serif;font-variant-ligatures:normal;font-variant-position:normal;font-variant-caps:normal;font-variant-numeric:normal;font-variant-alternates:normal;font-variant-east-asian:normal;font-feature-settings:normal;font-variation-settings:normal;text-indent:0;text-align:start;text-decoration:none;text-decoration-line:none;text-decoration-style:solid;text-decoration-color:#000000;letter-spacing:normal;word-spacing:normal;text-transform:none;writing-mode:lr-tb;direction:ltr;text-orientation:mixed;dominant-baseline:auto;baseline-shift:baseline;text-anchor:start;white-space:normal;shape-padding:0;shape-margin:0;inline-size:0;clip-rule:nonzero;display:inline;overflow:visible;visibility:visible;isolation:auto;mix-blend-mode:normal;color-interpolation:sRGB;color-interpolation-filters:linearRGB;solid-color:#000000;solid-opacity:1;vector-effect:none;fill:#987eb4;fill-opacity:1;fill-rule:nonzero;stroke:none;stroke-width:1;stroke-linecap:butt;stroke-linejoin:miter;stroke-miterlimit:4;stroke-dasharray:none;stroke-dashoffset:0;stroke-opacity:1;color-rendering:auto;image-rendering:auto;shape-rendering:auto;text-rendering:auto;enable-background:accumulate;stop-color:#000000;stop-opacity:1" />
      </g>
      <g
         transform="matrix(0.7095289,-0.15870422,0.15870422,0.7095289,-15.656012,48.686474)"
         id="g1265"
         clip-path="url(#clipPath1458)">
        <ellipse
           transform="matrix(0.90635197,-0.42252349,0.58163947,0.81344669,0,0)"
           style="fill:#d7cce1;fill-opacity:1;stroke:none;stroke-width:0.375075;stroke-linecap:round;stroke-linejoin:bevel;stroke-miterlimit:4;stroke-dasharray:none;stroke-opacity:1;paint-order:stroke fill markers"
           id="ellipse1255"
           cx="-5.7248077"
           cy="153.83707"
           rx="0.55065823"
           ry="0.79765648" />
        <path
           d="m 83.985539,126.36244 c 0.301936,0.21354 0.615583,0.48419 1.013666,0.43953 0.548289,-0.0183 1.117933,-0.0136 1.640023,-0.20122 0.62758,-0.3242 0.893991,-1.10617 1.575854,-1.35024 0.543514,-0.15916 1.143718,0.14491 1.658596,-0.16212 0.756677,-0.41588 1.260726,-1.23724 1.36434,-2.0868 0.07698,-0.5526 -0.164713,-1.16002 -0.677379,-1.4198 -0.562648,-0.34743 -1.301645,-0.33204 -1.863759,0.01 -0.685549,0.36577 -1.149411,1.00932 -1.747178,1.4854 -0.387674,0.26068 -0.775019,0.57931 -1.248404,0.65761 -0.350204,0.004 -0.684963,-0.21222 -1.041541,-0.0998 -0.413979,0.10301 -0.59725,0.54248 -0.790859,0.87961 -0.172371,0.36431 -0.416615,0.69777 -0.542338,1.08188 0.08523,0.32821 0.418672,0.55078 0.658979,0.76619 z"
           style="fill:#d7cce1;stroke:none;stroke-width:0.264583px;stroke-linecap:butt;stroke-linejoin:miter;stroke-opacity:1"
           id="path1257" />
        <path
           d="m 86.145055,127.54344 c -0.215658,0.25042 -0.495572,0.42789 -0.641295,0.73289 -0.318299,0.51262 -0.32452,1.13938 -0.391212,1.72104 -0.08682,0.36604 0.150657,0.64714 0.418716,0.85948 0.318605,0.27505 0.749171,0.0518 1.055305,-0.12695 0.48517,-0.33327 0.744503,-0.89123 1.185823,-1.27351 0.442682,-0.40678 0.95191,-0.80535 1.559236,-0.90867 0.809383,-0.072 1.580103,0.47496 2.388875,0.23892 0.545727,-0.17376 0.860733,-0.71282 1.089998,-1.20079 0.216572,-0.45488 0.142206,-1.04578 -0.255775,-1.37776 -0.51878,-0.45917 -1.279803,-0.34348 -1.893266,-0.18119 -0.747887,0.19102 -1.448513,0.57049 -2.232223,0.60599 -0.45106,-4.7e-4 -0.803751,0.23695 -1.190717,0.42519 -0.364716,0.16103 -0.729366,0.3242 -1.093465,0.48536 z"
           style="fill:#d7cce1;stroke:none;stroke-width:0.264583px;stroke-linecap:butt;stroke-linejoin:miter;stroke-opacity:1"
           id="path1259" />
        <path
           sodipodi:nodetypes="scccccccccccccss"
           d="m 82.504962,125.54811 c -0.223209,-0.39838 -0.327641,-0.91244 -0.739383,-1.16695 -0.426447,-0.17735 -0.873401,0.0771 -1.249307,0.26806 -0.372113,0.20775 -0.812946,0.39098 -0.985852,0.81417 -0.200893,0.25631 -0.124271,0.6924 -0.463539,0.83646 -0.769986,0.29543 -1.615594,0.20374 -2.417337,0.34235 -0.390759,0.0736 -0.836441,0.14914 -1.104903,0.46949 -0.219406,0.40216 -0.24508,0.92003 -0.07385,1.34426 0.279795,0.52387 0.861113,0.93916 1.472057,0.89844 0.785163,-0.10112 1.329898,-0.74109 2.000451,-1.09655 0.642798,-0.35208 1.419399,-0.34499 2.124807,-0.22991 0.560765,0.0648 0.977845,0.53486 1.542104,0.57379 0.460789,0.0808 0.609161,-0.42217 0.511551,-0.77956 -0.08048,-0.32209 0,0 0.01754,-0.96011 -0.21144,-0.43797 -0.422928,-0.87604 -0.634341,-1.31394 z"
           style="fill:#d7cce1;stroke:none;stroke-width:0.264583px;stroke-linecap:butt;stroke-linejoin:miter;stroke-opacity:1"
           id="path1261" />
        <path
           d="m 83.118679,129.91307 c -0.264735,0.35283 -0.720639,0.48382 -1.126954,0.59883 -0.473817,0.14719 -0.984284,0.0995 -1.453614,0.25897 -0.458605,0.15443 -0.700057,0.63101 -0.76016,1.08403 -0.08053,0.54654 -0.03247,1.14904 0.282282,1.61793 0.230141,0.29187 0.640767,0.29811 0.979284,0.33104 0.391597,0.0334 0.832383,-0.0704 1.06275,-0.41582 0.337542,-0.48486 0.540151,-1.11685 1.098279,-1.4032 0.285627,-0.17949 0.680727,-0.21565 0.875896,-0.5159 0.327662,-0.55795 0.122406,-1.23012 0.242415,-1.83391 0.08446,-0.32421 0.347163,-0.65963 0.173931,-1.00085 -0.178497,-0.23142 -0.4721,0.0156 -0.629461,0.15373 -0.251638,0.3726 -0.495947,0.7505 -0.744648,1.12515 z"
           style="fill:#d7cce1;stroke:none;stroke-width:0.264583px;stroke-linecap:butt;stroke-linejoin:miter;stroke-opacity:1"
           id="path1263" />
      </g>
      <g
         id="g1241"
         transform="rotate(29.873244,84.144314,127.56897)">
        <ellipse
           transform="matrix(0.90635197,-0.42252349,0.58163947,0.81344669,0,0)"
           style="fill:#d7cce1;fill-opacity:1;stroke:none;stroke-width:0.375075;stroke-linecap:round;stroke-linejoin:bevel;stroke-miterlimit:4;stroke-dasharray:none;stroke-opacity:1;paint-order:stroke fill markers"
           id="ellipse1210"
           cx="-5.7248077"
           cy="153.83707"
           rx="0.55065823"
           ry="0.79765648" />
        <path
           d="m 83.985539,126.36244 c 0.301936,0.21354 0.615583,0.48419 1.013666,0.43953 0.548289,-0.0183 1.117933,-0.0136 1.640023,-0.20122 0.62758,-0.3242 0.893991,-1.10617 1.575854,-1.35024 0.543514,-0.15916 1.143718,0.14491 1.658596,-0.16212 0.756677,-0.41588 1.260726,-1.23724 1.36434,-2.0868 0.07698,-0.5526 -0.164713,-1.16002 -0.677379,-1.4198 -0.562648,-0.34743 -1.301645,-0.33204 -1.863759,0.01 -0.685549,0.36577 -1.149411,1.00932 -1.747178,1.4854 -0.387674,0.26068 -0.775019,0.57931 -1.248404,0.65761 -0.350204,0.004 -0.684963,-0.21222 -1.041541,-0.0998 -0.413979,0.10301 -0.59725,0.54248 -0.790859,0.87961 -0.172371,0.36431 -0.416615,0.69777 -0.542338,1.08188 0.08523,0.32821 0.418672,0.55078 0.658979,0.76619 z"
           style="fill:#d7cce1;stroke:none;stroke-width:0.264583px;stroke-linecap:butt;stroke-linejoin:miter;stroke-opacity:1"
           id="path1216" />
        <path
           d="m 86.145055,127.54344 c -0.215658,0.25042 -0.495572,0.42789 -0.641295,0.73289 -0.318299,0.51262 -0.32452,1.13938 -0.391212,1.72104 -0.08682,0.36604 0.150657,0.64714 0.418716,0.85948 0.318605,0.27505 0.749171,0.0518 1.055305,-0.12695 0.48517,-0.33327 0.744503,-0.89123 1.185823,-1.27351 0.442682,-0.40678 0.95191,-0.80535 1.559236,-0.90867 0.809383,-0.072 1.580103,0.47496 2.388875,0.23892 0.545727,-0.17376 0.860733,-0.71282 1.089998,-1.20079 0.216572,-0.45488 0.142206,-1.04578 -0.255775,-1.37776 -0.51878,-0.45917 -1.279803,-0.34348 -1.893266,-0.18119 -0.747887,0.19102 -1.448513,0.57049 -2.232223,0.60599 -0.45106,-4.7e-4 -0.803751,0.23695 -1.190717,0.42519 -0.364716,0.16103 -0.729366,0.3242 -1.093465,0.48536 z"
           style="fill:#d7cce1;stroke:none;stroke-width:0.264583px;stroke-linecap:butt;stroke-linejoin:miter;stroke-opacity:1"
           id="path1220" />
        <path
           sodipodi:nodetypes="scccccccccccccss"
           d="m 82.504962,125.54811 c -0.223209,-0.39838 -0.327641,-0.91244 -0.739383,-1.16695 -0.426447,-0.17735 -0.873401,0.0771 -1.249307,0.26806 -0.372113,0.20775 -0.812946,0.39098 -0.985852,0.81417 -0.200893,0.25631 -0.124271,0.6924 -0.463539,0.83646 -0.769986,0.29543 -1.615594,0.20374 -2.417337,0.34235 -0.390759,0.0736 -0.836441,0.14914 -1.104903,0.46949 -0.219406,0.40216 -0.24508,0.92003 -0.07385,1.34426 0.279795,0.52387 0.861113,0.93916 1.472057,0.89844 0.785163,-0.10112 1.329898,-0.74109 2.000451,-1.09655 0.642798,-0.35208 1.419399,-0.34499 2.124807,-0.22991 0.560765,0.0648 0.977845,0.53486 1.542104,0.57379 0.460789,0.0808 0.609161,-0.42217 0.511551,-0.77956 -0.08048,-0.32209 0,0 0.01754,-0.96011 -0.21144,-0.43797 -0.422928,-0.87604 -0.634341,-1.31394 z"
           style="fill:#d7cce1;stroke:none;stroke-width:0.264583px;stroke-linecap:butt;stroke-linejoin:miter;stroke-opacity:1"
           id="path1224" />
        <path
           d="m 83.118679,129.91307 c -0.264735,0.35283 -0.720639,0.48382 -1.126954,0.59883 -0.473817,0.14719 -0.984284,0.0995 -1.453614,0.25897 -0.458605,0.15443 -0.700057,0.63101 -0.76016,1.08403 -0.08053,0.54654 -0.03247,1.14904 0.282282,1.61793 0.230141,0.29187 0.640767,0.29811 0.979284,0.33104 0.391597,0.0334 0.832383,-0.0704 1.06275,-0.41582 0.337542,-0.48486 0.540151,-1.11685 1.098279,-1.4032 0.285627,-0.17949 0.680727,-0.21565 0.875896,-0.5159 0.327662,-0.55795 0.122406,-1.23012 0.242415,-1.83391 0.08446,-0.32421 0.347163,-0.65963 0.173931,-1.00085 -0.178497,-0.23142 -0.4721,0.0156 -0.629461,0.15373 -0.251638,0.3726 -0.495947,0.7505 -0.744648,1.12515 z"
           style="fill:#d7cce1;stroke:none;stroke-width:0.264583px;stroke-linecap:butt;stroke-linejoin:miter;stroke-opacity:1"
           id="path1228" />
      </g>
      <g
         id="g1506">
        <path
           sodipodi:nodetypes="ccccc"
           id="path1134"
           d="m 75.558212,121.46166 v 6.02916 h 2.182657 v -6.03393 z"
           style="fill:#987eb4;stroke:#8465a4;stroke-width:0.264583px;stroke-linecap:butt;stroke-linejoin:miter;stroke-opacity:1" />
        <g
           id="g1158">
          <circle
             style="fill:#e2d9b6;fill-opacity:1;stroke:#cbbe7c;stroke-width:0.188789;stroke-linecap:round;stroke-linejoin:bevel;stroke-miterlimit:4;stroke-dasharray:none;stroke-opacity:1;paint-order:stroke fill markers"
             id="path1136"
             cx="76.649544"
             cy="122.43146"
             r="0.38711593" />
          <g
             id="g1150"
             transform="translate(-0.00219727,-0.00731277)">
            <circle
               r="0.046770222"
               cy="122.35984"
               cx="76.557465"
               id="path1138"
               style="fill:#cbbe7c;fill-opacity:1;stroke:none;stroke-width:0.0707935;stroke-linecap:round;stroke-linejoin:bevel;stroke-miterlimit:4;stroke-dasharray:none;stroke-opacity:1;paint-order:stroke fill markers" />
            <circle
               style="fill:#cbbe7c;fill-opacity:1;stroke:none;stroke-width:0.0707935;stroke-linecap:round;stroke-linejoin:bevel;stroke-miterlimit:4;stroke-dasharray:none;stroke-opacity:1;paint-order:stroke fill markers"
               id="circle1140"
               cx="76.746017"
               cy="122.35984"
               r="0.046770222" />
            <circle
               style="fill:#cbbe7c;fill-opacity:1;stroke:none;stroke-width:0.0707935;stroke-linecap:round;stroke-linejoin:bevel;stroke-miterlimit:4;stroke-dasharray:none;stroke-opacity:1;paint-order:stroke fill markers"
               id="circle1142"
               cx="76.557465"
               cy="122.5177"
               r="0.046770222" />
            <circle
               r="0.046770222"
               cy="122.5177"
               cx="76.746017"
               id="circle1144"
               style="fill:#cbbe7c;fill-opacity:1;stroke:none;stroke-width:0.0707935;stroke-linecap:round;stroke-linejoin:bevel;stroke-miterlimit:4;stroke-dasharray:none;stroke-opacity:1;paint-order:stroke fill markers" />
          </g>
        </g>
        <g
           transform="translate(0,1.2745465)"
           id="g1172">
          <circle
             r="0.38711593"
             cy="122.43146"
             cx="76.649544"
             id="circle1160"
             style="fill:#e2d9b6;fill-opacity:1;stroke:#cbbe7c;stroke-width:0.188789;stroke-linecap:round;stroke-linejoin:bevel;stroke-miterlimit:4;stroke-dasharray:none;stroke-opacity:1;paint-order:stroke fill markers" />
          <g
             transform="translate(-0.00219727,-0.00731277)"
             id="g1170">
            <circle
               style="fill:#cbbe7c;fill-opacity:1;stroke:none;stroke-width:0.0707935;stroke-linecap:round;stroke-linejoin:bevel;stroke-miterlimit:4;stroke-dasharray:none;stroke-opacity:1;paint-order:stroke fill markers"
               id="circle1162"
               cx="76.557465"
               cy="122.35984"
               r="0.046770222" />
            <circle
               r="0.046770222"
               cy="122.35984"
               cx="76.746017"
               id="circle1164"
               style="fill:#cbbe7c;fill-opacity:1;stroke:none;stroke-width:0.0707935;stroke-linecap:round;stroke-linejoin:bevel;stroke-miterlimit:4;stroke-dasharray:none;stroke-opacity:1;paint-order:stroke fill markers" />
            <circle
               r="0.046770222"
               cy="122.5177"
               cx="76.557465"
               id="circle1166"
               style="fill:#cbbe7c;fill-opacity:1;stroke:none;stroke-width:0.0707935;stroke-linecap:round;stroke-linejoin:bevel;stroke-miterlimit:4;stroke-dasharray:none;stroke-opacity:1;paint-order:stroke fill markers" />
            <circle
               style="fill:#cbbe7c;fill-opacity:1;stroke:none;stroke-width:0.0707935;stroke-linecap:round;stroke-linejoin:bevel;stroke-miterlimit:4;stroke-dasharray:none;stroke-opacity:1;paint-order:stroke fill markers"
               id="circle1168"
               cx="76.746017"
               cy="122.5177"
               r="0.046770222" />
          </g>
        </g>
        <g
           id="g1186"
           transform="translate(0,2.5490819)">
          <circle
             style="fill:#e2d9b6;fill-opacity:1;stroke:#cbbe7c;stroke-width:0.188789;stroke-linecap:round;stroke-linejoin:bevel;stroke-miterlimit:4;stroke-dasharray:none;stroke-opacity:1;paint-order:stroke fill markers"
             id="circle1174"
             cx="76.649544"
             cy="122.43146"
             r="0.38711593" />
          <g
             id="g1184"
             transform="translate(-0.00219727,-0.00731277)">
            <circle
               r="0.046770222"
               cy="122.35984"
               cx="76.557465"
               id="circle1176"
               style="fill:#cbbe7c;fill-opacity:1;stroke:none;stroke-width:0.0707935;stroke-linecap:round;stroke-linejoin:bevel;stroke-miterlimit:4;stroke-dasharray:none;stroke-opacity:1;paint-order:stroke fill markers" />
            <circle
               style="fill:#cbbe7c;fill-opacity:1;stroke:none;stroke-width:0.0707935;stroke-linecap:round;stroke-linejoin:bevel;stroke-miterlimit:4;stroke-dasharray:none;stroke-opacity:1;paint-order:stroke fill markers"
               id="circle1178"
               cx="76.746017"
               cy="122.35984"
               r="0.046770222" />
            <circle
               style="fill:#cbbe7c;fill-opacity:1;stroke:none;stroke-width:0.0707935;stroke-linecap:round;stroke-linejoin:bevel;stroke-miterlimit:4;stroke-dasharray:none;stroke-opacity:1;paint-order:stroke fill markers"
               id="circle1180"
               cx="76.557465"
               cy="122.5177"
               r="0.046770222" />
            <circle
               r="0.046770222"
               cy="122.5177"
               cx="76.746017"
               id="circle1182"
               style="fill:#cbbe7c;fill-opacity:1;stroke:none;stroke-width:0.0707935;stroke-linecap:round;stroke-linejoin:bevel;stroke-miterlimit:4;stroke-dasharray:none;stroke-opacity:1;paint-order:stroke fill markers" />
          </g>
        </g>
        <g
           transform="translate(0,3.8236247)"
           id="g1200">
          <circle
             r="0.38711593"
             cy="122.43146"
             cx="76.649544"
             id="circle1188"
             style="fill:#e2d9b6;fill-opacity:1;stroke:#cbbe7c;stroke-width:0.188789;stroke-linecap:round;stroke-linejoin:bevel;stroke-miterlimit:4;stroke-dasharray:none;stroke-opacity:1;paint-order:stroke fill markers" />
          <g
             transform="translate(-0.00219727,-0.00731277)"
             id="g1198">
            <circle
               style="fill:#cbbe7c;fill-opacity:1;stroke:none;stroke-width:0.0707935;stroke-linecap:round;stroke-linejoin:bevel;stroke-miterlimit:4;stroke-dasharray:none;stroke-opacity:1;paint-order:stroke fill markers"
               id="circle1190"
               cx="76.557465"
               cy="122.35984"
               r="0.046770222" />
            <circle
               r="0.046770222"
               cy="122.35984"
               cx="76.746017"
               id="circle1192"
               style="fill:#cbbe7c;fill-opacity:1;stroke:none;stroke-width:0.0707935;stroke-linecap:round;stroke-linejoin:bevel;stroke-miterlimit:4;stroke-dasharray:none;stroke-opacity:1;paint-order:stroke fill markers" />
            <circle
               r="0.046770222"
               cy="122.5177"
               cx="76.557465"
               id="circle1194"
               style="fill:#cbbe7c;fill-opacity:1;stroke:none;stroke-width:0.0707935;stroke-linecap:round;stroke-linejoin:bevel;stroke-miterlimit:4;stroke-dasharray:none;stroke-opacity:1;paint-order:stroke fill markers" />
            <circle
               style="fill:#cbbe7c;fill-opacity:1;stroke:none;stroke-width:0.0707935;stroke-linecap:round;stroke-linejoin:bevel;stroke-miterlimit:4;stroke-dasharray:none;stroke-opacity:1;paint-order:stroke fill markers"
               id="circle1196"
               cx="76.746017"
               cy="122.5177"
               r="0.046770222" />
          </g>
        </g>
      </g>
      <g
         id="g1253"
         transform="matrix(0.2071391,0.35877544,-0.35877544,0.2071391,91.651332,78.129977)">
        <ellipse
           ry="0.79765648"
           rx="0.55065823"
           cy="153.83707"
           cx="-5.7248077"
           id="ellipse1243"
           style="fill:#d7cce1;fill-opacity:1;stroke:none;stroke-width:0.375075;stroke-linecap:round;stroke-linejoin:bevel;stroke-miterlimit:4;stroke-dasharray:none;stroke-opacity:1;paint-order:stroke fill markers"
           transform="matrix(0.90635197,-0.42252349,0.58163947,0.81344669,0,0)" />
        <path
           id="path1245"
           style="fill:#d7cce1;stroke:none;stroke-width:0.264583px;stroke-linecap:butt;stroke-linejoin:miter;stroke-opacity:1"
           d="m 83.985539,126.36244 c 0.301936,0.21354 0.615583,0.48419 1.013666,0.43953 0.548289,-0.0183 1.117933,-0.0136 1.640023,-0.20122 0.62758,-0.3242 0.893991,-1.10617 1.575854,-1.35024 0.543514,-0.15916 1.143718,0.14491 1.658596,-0.16212 0.756677,-0.41588 1.260726,-1.23724 1.36434,-2.0868 0.07698,-0.5526 -0.164713,-1.16002 -0.677379,-1.4198 -0.562648,-0.34743 -1.301645,-0.33204 -1.863759,0.01 -0.685549,0.36577 -1.149411,1.00932 -1.747178,1.4854 -0.387674,0.26068 -0.775019,0.57931 -1.248404,0.65761 -0.350204,0.004 -0.684963,-0.21222 -1.041541,-0.0998 -0.413979,0.10301 -0.59725,0.54248 -0.790859,0.87961 -0.172371,0.36431 -0.416615,0.69777 -0.542338,1.08188 0.08523,0.32821 0.418672,0.55078 0.658979,0.76619 z" />
        <path
           id="path1247"
           style="fill:#d7cce1;stroke:none;stroke-width:0.264583px;stroke-linecap:butt;stroke-linejoin:miter;stroke-opacity:1"
           d="m 86.145055,127.54344 c -0.215658,0.25042 -0.495572,0.42789 -0.641295,0.73289 -0.318299,0.51262 -0.32452,1.13938 -0.391212,1.72104 -0.08682,0.36604 0.150657,0.64714 0.418716,0.85948 0.318605,0.27505 0.749171,0.0518 1.055305,-0.12695 0.48517,-0.33327 0.744503,-0.89123 1.185823,-1.27351 0.442682,-0.40678 0.95191,-0.80535 1.559236,-0.90867 0.809383,-0.072 1.580103,0.47496 2.388875,0.23892 0.545727,-0.17376 0.860733,-0.71282 1.089998,-1.20079 0.216572,-0.45488 0.142206,-1.04578 -0.255775,-1.37776 -0.51878,-0.45917 -1.279803,-0.34348 -1.893266,-0.18119 -0.747887,0.19102 -1.448513,0.57049 -2.232223,0.60599 -0.45106,-4.7e-4 -0.803751,0.23695 -1.190717,0.42519 -0.364716,0.16103 -0.729366,0.3242 -1.093465,0.48536 z" />
        <path
           id="path1249"
           style="fill:#d7cce1;stroke:none;stroke-width:0.264583px;stroke-linecap:butt;stroke-linejoin:miter;stroke-opacity:1"
           d="m 82.504962,125.54811 c -0.223209,-0.39838 -0.327641,-0.91244 -0.739383,-1.16695 -0.426447,-0.17735 -0.873401,0.0771 -1.249307,0.26806 -0.372113,0.20775 -0.812946,0.39098 -0.985852,0.81417 -0.200893,0.25631 -0.124271,0.6924 -0.463539,0.83646 -0.769986,0.29543 -1.615594,0.20374 -2.417337,0.34235 -0.390759,0.0736 -0.836441,0.14914 -1.104903,0.46949 -0.219406,0.40216 -0.24508,0.92003 -0.07385,1.34426 0.279795,0.52387 0.861113,0.93916 1.472057,0.89844 0.785163,-0.10112 1.329898,-0.74109 2.000451,-1.09655 0.642798,-0.35208 1.419399,-0.34499 2.124807,-0.22991 0.560765,0.0648 0.977845,0.53486 1.542104,0.57379 0.460789,0.0808 0.609161,-0.42217 0.511551,-0.77956 -0.08048,-0.32209 0,0 0.01754,-0.96011 -0.21144,-0.43797 -0.422928,-0.87604 -0.634341,-1.31394 z"
           sodipodi:nodetypes="scccccccccccccss" />
        <path
           id="path1251"
           style="fill:#d7cce1;stroke:none;stroke-width:0.264583px;stroke-linecap:butt;stroke-linejoin:miter;stroke-opacity:1"
           d="m 83.118679,129.91307 c -0.264735,0.35283 -0.720639,0.48382 -1.126954,0.59883 -0.473817,0.14719 -0.984284,0.0995 -1.453614,0.25897 -0.458605,0.15443 -0.700057,0.63101 -0.76016,1.08403 -0.08053,0.54654 -0.03247,1.14904 0.282282,1.61793 0.230141,0.29187 0.640767,0.29811 0.979284,0.33104 0.391597,0.0334 0.832383,-0.0704 1.06275,-0.41582 0.337542,-0.48486 0.540151,-1.11685 1.098279,-1.4032 0.285627,-0.17949 0.680727,-0.21565 0.875896,-0.5159 0.327662,-0.55795 0.122406,-1.23012 0.242415,-1.83391 0.08446,-0.32421 0.347163,-0.65963 0.173931,-1.00085 -0.178497,-0.23142 -0.4721,0.0156 -0.629461,0.15373 -0.251638,0.3726 -0.495947,0.7505 -0.744648,1.12515 z" />
      </g>
      <g
         transform="matrix(0.36237379,0.30316198,-0.20814905,0.52778503,68.624334,41.125159)"
         id="g1277"
         clip-path="url(#clipPath1454)">
        <ellipse
           ry="0.79765648"
           rx="0.55065823"
           cy="153.83707"
           cx="-5.7248077"
           id="ellipse1267"
           style="fill:#d7cce1;fill-opacity:1;stroke:none;stroke-width:0.375075;stroke-linecap:round;stroke-linejoin:bevel;stroke-miterlimit:4;stroke-dasharray:none;stroke-opacity:1;paint-order:stroke fill markers"
           transform="matrix(0.90635197,-0.42252349,0.58163947,0.81344669,0,0)" />
        <path
           id="path1269"
           style="fill:#d7cce1;stroke:none;stroke-width:0.264583px;stroke-linecap:butt;stroke-linejoin:miter;stroke-opacity:1"
           d="m 83.985539,126.36244 c 0.301936,0.21354 0.615583,0.48419 1.013666,0.43953 0.548289,-0.0183 1.117933,-0.0136 1.640023,-0.20122 0.62758,-0.3242 0.893991,-1.10617 1.575854,-1.35024 0.543514,-0.15916 1.143718,0.14491 1.658596,-0.16212 0.756677,-0.41588 1.260726,-1.23724 1.36434,-2.0868 0.07698,-0.5526 -0.164713,-1.16002 -0.677379,-1.4198 -0.562648,-0.34743 -1.301645,-0.33204 -1.863759,0.01 -0.685549,0.36577 -1.149411,1.00932 -1.747178,1.4854 -0.387674,0.26068 -0.775019,0.57931 -1.248404,0.65761 -0.350204,0.004 -0.684963,-0.21222 -1.041541,-0.0998 -0.413979,0.10301 -0.59725,0.54248 -0.790859,0.87961 -0.172371,0.36431 -0.416615,0.69777 -0.542338,1.08188 0.08523,0.32821 0.418672,0.55078 0.658979,0.76619 z" />
        <path
           id="path1271"
           style="fill:#d7cce1;stroke:none;stroke-width:0.264583px;stroke-linecap:butt;stroke-linejoin:miter;stroke-opacity:1"
           d="m 86.145055,127.54344 c -0.215658,0.25042 -0.495572,0.42789 -0.641295,0.73289 -0.318299,0.51262 -0.32452,1.13938 -0.391212,1.72104 -0.08682,0.36604 0.150657,0.64714 0.418716,0.85948 0.318605,0.27505 0.749171,0.0518 1.055305,-0.12695 0.48517,-0.33327 0.744503,-0.89123 1.185823,-1.27351 0.442682,-0.40678 0.95191,-0.80535 1.559236,-0.90867 0.809383,-0.072 1.580103,0.47496 2.388875,0.23892 0.545727,-0.17376 0.860733,-0.71282 1.089998,-1.20079 0.216572,-0.45488 0.142206,-1.04578 -0.255775,-1.37776 -0.51878,-0.45917 -1.279803,-0.34348 -1.893266,-0.18119 -0.747887,0.19102 -1.448513,0.57049 -2.232223,0.60599 -0.45106,-4.7e-4 -0.803751,0.23695 -1.190717,0.42519 -0.364716,0.16103 -0.729366,0.3242 -1.093465,0.48536 z" />
        <path
           id="path1273"
           style="fill:#d7cce1;stroke:none;stroke-width:0.264583px;stroke-linecap:butt;stroke-linejoin:miter;stroke-opacity:1"
           d="m 82.504962,125.54811 c -0.223209,-0.39838 -0.327641,-0.91244 -0.739383,-1.16695 -0.426447,-0.17735 -0.873401,0.0771 -1.249307,0.26806 -0.372113,0.20775 -0.812946,0.39098 -0.985852,0.81417 -0.200893,0.25631 -0.124271,0.6924 -0.463539,0.83646 -0.769986,0.29543 -1.615594,0.20374 -2.417337,0.34235 -0.390759,0.0736 -0.836441,0.14914 -1.104903,0.46949 -0.219406,0.40216 -0.24508,0.92003 -0.07385,1.34426 0.279795,0.52387 0.861113,0.93916 1.472057,0.89844 0.785163,-0.10112 1.329898,-0.74109 2.000451,-1.09655 0.642798,-0.35208 1.419399,-0.34499 2.124807,-0.22991 0.560765,0.0648 0.977845,0.53486 1.542104,0.57379 0.460789,0.0808 0.609161,-0.42217 0.511551,-0.77956 -0.08048,-0.32209 0,0 0.01754,-0.96011 -0.21144,-0.43797 -0.422928,-0.87604 -0.634341,-1.31394 z"
           sodipodi:nodetypes="scccccccccccccss" />
        <path
           id="path1275"
           style="fill:#d7cce1;stroke:none;stroke-width:0.264583px;stroke-linecap:butt;stroke-linejoin:miter;stroke-opacity:1"
           d="m 83.118679,129.91307 c -0.264735,0.35283 -0.720639,0.48382 -1.126954,0.59883 -0.473817,0.14719 -0.984284,0.0995 -1.453614,0.25897 -0.458605,0.15443 -0.700057,0.63101 -0.76016,1.08403 -0.08053,0.54654 -0.03247,1.14904 0.282282,1.61793 0.230141,0.29187 0.640767,0.29811 0.979284,0.33104 0.391597,0.0334 0.832383,-0.0704 1.06275,-0.41582 0.337542,-0.48486 0.540151,-1.11685 1.098279,-1.4032 0.285627,-0.17949 0.680727,-0.21565 0.875896,-0.5159 0.327662,-0.55795 0.122406,-1.23012 0.242415,-1.83391 0.08446,-0.32421 0.347163,-0.65963 0.173931,-1.00085 -0.178497,-0.23142 -0.4721,0.0156 -0.629461,0.15373 -0.251638,0.3726 -0.495947,0.7505 -0.744648,1.12515 z" />
      </g>
      <g
         id="g1289"
         transform="matrix(0.27526962,-0.23249099,0.36921723,0.22557739,11.188589,127.40761)"
         clip-path="url(#clipPath1450)">
        <ellipse
           transform="matrix(0.90635197,-0.42252349,0.58163947,0.81344669,0,0)"
           style="fill:#d7cce1;fill-opacity:1;stroke:none;stroke-width:0.375075;stroke-linecap:round;stroke-linejoin:bevel;stroke-miterlimit:4;stroke-dasharray:none;stroke-opacity:1;paint-order:stroke fill markers"
           id="ellipse1279"
           cx="-5.7248077"
           cy="153.83707"
           rx="0.55065823"
           ry="0.79765648" />
        <path
           d="m 83.985539,126.36244 c 0.301936,0.21354 0.615583,0.48419 1.013666,0.43953 0.548289,-0.0183 1.117933,-0.0136 1.640023,-0.20122 0.62758,-0.3242 0.893991,-1.10617 1.575854,-1.35024 0.543514,-0.15916 1.143718,0.14491 1.658596,-0.16212 0.756677,-0.41588 1.260726,-1.23724 1.36434,-2.0868 0.07698,-0.5526 -0.164713,-1.16002 -0.677379,-1.4198 -0.562648,-0.34743 -1.301645,-0.33204 -1.863759,0.01 -0.685549,0.36577 -1.149411,1.00932 -1.747178,1.4854 -0.387674,0.26068 -0.775019,0.57931 -1.248404,0.65761 -0.350204,0.004 -0.684963,-0.21222 -1.041541,-0.0998 -0.413979,0.10301 -0.59725,0.54248 -0.790859,0.87961 -0.172371,0.36431 -0.416615,0.69777 -0.542338,1.08188 0.08523,0.32821 0.418672,0.55078 0.658979,0.76619 z"
           style="fill:#d7cce1;stroke:none;stroke-width:0.264583px;stroke-linecap:butt;stroke-linejoin:miter;stroke-opacity:1"
           id="path1281" />
        <path
           d="m 86.145055,127.54344 c -0.215658,0.25042 -0.495572,0.42789 -0.641295,0.73289 -0.318299,0.51262 -0.32452,1.13938 -0.391212,1.72104 -0.08682,0.36604 0.150657,0.64714 0.418716,0.85948 0.318605,0.27505 0.749171,0.0518 1.055305,-0.12695 0.48517,-0.33327 0.744503,-0.89123 1.185823,-1.27351 0.442682,-0.40678 0.95191,-0.80535 1.559236,-0.90867 0.809383,-0.072 1.580103,0.47496 2.388875,0.23892 0.545727,-0.17376 0.860733,-0.71282 1.089998,-1.20079 0.216572,-0.45488 0.142206,-1.04578 -0.255775,-1.37776 -0.51878,-0.45917 -1.279803,-0.34348 -1.893266,-0.18119 -0.747887,0.19102 -1.448513,0.57049 -2.232223,0.60599 -0.45106,-4.7e-4 -0.803751,0.23695 -1.190717,0.42519 -0.364716,0.16103 -0.729366,0.3242 -1.093465,0.48536 z"
           style="fill:#d7cce1;stroke:none;stroke-width:0.264583px;stroke-linecap:butt;stroke-linejoin:miter;stroke-opacity:1"
           id="path1283" />
        <path
           sodipodi:nodetypes="scccccccccccccss"
           d="m 82.504962,125.54811 c -0.223209,-0.39838 -0.327641,-0.91244 -0.739383,-1.16695 -0.426447,-0.17735 -0.873401,0.0771 -1.249307,0.26806 -0.372113,0.20775 -0.812946,0.39098 -0.985852,0.81417 -0.200893,0.25631 -0.124271,0.6924 -0.463539,0.83646 -0.769986,0.29543 -1.615594,0.20374 -2.417337,0.34235 -0.390759,0.0736 -0.836441,0.14914 -1.104903,0.46949 -0.219406,0.40216 -0.24508,0.92003 -0.07385,1.34426 0.279795,0.52387 0.861113,0.93916 1.472057,0.89844 0.785163,-0.10112 1.329898,-0.74109 2.000451,-1.09655 0.642798,-0.35208 1.419399,-0.34499 2.124807,-0.22991 0.560765,0.0648 0.977845,0.53486 1.542104,0.57379 0.460789,0.0808 0.609161,-0.42217 0.511551,-0.77956 -0.08048,-0.32209 0,0 0.01754,-0.96011 -0.21144,-0.43797 -0.422928,-0.87604 -0.634341,-1.31394 z"
           style="fill:#d7cce1;stroke:none;stroke-width:0.264583px;stroke-linecap:butt;stroke-linejoin:miter;stroke-opacity:1"
           id="path1285" />
        <path
           d="m 83.118679,129.91307 c -0.264735,0.35283 -0.720639,0.48382 -1.126954,0.59883 -0.473817,0.14719 -0.984284,0.0995 -1.453614,0.25897 -0.458605,0.15443 -0.700057,0.63101 -0.76016,1.08403 -0.08053,0.54654 -0.03247,1.14904 0.282282,1.61793 0.230141,0.29187 0.640767,0.29811 0.979284,0.33104 0.391597,0.0334 0.832383,-0.0704 1.06275,-0.41582 0.337542,-0.48486 0.540151,-1.11685 1.098279,-1.4032 0.285627,-0.17949 0.680727,-0.21565 0.875896,-0.5159 0.327662,-0.55795 0.122406,-1.23012 0.242415,-1.83391 0.08446,-0.32421 0.347163,-0.65963 0.173931,-1.00085 -0.178497,-0.23142 -0.4721,0.0156 -0.629461,0.15373 -0.251638,0.3726 -0.495947,0.7505 -0.744648,1.12515 z"
           style="fill:#d7cce1;stroke:none;stroke-width:0.264583px;stroke-linecap:butt;stroke-linejoin:miter;stroke-opacity:1"
           id="path1287" />
      </g>
      <g
         transform="matrix(0.30743451,-0.25965726,0.41235978,0.25193582,17.285456,112.88779)"
         id="g1301"
         clip-path="url(#clipPath1446)">
        <ellipse
           ry="0.79765648"
           rx="0.55065823"
           cy="153.83707"
           cx="-5.7248077"
           id="ellipse1291"
           style="fill:#d7cce1;fill-opacity:1;stroke:none;stroke-width:0.375075;stroke-linecap:round;stroke-linejoin:bevel;stroke-miterlimit:4;stroke-dasharray:none;stroke-opacity:1;paint-order:stroke fill markers"
           transform="matrix(0.90635197,-0.42252349,0.58163947,0.81344669,0,0)" />
        <path
           id="path1293"
           style="fill:#d7cce1;stroke:none;stroke-width:0.264583px;stroke-linecap:butt;stroke-linejoin:miter;stroke-opacity:1"
           d="m 83.985539,126.36244 c 0.301936,0.21354 0.615583,0.48419 1.013666,0.43953 0.548289,-0.0183 1.117933,-0.0136 1.640023,-0.20122 0.62758,-0.3242 0.893991,-1.10617 1.575854,-1.35024 0.543514,-0.15916 1.143718,0.14491 1.658596,-0.16212 0.756677,-0.41588 1.260726,-1.23724 1.36434,-2.0868 0.07698,-0.5526 -0.164713,-1.16002 -0.677379,-1.4198 -0.562648,-0.34743 -1.301645,-0.33204 -1.863759,0.01 -0.685549,0.36577 -1.149411,1.00932 -1.747178,1.4854 -0.387674,0.26068 -0.775019,0.57931 -1.248404,0.65761 -0.350204,0.004 -0.684963,-0.21222 -1.041541,-0.0998 -0.413979,0.10301 -0.59725,0.54248 -0.790859,0.87961 -0.172371,0.36431 -0.416615,0.69777 -0.542338,1.08188 0.08523,0.32821 0.418672,0.55078 0.658979,0.76619 z" />
        <path
           id="path1295"
           style="fill:#d7cce1;stroke:none;stroke-width:0.264583px;stroke-linecap:butt;stroke-linejoin:miter;stroke-opacity:1"
           d="m 86.145055,127.54344 c -0.215658,0.25042 -0.495572,0.42789 -0.641295,0.73289 -0.318299,0.51262 -0.32452,1.13938 -0.391212,1.72104 -0.08682,0.36604 0.150657,0.64714 0.418716,0.85948 0.318605,0.27505 0.749171,0.0518 1.055305,-0.12695 0.48517,-0.33327 0.744503,-0.89123 1.185823,-1.27351 0.442682,-0.40678 0.95191,-0.80535 1.559236,-0.90867 0.809383,-0.072 1.580103,0.47496 2.388875,0.23892 0.545727,-0.17376 0.860733,-0.71282 1.089998,-1.20079 0.216572,-0.45488 0.142206,-1.04578 -0.255775,-1.37776 -0.51878,-0.45917 -1.279803,-0.34348 -1.893266,-0.18119 -0.747887,0.19102 -1.448513,0.57049 -2.232223,0.60599 -0.45106,-4.7e-4 -0.803751,0.23695 -1.190717,0.42519 -0.364716,0.16103 -0.729366,0.3242 -1.093465,0.48536 z" />
        <path
           id="path1297"
           style="fill:#d7cce1;stroke:none;stroke-width:0.264583px;stroke-linecap:butt;stroke-linejoin:miter;stroke-opacity:1"
           d="m 82.504962,125.54811 c -0.223209,-0.39838 -0.327641,-0.91244 -0.739383,-1.16695 -0.426447,-0.17735 -0.873401,0.0771 -1.249307,0.26806 -0.372113,0.20775 -0.812946,0.39098 -0.985852,0.81417 -0.200893,0.25631 -0.124271,0.6924 -0.463539,0.83646 -0.769986,0.29543 -1.615594,0.20374 -2.417337,0.34235 -0.390759,0.0736 -0.836441,0.14914 -1.104903,0.46949 -0.219406,0.40216 -0.24508,0.92003 -0.07385,1.34426 0.279795,0.52387 0.861113,0.93916 1.472057,0.89844 0.785163,-0.10112 1.329898,-0.74109 2.000451,-1.09655 0.642798,-0.35208 1.419399,-0.34499 2.124807,-0.22991 0.560765,0.0648 0.977845,0.53486 1.542104,0.57379 0.460789,0.0808 0.609161,-0.42217 0.511551,-0.77956 -0.08048,-0.32209 0,0 0.01754,-0.96011 -0.21144,-0.43797 -0.422928,-0.87604 -0.634341,-1.31394 z"
           sodipodi:nodetypes="scccccccccccccss" />
        <path
           id="path1299"
           style="fill:#d7cce1;stroke:none;stroke-width:0.264583px;stroke-linecap:butt;stroke-linejoin:miter;stroke-opacity:1"
           d="m 83.118679,129.91307 c -0.264735,0.35283 -0.720639,0.48382 -1.126954,0.59883 -0.473817,0.14719 -0.984284,0.0995 -1.453614,0.25897 -0.458605,0.15443 -0.700057,0.63101 -0.76016,1.08403 -0.08053,0.54654 -0.03247,1.14904 0.282282,1.61793 0.230141,0.29187 0.640767,0.29811 0.979284,0.33104 0.391597,0.0334 0.832383,-0.0704 1.06275,-0.41582 0.337542,-0.48486 0.540151,-1.11685 1.098279,-1.4032 0.285627,-0.17949 0.680727,-0.21565 0.875896,-0.5159 0.327662,-0.55795 0.122406,-1.23012 0.242415,-1.83391 0.08446,-0.32421 0.347163,-0.65963 0.173931,-1.00085 -0.178497,-0.23142 -0.4721,0.0156 -0.629461,0.15373 -0.251638,0.3726 -0.495947,0.7505 -0.744648,1.12515 z" />
      </g>
      <g
         id="g1313"
         transform="matrix(0.31547942,-0.26645194,0.42315037,0.25852844,10.789232,125.93353)"
         clip-path="url(#clipPath1442)">
        <ellipse
           transform="matrix(0.90635197,-0.42252349,0.58163947,0.81344669,0,0)"
           style="fill:#d7cce1;fill-opacity:1;stroke:none;stroke-width:0.375075;stroke-linecap:round;stroke-linejoin:bevel;stroke-miterlimit:4;stroke-dasharray:none;stroke-opacity:1;paint-order:stroke fill markers"
           id="ellipse1303"
           cx="-5.7248077"
           cy="153.83707"
           rx="0.55065823"
           ry="0.79765648" />
        <path
           d="m 83.985539,126.36244 c 0.301936,0.21354 0.615583,0.48419 1.013666,0.43953 0.548289,-0.0183 1.117933,-0.0136 1.640023,-0.20122 0.62758,-0.3242 0.893991,-1.10617 1.575854,-1.35024 0.543514,-0.15916 1.143718,0.14491 1.658596,-0.16212 0.756677,-0.41588 1.260726,-1.23724 1.36434,-2.0868 0.07698,-0.5526 -0.164713,-1.16002 -0.677379,-1.4198 -0.562648,-0.34743 -1.301645,-0.33204 -1.863759,0.01 -0.685549,0.36577 -1.149411,1.00932 -1.747178,1.4854 -0.387674,0.26068 -0.775019,0.57931 -1.248404,0.65761 -0.350204,0.004 -0.684963,-0.21222 -1.041541,-0.0998 -0.413979,0.10301 -0.59725,0.54248 -0.790859,0.87961 -0.172371,0.36431 -0.416615,0.69777 -0.542338,1.08188 0.08523,0.32821 0.418672,0.55078 0.658979,0.76619 z"
           style="fill:#d7cce1;stroke:none;stroke-width:0.264583px;stroke-linecap:butt;stroke-linejoin:miter;stroke-opacity:1"
           id="path1305" />
        <path
           d="m 86.145055,127.54344 c -0.215658,0.25042 -0.495572,0.42789 -0.641295,0.73289 -0.318299,0.51262 -0.32452,1.13938 -0.391212,1.72104 -0.08682,0.36604 0.150657,0.64714 0.418716,0.85948 0.318605,0.27505 0.749171,0.0518 1.055305,-0.12695 0.48517,-0.33327 0.744503,-0.89123 1.185823,-1.27351 0.442682,-0.40678 0.95191,-0.80535 1.559236,-0.90867 0.809383,-0.072 1.580103,0.47496 2.388875,0.23892 0.545727,-0.17376 0.860733,-0.71282 1.089998,-1.20079 0.216572,-0.45488 0.142206,-1.04578 -0.255775,-1.37776 -0.51878,-0.45917 -1.279803,-0.34348 -1.893266,-0.18119 -0.747887,0.19102 -1.448513,0.57049 -2.232223,0.60599 -0.45106,-4.7e-4 -0.803751,0.23695 -1.190717,0.42519 -0.364716,0.16103 -0.729366,0.3242 -1.093465,0.48536 z"
           style="fill:#d7cce1;stroke:none;stroke-width:0.264583px;stroke-linecap:butt;stroke-linejoin:miter;stroke-opacity:1"
           id="path1307" />
        <path
           sodipodi:nodetypes="scccccccccccccss"
           d="m 82.504962,125.54811 c -0.223209,-0.39838 -0.327641,-0.91244 -0.739383,-1.16695 -0.426447,-0.17735 -0.873401,0.0771 -1.249307,0.26806 -0.372113,0.20775 -0.812946,0.39098 -0.985852,0.81417 -0.200893,0.25631 -0.124271,0.6924 -0.463539,0.83646 -0.769986,0.29543 -1.615594,0.20374 -2.417337,0.34235 -0.390759,0.0736 -0.836441,0.14914 -1.104903,0.46949 -0.219406,0.40216 -0.24508,0.92003 -0.07385,1.34426 0.279795,0.52387 0.861113,0.93916 1.472057,0.89844 0.785163,-0.10112 1.329898,-0.74109 2.000451,-1.09655 0.642798,-0.35208 1.419399,-0.34499 2.124807,-0.22991 0.560765,0.0648 0.977845,0.53486 1.542104,0.57379 0.460789,0.0808 0.609161,-0.42217 0.511551,-0.77956 -0.08048,-0.32209 0,0 0.01754,-0.96011 -0.21144,-0.43797 -0.422928,-0.87604 -0.634341,-1.31394 z"
           style="fill:#d7cce1;stroke:none;stroke-width:0.264583px;stroke-linecap:butt;stroke-linejoin:miter;stroke-opacity:1"
           id="path1309" />
        <path
           d="m 83.118679,129.91307 c -0.264735,0.35283 -0.720639,0.48382 -1.126954,0.59883 -0.473817,0.14719 -0.984284,0.0995 -1.453614,0.25897 -0.458605,0.15443 -0.700057,0.63101 -0.76016,1.08403 -0.08053,0.54654 -0.03247,1.14904 0.282282,1.61793 0.230141,0.29187 0.640767,0.29811 0.979284,0.33104 0.391597,0.0334 0.832383,-0.0704 1.06275,-0.41582 0.337542,-0.48486 0.540151,-1.11685 1.098279,-1.4032 0.285627,-0.17949 0.680727,-0.21565 0.875896,-0.5159 0.327662,-0.55795 0.122406,-1.23012 0.242415,-1.83391 0.08446,-0.32421 0.347163,-0.65963 0.173931,-1.00085 -0.178497,-0.23142 -0.4721,0.0156 -0.629461,0.15373 -0.251638,0.3726 -0.495947,0.7505 -0.744648,1.12515 z"
           style="fill:#d7cce1;stroke:none;stroke-width:0.264583px;stroke-linecap:butt;stroke-linejoin:miter;stroke-opacity:1"
           id="path1311" />
      </g>
    </g>
  </g>
  <g
     inkscape:groupmode="layer"
     id="layer2"
     inkscape:label="Shirt"
     style="display:inline"
     transform="translate(-38.136244,-44.878254)" />
</svg>
