<svg width="293.69" height="411.1" version="1.1" viewBox="0 0 77.707 108.77" xmlns="http://www.w3.org/2000/svg">
 <defs>
  <clipPath id="clipPath1442">
   <path d="m73.374 64.851-28.344 27.588 16.048 16.317 13.459-4.6738-6.8118 10.517 16.352 16.87 35.391-19.11c-16.973-17.683-32.221-33.004-46.094-47.508z" fill="#ad98c3" stroke="#987eb4" stroke-width="1.9828"/>
  </clipPath>
  <clipPath id="clipPath1446">
   <path d="m41.184 78.925-28.344 27.588 16.048 16.317 13.459-4.6738-6.8118 10.517 16.352 16.87 35.391-19.11c-16.973-17.683-32.221-33.004-46.094-47.508z" fill="#ad98c3" stroke="#987eb4" stroke-width="1.9828"/>
  </clipPath>
  <clipPath id="clipPath1450">
   <path d="m84.716 76.552-28.344 27.588 16.048 16.317 13.459-4.6738-6.8118 10.517 16.352 16.87 35.391-19.11c-16.973-17.683-32.221-33.004-46.094-47.508z" fill="#ad98c3" stroke="#987eb4" stroke-width="1.9828"/>
  </clipPath>
  <clipPath id="clipPath1454">
   <path d="m41.074 128.69 20.234 20.211 28.357-16.413 0.89582-10.908 9.709 4.2521 29.198-16.762-6.1455-27.622c-30.522 17.426-57.238 32.992-82.248 47.243z" fill="#ad98c3" stroke="#987eb4" stroke-width="1.9828"/>
  </clipPath>
  <clipPath id="clipPath1458">
   <path d="m76.606 120.57-0.67094 18.563 14.54 3.1786 4.0542-5.203 1.5624 6.1275 14.923 3.3435 7.6377-16.605c-15.566-3.5442-29.301-6.4865-42.046-9.405z" fill="#ad98c3" stroke="#987eb4" stroke-width="1.087"/>
  </clipPath>
 </defs>
 <g transform="translate(-38.136 -44.878)">
  <g transform="translate(-1.2708e-6)">
   <g transform="translate(-1.2708e-6)" shape-rendering="auto">
    <path d="m57.236 121.08 3.1255 16.801 13.692-0.0661 2.5951-5.4854 2.6332 5.1876 14.069 5e-3 3.5226-16.442c-14.687-0.056-27.609 0.0605-39.638-3.4e-4z" color="#000000" color-rendering="auto" dominant-baseline="auto" fill="#ad98c3" image-rendering="auto" solid-color="#000000" stop-color="#000000" style="font-feature-settings:normal;font-variant-alternates:normal;font-variant-caps:normal;font-variant-east-asian:normal;font-variant-ligatures:normal;font-variant-numeric:normal;font-variant-position:normal;font-variation-settings:normal;inline-size:0;isolation:auto;mix-blend-mode:normal;shape-margin:0;shape-padding:0;text-decoration-color:#000000;text-decoration-line:none;text-decoration-style:solid;text-indent:0;text-orientation:mixed;text-transform:none;white-space:normal"/>
    <path d="m56.63 121.08 0.11133 0.59375 3.2012 17.211 14.426-0.0684 2.293-4.8496 2.3105 4.5527 14.781 4e-3 3.7363-17.439-0.61719-2e-3c-14.691-0.056-27.613 0.0608-39.637 0zm1.2031 1.002c11.69 0.0538 24.241-0.0491 38.42 0l-3.3086 15.441-13.359-4e-3 -2.9551-5.8242-2.8965 6.123-12.959 0.0625z" color="#000000" color-rendering="auto" dominant-baseline="auto" fill="#987eb4" image-rendering="auto" solid-color="#000000" stop-color="#000000" style="font-feature-settings:normal;font-variant-alternates:normal;font-variant-caps:normal;font-variant-east-asian:normal;font-variant-ligatures:normal;font-variant-numeric:normal;font-variant-position:normal;font-variation-settings:normal;inline-size:0;isolation:auto;mix-blend-mode:normal;shape-margin:0;shape-padding:0;text-decoration-color:#000000;text-decoration-line:none;text-decoration-style:solid;text-indent:0;text-orientation:mixed;text-transform:none;white-space:normal"/>
    <path d="m56.63 121.08 0.11133 0.59375 3.2012 17.211 14.426-0.0684 2.293-4.8496 2.3105 4.5527 14.781 4e-3 3.7363-17.439-0.61719-2e-3c-14.691-0.056-27.613 0.0608-39.637 0zm1.2031 1.002c11.69 0.0538 24.241-0.0491 38.42 0l-3.3086 15.441-13.359-4e-3 -2.9551-5.8242-2.8965 6.123-12.959 0.0625z" color="#000000" color-rendering="auto" dominant-baseline="auto" fill="#987eb4" image-rendering="auto" solid-color="#000000" stop-color="#000000" style="font-feature-settings:normal;font-variant-alternates:normal;font-variant-caps:normal;font-variant-east-asian:normal;font-variant-ligatures:normal;font-variant-numeric:normal;font-variant-position:normal;font-variation-settings:normal;inline-size:0;isolation:auto;mix-blend-mode:normal;shape-margin:0;shape-padding:0;text-decoration-color:#000000;text-decoration-line:none;text-decoration-style:solid;text-indent:0;text-orientation:mixed;text-transform:none;white-space:normal"/>
   </g>
   <g transform="matrix(.70953 -.1587 .1587 .70953 -15.656 48.686)" clip-path="url(#clipPath1458)" fill="#d7cce1">
    <ellipse transform="matrix(.90635 -.42252 .58164 .81345 0 0)" cx="-5.7248" cy="153.84" rx=".55066" ry=".79766" style="paint-order:stroke fill markers"/>
    <path d="m83.986 126.36c0.30194 0.21354 0.61558 0.48419 1.0137 0.43953 0.54829-0.0183 1.1179-0.0136 1.64-0.20122 0.62758-0.3242 0.89399-1.1062 1.5759-1.3502 0.54351-0.15916 1.1437 0.14491 1.6586-0.16212 0.75668-0.41588 1.2607-1.2372 1.3643-2.0868 0.07698-0.5526-0.16471-1.16-0.67738-1.4198-0.56265-0.34743-1.3016-0.33204-1.8638 0.01-0.68555 0.36577-1.1494 1.0093-1.7472 1.4854-0.38767 0.26068-0.77502 0.57931-1.2484 0.65761-0.3502 4e-3 -0.68496-0.21222-1.0415-0.0998-0.41398 0.10301-0.59725 0.54248-0.79086 0.87961-0.17237 0.36431-0.41662 0.69777-0.54234 1.0819 0.08523 0.32821 0.41867 0.55078 0.65898 0.76619z"/>
    <path d="m86.145 127.54c-0.21566 0.25042-0.49557 0.42789-0.6413 0.73289-0.3183 0.51262-0.32452 1.1394-0.39121 1.721-0.08682 0.36604 0.15066 0.64714 0.41872 0.85948 0.3186 0.27505 0.74917 0.0518 1.0553-0.12695 0.48517-0.33327 0.7445-0.89123 1.1858-1.2735 0.44268-0.40678 0.95191-0.80535 1.5592-0.90867 0.80938-0.072 1.5801 0.47496 2.3889 0.23892 0.54573-0.17376 0.86073-0.71282 1.09-1.2008 0.21657-0.45488 0.14221-1.0458-0.25578-1.3778-0.51878-0.45917-1.2798-0.34348-1.8933-0.18119-0.74789 0.19102-1.4485 0.57049-2.2322 0.60599-0.45106-4.7e-4 -0.80375 0.23695-1.1907 0.42519-0.36472 0.16103-0.72937 0.3242-1.0935 0.48536z"/>
    <path d="m82.505 125.55c-0.22321-0.39838-0.32764-0.91244-0.73938-1.167-0.42645-0.17735-0.8734 0.0771-1.2493 0.26806-0.37211 0.20775-0.81295 0.39098-0.98585 0.81417-0.20089 0.25631-0.12427 0.6924-0.46354 0.83646-0.76999 0.29543-1.6156 0.20374-2.4173 0.34235-0.39076 0.0736-0.83644 0.14914-1.1049 0.46949-0.21941 0.40216-0.24508 0.92003-0.07385 1.3443 0.2798 0.52387 0.86111 0.93916 1.4721 0.89844 0.78516-0.10112 1.3299-0.74109 2.0005-1.0966 0.6428-0.35208 1.4194-0.34499 2.1248-0.22991 0.56076 0.0648 0.97784 0.53486 1.5421 0.57379 0.46079 0.0808 0.60916-0.42217 0.51155-0.77956-0.08048-0.32209 0 0 0.01754-0.96011-0.21144-0.43797-0.42293-0.87604-0.63434-1.3139z"/>
    <path d="m83.119 129.91c-0.26474 0.35283-0.72064 0.48382-1.127 0.59883-0.47382 0.14719-0.98428 0.0995-1.4536 0.25897-0.4586 0.15443-0.70006 0.63101-0.76016 1.084-0.08053 0.54654-0.03247 1.149 0.28228 1.6179 0.23014 0.29187 0.64077 0.29811 0.97928 0.33104 0.3916 0.0334 0.83238-0.0704 1.0628-0.41582 0.33754-0.48486 0.54015-1.1168 1.0983-1.4032 0.28563-0.17949 0.68073-0.21565 0.8759-0.5159 0.32766-0.55795 0.12241-1.2301 0.24242-1.8339 0.08446-0.32421 0.34716-0.65963 0.17393-1.0008-0.1785-0.23142-0.4721 0.0156-0.62946 0.15373-0.25164 0.3726-0.49595 0.7505-0.74465 1.1252z"/>
   </g>
   <g transform="rotate(29.873 84.144 127.57)" fill="#d7cce1">
    <ellipse transform="matrix(.90635 -.42252 .58164 .81345 0 0)" cx="-5.7248" cy="153.84" rx=".55066" ry=".79766" style="paint-order:stroke fill markers"/>
    <path d="m83.986 126.36c0.30194 0.21354 0.61558 0.48419 1.0137 0.43953 0.54829-0.0183 1.1179-0.0136 1.64-0.20122 0.62758-0.3242 0.89399-1.1062 1.5759-1.3502 0.54351-0.15916 1.1437 0.14491 1.6586-0.16212 0.75668-0.41588 1.2607-1.2372 1.3643-2.0868 0.07698-0.5526-0.16471-1.16-0.67738-1.4198-0.56265-0.34743-1.3016-0.33204-1.8638 0.01-0.68555 0.36577-1.1494 1.0093-1.7472 1.4854-0.38767 0.26068-0.77502 0.57931-1.2484 0.65761-0.3502 4e-3 -0.68496-0.21222-1.0415-0.0998-0.41398 0.10301-0.59725 0.54248-0.79086 0.87961-0.17237 0.36431-0.41662 0.69777-0.54234 1.0819 0.08523 0.32821 0.41867 0.55078 0.65898 0.76619z"/>
    <path d="m86.145 127.54c-0.21566 0.25042-0.49557 0.42789-0.6413 0.73289-0.3183 0.51262-0.32452 1.1394-0.39121 1.721-0.08682 0.36604 0.15066 0.64714 0.41872 0.85948 0.3186 0.27505 0.74917 0.0518 1.0553-0.12695 0.48517-0.33327 0.7445-0.89123 1.1858-1.2735 0.44268-0.40678 0.95191-0.80535 1.5592-0.90867 0.80938-0.072 1.5801 0.47496 2.3889 0.23892 0.54573-0.17376 0.86073-0.71282 1.09-1.2008 0.21657-0.45488 0.14221-1.0458-0.25578-1.3778-0.51878-0.45917-1.2798-0.34348-1.8933-0.18119-0.74789 0.19102-1.4485 0.57049-2.2322 0.60599-0.45106-4.7e-4 -0.80375 0.23695-1.1907 0.42519-0.36472 0.16103-0.72937 0.3242-1.0935 0.48536z"/>
    <path d="m82.505 125.55c-0.22321-0.39838-0.32764-0.91244-0.73938-1.167-0.42645-0.17735-0.8734 0.0771-1.2493 0.26806-0.37211 0.20775-0.81295 0.39098-0.98585 0.81417-0.20089 0.25631-0.12427 0.6924-0.46354 0.83646-0.76999 0.29543-1.6156 0.20374-2.4173 0.34235-0.39076 0.0736-0.83644 0.14914-1.1049 0.46949-0.21941 0.40216-0.24508 0.92003-0.07385 1.3443 0.2798 0.52387 0.86111 0.93916 1.4721 0.89844 0.78516-0.10112 1.3299-0.74109 2.0005-1.0966 0.6428-0.35208 1.4194-0.34499 2.1248-0.22991 0.56076 0.0648 0.97784 0.53486 1.5421 0.57379 0.46079 0.0808 0.60916-0.42217 0.51155-0.77956-0.08048-0.32209 0 0 0.01754-0.96011-0.21144-0.43797-0.42293-0.87604-0.63434-1.3139z"/>
    <path d="m83.119 129.91c-0.26474 0.35283-0.72064 0.48382-1.127 0.59883-0.47382 0.14719-0.98428 0.0995-1.4536 0.25897-0.4586 0.15443-0.70006 0.63101-0.76016 1.084-0.08053 0.54654-0.03247 1.149 0.28228 1.6179 0.23014 0.29187 0.64077 0.29811 0.97928 0.33104 0.3916 0.0334 0.83238-0.0704 1.0628-0.41582 0.33754-0.48486 0.54015-1.1168 1.0983-1.4032 0.28563-0.17949 0.68073-0.21565 0.8759-0.5159 0.32766-0.55795 0.12241-1.2301 0.24242-1.8339 0.08446-0.32421 0.34716-0.65963 0.17393-1.0008-0.1785-0.23142-0.4721 0.0156-0.62946 0.15373-0.25164 0.3726-0.49595 0.7505-0.74465 1.1252z"/>
   </g>
   <g>
    <path d="m75.558 121.46v6.0292h2.1827v-6.0339z" fill="#987eb4" stroke="#8465a4" stroke-width=".26458px"/>
    <g>
     <circle cx="76.65" cy="122.43" r=".38712" fill="#e2d9b6" stroke="#cbbe7c" stroke-linecap="round" stroke-linejoin="bevel" stroke-width=".18879" style="paint-order:stroke fill markers"/>
     <g transform="translate(-.0021973 -.0073128)" fill="#cbbe7c">
      <circle cx="76.557" cy="122.36" r=".04677" style="paint-order:stroke fill markers"/>
      <circle cx="76.746" cy="122.36" r=".04677" style="paint-order:stroke fill markers"/>
      <circle cx="76.557" cy="122.52" r=".04677" style="paint-order:stroke fill markers"/>
      <circle cx="76.746" cy="122.52" r=".04677" style="paint-order:stroke fill markers"/>
     </g>
    </g>
    <g transform="translate(0 1.2745)">
     <circle cx="76.65" cy="122.43" r=".38712" fill="#e2d9b6" stroke="#cbbe7c" stroke-linecap="round" stroke-linejoin="bevel" stroke-width=".18879" style="paint-order:stroke fill markers"/>
     <g transform="translate(-.0021973 -.0073128)" fill="#cbbe7c">
      <circle cx="76.557" cy="122.36" r=".04677" style="paint-order:stroke fill markers"/>
      <circle cx="76.746" cy="122.36" r=".04677" style="paint-order:stroke fill markers"/>
      <circle cx="76.557" cy="122.52" r=".04677" style="paint-order:stroke fill markers"/>
      <circle cx="76.746" cy="122.52" r=".04677" style="paint-order:stroke fill markers"/>
     </g>
    </g>
    <g transform="translate(0 2.5491)">
     <circle cx="76.65" cy="122.43" r=".38712" fill="#e2d9b6" stroke="#cbbe7c" stroke-linecap="round" stroke-linejoin="bevel" stroke-width=".18879" style="paint-order:stroke fill markers"/>
     <g transform="translate(-.0021973 -.0073128)" fill="#cbbe7c">
      <circle cx="76.557" cy="122.36" r=".04677" style="paint-order:stroke fill markers"/>
      <circle cx="76.746" cy="122.36" r=".04677" style="paint-order:stroke fill markers"/>
      <circle cx="76.557" cy="122.52" r=".04677" style="paint-order:stroke fill markers"/>
      <circle cx="76.746" cy="122.52" r=".04677" style="paint-order:stroke fill markers"/>
     </g>
    </g>
    <g transform="translate(0 3.8236)">
     <circle cx="76.65" cy="122.43" r=".38712" fill="#e2d9b6" stroke="#cbbe7c" stroke-linecap="round" stroke-linejoin="bevel" stroke-width=".18879" style="paint-order:stroke fill markers"/>
     <g transform="translate(-.0021973 -.0073128)" fill="#cbbe7c">
      <circle cx="76.557" cy="122.36" r=".04677" style="paint-order:stroke fill markers"/>
      <circle cx="76.746" cy="122.36" r=".04677" style="paint-order:stroke fill markers"/>
      <circle cx="76.557" cy="122.52" r=".04677" style="paint-order:stroke fill markers"/>
      <circle cx="76.746" cy="122.52" r=".04677" style="paint-order:stroke fill markers"/>
     </g>
    </g>
   </g>
   <g fill="#d7cce1">
    <g transform="matrix(.20714 .35878 -.35878 .20714 91.651 78.13)">
     <ellipse transform="matrix(.90635 -.42252 .58164 .81345 0 0)" cx="-5.7248" cy="153.84" rx=".55066" ry=".79766" style="paint-order:stroke fill markers"/>
     <path d="m83.986 126.36c0.30194 0.21354 0.61558 0.48419 1.0137 0.43953 0.54829-0.0183 1.1179-0.0136 1.64-0.20122 0.62758-0.3242 0.89399-1.1062 1.5759-1.3502 0.54351-0.15916 1.1437 0.14491 1.6586-0.16212 0.75668-0.41588 1.2607-1.2372 1.3643-2.0868 0.07698-0.5526-0.16471-1.16-0.67738-1.4198-0.56265-0.34743-1.3016-0.33204-1.8638 0.01-0.68555 0.36577-1.1494 1.0093-1.7472 1.4854-0.38767 0.26068-0.77502 0.57931-1.2484 0.65761-0.3502 4e-3 -0.68496-0.21222-1.0415-0.0998-0.41398 0.10301-0.59725 0.54248-0.79086 0.87961-0.17237 0.36431-0.41662 0.69777-0.54234 1.0819 0.08523 0.32821 0.41867 0.55078 0.65898 0.76619z"/>
     <path d="m86.145 127.54c-0.21566 0.25042-0.49557 0.42789-0.6413 0.73289-0.3183 0.51262-0.32452 1.1394-0.39121 1.721-0.08682 0.36604 0.15066 0.64714 0.41872 0.85948 0.3186 0.27505 0.74917 0.0518 1.0553-0.12695 0.48517-0.33327 0.7445-0.89123 1.1858-1.2735 0.44268-0.40678 0.95191-0.80535 1.5592-0.90867 0.80938-0.072 1.5801 0.47496 2.3889 0.23892 0.54573-0.17376 0.86073-0.71282 1.09-1.2008 0.21657-0.45488 0.14221-1.0458-0.25578-1.3778-0.51878-0.45917-1.2798-0.34348-1.8933-0.18119-0.74789 0.19102-1.4485 0.57049-2.2322 0.60599-0.45106-4.7e-4 -0.80375 0.23695-1.1907 0.42519-0.36472 0.16103-0.72937 0.3242-1.0935 0.48536z"/>
     <path d="m82.505 125.55c-0.22321-0.39838-0.32764-0.91244-0.73938-1.167-0.42645-0.17735-0.8734 0.0771-1.2493 0.26806-0.37211 0.20775-0.81295 0.39098-0.98585 0.81417-0.20089 0.25631-0.12427 0.6924-0.46354 0.83646-0.76999 0.29543-1.6156 0.20374-2.4173 0.34235-0.39076 0.0736-0.83644 0.14914-1.1049 0.46949-0.21941 0.40216-0.24508 0.92003-0.07385 1.3443 0.2798 0.52387 0.86111 0.93916 1.4721 0.89844 0.78516-0.10112 1.3299-0.74109 2.0005-1.0966 0.6428-0.35208 1.4194-0.34499 2.1248-0.22991 0.56076 0.0648 0.97784 0.53486 1.5421 0.57379 0.46079 0.0808 0.60916-0.42217 0.51155-0.77956-0.08048-0.32209 0 0 0.01754-0.96011-0.21144-0.43797-0.42293-0.87604-0.63434-1.3139z"/>
     <path d="m83.119 129.91c-0.26474 0.35283-0.72064 0.48382-1.127 0.59883-0.47382 0.14719-0.98428 0.0995-1.4536 0.25897-0.4586 0.15443-0.70006 0.63101-0.76016 1.084-0.08053 0.54654-0.03247 1.149 0.28228 1.6179 0.23014 0.29187 0.64077 0.29811 0.97928 0.33104 0.3916 0.0334 0.83238-0.0704 1.0628-0.41582 0.33754-0.48486 0.54015-1.1168 1.0983-1.4032 0.28563-0.17949 0.68073-0.21565 0.8759-0.5159 0.32766-0.55795 0.12241-1.2301 0.24242-1.8339 0.08446-0.32421 0.34716-0.65963 0.17393-1.0008-0.1785-0.23142-0.4721 0.0156-0.62946 0.15373-0.25164 0.3726-0.49595 0.7505-0.74465 1.1252z"/>
    </g>
    <g transform="matrix(.36237 .30316 -.20815 .52779 68.624 41.125)" clip-path="url(#clipPath1454)">
     <ellipse transform="matrix(.90635 -.42252 .58164 .81345 0 0)" cx="-5.7248" cy="153.84" rx=".55066" ry=".79766" style="paint-order:stroke fill markers"/>
     <path d="m83.986 126.36c0.30194 0.21354 0.61558 0.48419 1.0137 0.43953 0.54829-0.0183 1.1179-0.0136 1.64-0.20122 0.62758-0.3242 0.89399-1.1062 1.5759-1.3502 0.54351-0.15916 1.1437 0.14491 1.6586-0.16212 0.75668-0.41588 1.2607-1.2372 1.3643-2.0868 0.07698-0.5526-0.16471-1.16-0.67738-1.4198-0.56265-0.34743-1.3016-0.33204-1.8638 0.01-0.68555 0.36577-1.1494 1.0093-1.7472 1.4854-0.38767 0.26068-0.77502 0.57931-1.2484 0.65761-0.3502 4e-3 -0.68496-0.21222-1.0415-0.0998-0.41398 0.10301-0.59725 0.54248-0.79086 0.87961-0.17237 0.36431-0.41662 0.69777-0.54234 1.0819 0.08523 0.32821 0.41867 0.55078 0.65898 0.76619z"/>
     <path d="m86.145 127.54c-0.21566 0.25042-0.49557 0.42789-0.6413 0.73289-0.3183 0.51262-0.32452 1.1394-0.39121 1.721-0.08682 0.36604 0.15066 0.64714 0.41872 0.85948 0.3186 0.27505 0.74917 0.0518 1.0553-0.12695 0.48517-0.33327 0.7445-0.89123 1.1858-1.2735 0.44268-0.40678 0.95191-0.80535 1.5592-0.90867 0.80938-0.072 1.5801 0.47496 2.3889 0.23892 0.54573-0.17376 0.86073-0.71282 1.09-1.2008 0.21657-0.45488 0.14221-1.0458-0.25578-1.3778-0.51878-0.45917-1.2798-0.34348-1.8933-0.18119-0.74789 0.19102-1.4485 0.57049-2.2322 0.60599-0.45106-4.7e-4 -0.80375 0.23695-1.1907 0.42519-0.36472 0.16103-0.72937 0.3242-1.0935 0.48536z"/>
     <path d="m82.505 125.55c-0.22321-0.39838-0.32764-0.91244-0.73938-1.167-0.42645-0.17735-0.8734 0.0771-1.2493 0.26806-0.37211 0.20775-0.81295 0.39098-0.98585 0.81417-0.20089 0.25631-0.12427 0.6924-0.46354 0.83646-0.76999 0.29543-1.6156 0.20374-2.4173 0.34235-0.39076 0.0736-0.83644 0.14914-1.1049 0.46949-0.21941 0.40216-0.24508 0.92003-0.07385 1.3443 0.2798 0.52387 0.86111 0.93916 1.4721 0.89844 0.78516-0.10112 1.3299-0.74109 2.0005-1.0966 0.6428-0.35208 1.4194-0.34499 2.1248-0.22991 0.56076 0.0648 0.97784 0.53486 1.5421 0.57379 0.46079 0.0808 0.60916-0.42217 0.51155-0.77956-0.08048-0.32209 0 0 0.01754-0.96011-0.21144-0.43797-0.42293-0.87604-0.63434-1.3139z"/>
     <path d="m83.119 129.91c-0.26474 0.35283-0.72064 0.48382-1.127 0.59883-0.47382 0.14719-0.98428 0.0995-1.4536 0.25897-0.4586 0.15443-0.70006 0.63101-0.76016 1.084-0.08053 0.54654-0.03247 1.149 0.28228 1.6179 0.23014 0.29187 0.64077 0.29811 0.97928 0.33104 0.3916 0.0334 0.83238-0.0704 1.0628-0.41582 0.33754-0.48486 0.54015-1.1168 1.0983-1.4032 0.28563-0.17949 0.68073-0.21565 0.8759-0.5159 0.32766-0.55795 0.12241-1.2301 0.24242-1.8339 0.08446-0.32421 0.34716-0.65963 0.17393-1.0008-0.1785-0.23142-0.4721 0.0156-0.62946 0.15373-0.25164 0.3726-0.49595 0.7505-0.74465 1.1252z"/>
    </g>
    <g transform="matrix(.27527 -.23249 .36922 .22558 11.189 127.41)" clip-path="url(#clipPath1450)">
     <ellipse transform="matrix(.90635 -.42252 .58164 .81345 0 0)" cx="-5.7248" cy="153.84" rx=".55066" ry=".79766" style="paint-order:stroke fill markers"/>
     <path d="m83.986 126.36c0.30194 0.21354 0.61558 0.48419 1.0137 0.43953 0.54829-0.0183 1.1179-0.0136 1.64-0.20122 0.62758-0.3242 0.89399-1.1062 1.5759-1.3502 0.54351-0.15916 1.1437 0.14491 1.6586-0.16212 0.75668-0.41588 1.2607-1.2372 1.3643-2.0868 0.07698-0.5526-0.16471-1.16-0.67738-1.4198-0.56265-0.34743-1.3016-0.33204-1.8638 0.01-0.68555 0.36577-1.1494 1.0093-1.7472 1.4854-0.38767 0.26068-0.77502 0.57931-1.2484 0.65761-0.3502 4e-3 -0.68496-0.21222-1.0415-0.0998-0.41398 0.10301-0.59725 0.54248-0.79086 0.87961-0.17237 0.36431-0.41662 0.69777-0.54234 1.0819 0.08523 0.32821 0.41867 0.55078 0.65898 0.76619z"/>
     <path d="m86.145 127.54c-0.21566 0.25042-0.49557 0.42789-0.6413 0.73289-0.3183 0.51262-0.32452 1.1394-0.39121 1.721-0.08682 0.36604 0.15066 0.64714 0.41872 0.85948 0.3186 0.27505 0.74917 0.0518 1.0553-0.12695 0.48517-0.33327 0.7445-0.89123 1.1858-1.2735 0.44268-0.40678 0.95191-0.80535 1.5592-0.90867 0.80938-0.072 1.5801 0.47496 2.3889 0.23892 0.54573-0.17376 0.86073-0.71282 1.09-1.2008 0.21657-0.45488 0.14221-1.0458-0.25578-1.3778-0.51878-0.45917-1.2798-0.34348-1.8933-0.18119-0.74789 0.19102-1.4485 0.57049-2.2322 0.60599-0.45106-4.7e-4 -0.80375 0.23695-1.1907 0.42519-0.36472 0.16103-0.72937 0.3242-1.0935 0.48536z"/>
     <path d="m82.505 125.55c-0.22321-0.39838-0.32764-0.91244-0.73938-1.167-0.42645-0.17735-0.8734 0.0771-1.2493 0.26806-0.37211 0.20775-0.81295 0.39098-0.98585 0.81417-0.20089 0.25631-0.12427 0.6924-0.46354 0.83646-0.76999 0.29543-1.6156 0.20374-2.4173 0.34235-0.39076 0.0736-0.83644 0.14914-1.1049 0.46949-0.21941 0.40216-0.24508 0.92003-0.07385 1.3443 0.2798 0.52387 0.86111 0.93916 1.4721 0.89844 0.78516-0.10112 1.3299-0.74109 2.0005-1.0966 0.6428-0.35208 1.4194-0.34499 2.1248-0.22991 0.56076 0.0648 0.97784 0.53486 1.5421 0.57379 0.46079 0.0808 0.60916-0.42217 0.51155-0.77956-0.08048-0.32209 0 0 0.01754-0.96011-0.21144-0.43797-0.42293-0.87604-0.63434-1.3139z"/>
     <path d="m83.119 129.91c-0.26474 0.35283-0.72064 0.48382-1.127 0.59883-0.47382 0.14719-0.98428 0.0995-1.4536 0.25897-0.4586 0.15443-0.70006 0.63101-0.76016 1.084-0.08053 0.54654-0.03247 1.149 0.28228 1.6179 0.23014 0.29187 0.64077 0.29811 0.97928 0.33104 0.3916 0.0334 0.83238-0.0704 1.0628-0.41582 0.33754-0.48486 0.54015-1.1168 1.0983-1.4032 0.28563-0.17949 0.68073-0.21565 0.8759-0.5159 0.32766-0.55795 0.12241-1.2301 0.24242-1.8339 0.08446-0.32421 0.34716-0.65963 0.17393-1.0008-0.1785-0.23142-0.4721 0.0156-0.62946 0.15373-0.25164 0.3726-0.49595 0.7505-0.74465 1.1252z"/>
    </g>
    <g transform="matrix(.30743 -.25966 .41236 .25194 17.285 112.89)" clip-path="url(#clipPath1446)">
     <ellipse transform="matrix(.90635 -.42252 .58164 .81345 0 0)" cx="-5.7248" cy="153.84" rx=".55066" ry=".79766" style="paint-order:stroke fill markers"/>
     <path d="m83.986 126.36c0.30194 0.21354 0.61558 0.48419 1.0137 0.43953 0.54829-0.0183 1.1179-0.0136 1.64-0.20122 0.62758-0.3242 0.89399-1.1062 1.5759-1.3502 0.54351-0.15916 1.1437 0.14491 1.6586-0.16212 0.75668-0.41588 1.2607-1.2372 1.3643-2.0868 0.07698-0.5526-0.16471-1.16-0.67738-1.4198-0.56265-0.34743-1.3016-0.33204-1.8638 0.01-0.68555 0.36577-1.1494 1.0093-1.7472 1.4854-0.38767 0.26068-0.77502 0.57931-1.2484 0.65761-0.3502 4e-3 -0.68496-0.21222-1.0415-0.0998-0.41398 0.10301-0.59725 0.54248-0.79086 0.87961-0.17237 0.36431-0.41662 0.69777-0.54234 1.0819 0.08523 0.32821 0.41867 0.55078 0.65898 0.76619z"/>
     <path d="m86.145 127.54c-0.21566 0.25042-0.49557 0.42789-0.6413 0.73289-0.3183 0.51262-0.32452 1.1394-0.39121 1.721-0.08682 0.36604 0.15066 0.64714 0.41872 0.85948 0.3186 0.27505 0.74917 0.0518 1.0553-0.12695 0.48517-0.33327 0.7445-0.89123 1.1858-1.2735 0.44268-0.40678 0.95191-0.80535 1.5592-0.90867 0.80938-0.072 1.5801 0.47496 2.3889 0.23892 0.54573-0.17376 0.86073-0.71282 1.09-1.2008 0.21657-0.45488 0.14221-1.0458-0.25578-1.3778-0.51878-0.45917-1.2798-0.34348-1.8933-0.18119-0.74789 0.19102-1.4485 0.57049-2.2322 0.60599-0.45106-4.7e-4 -0.80375 0.23695-1.1907 0.42519-0.36472 0.16103-0.72937 0.3242-1.0935 0.48536z"/>
     <path d="m82.505 125.55c-0.22321-0.39838-0.32764-0.91244-0.73938-1.167-0.42645-0.17735-0.8734 0.0771-1.2493 0.26806-0.37211 0.20775-0.81295 0.39098-0.98585 0.81417-0.20089 0.25631-0.12427 0.6924-0.46354 0.83646-0.76999 0.29543-1.6156 0.20374-2.4173 0.34235-0.39076 0.0736-0.83644 0.14914-1.1049 0.46949-0.21941 0.40216-0.24508 0.92003-0.07385 1.3443 0.2798 0.52387 0.86111 0.93916 1.4721 0.89844 0.78516-0.10112 1.3299-0.74109 2.0005-1.0966 0.6428-0.35208 1.4194-0.34499 2.1248-0.22991 0.56076 0.0648 0.97784 0.53486 1.5421 0.57379 0.46079 0.0808 0.60916-0.42217 0.51155-0.77956-0.08048-0.32209 0 0 0.01754-0.96011-0.21144-0.43797-0.42293-0.87604-0.63434-1.3139z"/>
     <path d="m83.119 129.91c-0.26474 0.35283-0.72064 0.48382-1.127 0.59883-0.47382 0.14719-0.98428 0.0995-1.4536 0.25897-0.4586 0.15443-0.70006 0.63101-0.76016 1.084-0.08053 0.54654-0.03247 1.149 0.28228 1.6179 0.23014 0.29187 0.64077 0.29811 0.97928 0.33104 0.3916 0.0334 0.83238-0.0704 1.0628-0.41582 0.33754-0.48486 0.54015-1.1168 1.0983-1.4032 0.28563-0.17949 0.68073-0.21565 0.8759-0.5159 0.32766-0.55795 0.12241-1.2301 0.24242-1.8339 0.08446-0.32421 0.34716-0.65963 0.17393-1.0008-0.1785-0.23142-0.4721 0.0156-0.62946 0.15373-0.25164 0.3726-0.49595 0.7505-0.74465 1.1252z"/>
    </g>
    <g transform="matrix(.31548 -.26645 .42315 .25853 10.789 125.93)" clip-path="url(#clipPath1442)">
     <ellipse transform="matrix(.90635 -.42252 .58164 .81345 0 0)" cx="-5.7248" cy="153.84" rx=".55066" ry=".79766" style="paint-order:stroke fill markers"/>
     <path d="m83.986 126.36c0.30194 0.21354 0.61558 0.48419 1.0137 0.43953 0.54829-0.0183 1.1179-0.0136 1.64-0.20122 0.62758-0.3242 0.89399-1.1062 1.5759-1.3502 0.54351-0.15916 1.1437 0.14491 1.6586-0.16212 0.75668-0.41588 1.2607-1.2372 1.3643-2.0868 0.07698-0.5526-0.16471-1.16-0.67738-1.4198-0.56265-0.34743-1.3016-0.33204-1.8638 0.01-0.68555 0.36577-1.1494 1.0093-1.7472 1.4854-0.38767 0.26068-0.77502 0.57931-1.2484 0.65761-0.3502 4e-3 -0.68496-0.21222-1.0415-0.0998-0.41398 0.10301-0.59725 0.54248-0.79086 0.87961-0.17237 0.36431-0.41662 0.69777-0.54234 1.0819 0.08523 0.32821 0.41867 0.55078 0.65898 0.76619z"/>
     <path d="m86.145 127.54c-0.21566 0.25042-0.49557 0.42789-0.6413 0.73289-0.3183 0.51262-0.32452 1.1394-0.39121 1.721-0.08682 0.36604 0.15066 0.64714 0.41872 0.85948 0.3186 0.27505 0.74917 0.0518 1.0553-0.12695 0.48517-0.33327 0.7445-0.89123 1.1858-1.2735 0.44268-0.40678 0.95191-0.80535 1.5592-0.90867 0.80938-0.072 1.5801 0.47496 2.3889 0.23892 0.54573-0.17376 0.86073-0.71282 1.09-1.2008 0.21657-0.45488 0.14221-1.0458-0.25578-1.3778-0.51878-0.45917-1.2798-0.34348-1.8933-0.18119-0.74789 0.19102-1.4485 0.57049-2.2322 0.60599-0.45106-4.7e-4 -0.80375 0.23695-1.1907 0.42519-0.36472 0.16103-0.72937 0.3242-1.0935 0.48536z"/>
     <path d="m82.505 125.55c-0.22321-0.39838-0.32764-0.91244-0.73938-1.167-0.42645-0.17735-0.8734 0.0771-1.2493 0.26806-0.37211 0.20775-0.81295 0.39098-0.98585 0.81417-0.20089 0.25631-0.12427 0.6924-0.46354 0.83646-0.76999 0.29543-1.6156 0.20374-2.4173 0.34235-0.39076 0.0736-0.83644 0.14914-1.1049 0.46949-0.21941 0.40216-0.24508 0.92003-0.07385 1.3443 0.2798 0.52387 0.86111 0.93916 1.4721 0.89844 0.78516-0.10112 1.3299-0.74109 2.0005-1.0966 0.6428-0.35208 1.4194-0.34499 2.1248-0.22991 0.56076 0.0648 0.97784 0.53486 1.5421 0.57379 0.46079 0.0808 0.60916-0.42217 0.51155-0.77956-0.08048-0.32209 0 0 0.01754-0.96011-0.21144-0.43797-0.42293-0.87604-0.63434-1.3139z"/>
     <path d="m83.119 129.91c-0.26474 0.35283-0.72064 0.48382-1.127 0.59883-0.47382 0.14719-0.98428 0.0995-1.4536 0.25897-0.4586 0.15443-0.70006 0.63101-0.76016 1.084-0.08053 0.54654-0.03247 1.149 0.28228 1.6179 0.23014 0.29187 0.64077 0.29811 0.97928 0.33104 0.3916 0.0334 0.83238-0.0704 1.0628-0.41582 0.33754-0.48486 0.54015-1.1168 1.0983-1.4032 0.28563-0.17949 0.68073-0.21565 0.8759-0.5159 0.32766-0.55795 0.12241-1.2301 0.24242-1.8339 0.08446-0.32421 0.34716-0.65963 0.17393-1.0008-0.1785-0.23142-0.4721 0.0156-0.62946 0.15373-0.25164 0.3726-0.49595 0.7505-0.74465 1.1252z"/>
    </g>
   </g>
  </g>
 </g>
</svg>
