<svg width="293.69" height="411.1" version="1.1" viewBox="0 0 77.707 108.77" xmlns="http://www.w3.org/2000/svg">
 <defs>
  <linearGradient id="linearGradient974" x1="37.266" x2="36.991" y1="76.481" y2="71.639" gradientUnits="userSpaceOnUse">
   <stop stop-color="#e79a9a" offset="0"/>
   <stop stop-color="#e79a9a" stop-opacity="0" offset="1"/>
  </linearGradient>
 </defs>
 <g transform="translate(-38.136 -44.878)">
  <g transform="translate(38.136 44.878)">
   <path transform="scale(.26458)" d="m67.824 185.17c-3.5201 9e-3 -4.7441 0.0234-4.7441 0.0234-7.8836 87.495 6.5771 148.5 83.643 148.37 77.617-0.13878 93.971-61.359 84.142-148.37 0 0-1.099-0.0147-4.6191-0.0234-1.2701 9.3045-3.4592 19.908-4.2852 26.326-1.4206 11.038-44.623 13.868-75.238 14.121-30.615-0.25359-70.226-4.1573-73.238-14.871-1.798-6.3949-4.3901-16.272-5.6602-25.576z" fill="#e1b7b7" stroke="#e79a9a" stroke-width="3.7795"/>
   <path d="m16.956 69.398c1.3355-0.11114 2.6874-0.10049 4.0111 0.14238 4.1338 0.75846 8.2485 1.7615 12.458 1.9627 1.1878 0.05678 2.3731 0.21898 3.5663 0.13625 1.7594-0.12198 3.5312-0.12735 5.2776-0.3794 0.5577-0.08049 1.1097-0.19956 1.675-0.22838 0.82544-0.04208 1.6536-0.07909 2.4687-0.23026 0.5376-0.0997 1.0807-0.16268 1.6265-0.20137 1.0282-0.07289 2.0616-0.09833 3.0836-0.23346 0.8234-0.10887 1.6266-0.32649 2.4546-0.4167 1.1567-0.12602 2.3112-0.26742 3.4701-0.37838 0.93334-0.08937 1.8658-0.20822 2.7833-0.40937 0.5036-0.11041 0.91936-0.54757 1.4342-0.54267 0.20311 0.0019 0.36956 0.15853 0.53147 0.26796 0.38377 0.25937 0.75771 0.5798 0.92635 1.028 0.2218 0.58949 0.33722 1.2137 0.41867 1.8376 0.07836 0.60026-0.19479 1.215-0.66189 1.5932-0.56644 0.45862-1.2921 0.65025-1.995 0.78281-0.81469 0.15365-1.6487 0.16721-2.464 0.31229-0.87406 0.15554-1.6778 0.57449-2.3935 1.0951-1.0222 0.7435-2.2389 1.2776-3.5203 1.3079-0.81247 0.01921-1.5982-0.22273-2.3727-0.43532-1.0332-0.28358-2.1066-0.54789-3.1859-0.41244-1.1608 0.14568-2.2101 0.70155-3.2361 1.2282-0.99644 0.51144-2.0376 0.99858-3.1681 1.1142-0.76368 0.07807-1.5316-0.10213-2.2259-0.41728-0.95692-0.43439-1.8328-1.056-2.8595-1.3303-0.49511-0.13226-1.0194-0.17764-1.5245-0.06549-0.88024 0.19542-1.6507 0.68619-2.4903 0.99617-0.85195 0.31456-1.7424 0.59029-2.6544 0.5933-0.68919 0.0023-1.3046-0.34641-1.9195-0.61412-0.89291-0.38875-1.8172-0.70701-2.7585-0.95514-0.69717-0.18379-1.3993-0.37369-2.118-0.43993-1.0147-0.09352-2.0347-0.02702-3.0512-0.0087-0.9796 0.01764-1.9732 0.07649-2.9385-0.11322-0.37219-0.07314-0.77855-0.14714-1.0608-0.41303-0.30223-0.28473-0.38898-0.7229-0.39056-1.1219-0.0021-0.53623 0.2872-1.0099 0.57094-1.4449 0.24373-0.37362 0.50275-0.75833 0.57712-1.2052 0.06732-0.40449 0.2249-0.78829 0.43474-1.1386 0.2667-0.44528 0.57624-0.8965 1.027-1.1684 0.06162-0.03717 0.12624-0.06973 0.19404-0.09406z" fill="#e7c5c5" stroke="url(#linearGradient974)" stroke-width=".26458px"/>
   <path transform="scale(.26458)" d="m139.57 234.62c-0.81715 0.0228-1.6296 0.34717-2.3945 1.1074-7.3019 7.2577 9.543 22.83 9.543 22.83s16.847-15.572 9.5449-22.83c-4.0794-4.0546-9.5449 4.3301-9.5449 4.3301s-3.6074-5.5364-7.1484-5.4375z" fill="none" stroke="#d35f82" stroke-dasharray="2.00315, 1.00157" stroke-width="1.0016"/>
  </g>
 </g>
</svg>
