<svg width="293.69" height="411.1" version="1.1" viewBox="0 0 77.707 108.77" xmlns="http://www.w3.org/2000/svg">
 <defs>
  <clipPath id="clipPath935">
   <path d="m36.901 51.916c1.198 1.5e-5 2.396-0.0028 3.5939 2.3e-5 0.25063 5.88e-4 0.49905 0.08979 0.69485 0.24638 0.20672 0.16532 0.3476 0.40712 0.39812 0.66703 0.01612 0.08292 0.01868 0.16749 0.01866 0.25176-6e-5 0.23194 0.0019 0.46388-9.1e-5 0.6958-0.0022 0.25044-0.0929 0.4981-0.25054 0.69282-0.16661 0.20581-0.40941 0.3451-0.6697 0.39415-0.08141 0.01534-0.16434 0.01742-0.24697 0.01741-1.1818-1.5e-5 -2.3637 0.0027-3.5455-2.3e-5 -0.25063-5.88e-4 -0.49905-0.08979-0.69485-0.24638-0.20672-0.16532-0.3476-0.40712-0.39812-0.66703-0.01612-0.08292-0.01868-0.16749-0.01866-0.25176 6e-5 -0.23194-0.0019-0.46388 9.1e-5 -0.6958 0.0022-0.25044 0.0929-0.4981 0.25054-0.69282 0.16661-0.20581 0.40892-0.34779 0.6697-0.39415 0.0655-0.01165 0.13204-0.01742 0.19856-0.01741z" fill="#3d0000" style="paint-order:stroke fill markers"/>
  </clipPath>
  <clipPath id="clipPath939">
   <path d="m36.901 51.916c1.198 1.5e-5 2.396-0.0028 3.5939 2.3e-5 0.25063 5.88e-4 0.49904 0.08981 0.69485 0.24638 0.20857 0.16676 0.34987 0.41143 0.39937 0.67393 0.01539 0.08161 0.01744 0.16475 0.01741 0.24759-6e-5 0.23103 0.0019 0.46206-9.1e-5 0.69308-0.0022 0.25269-0.09457 0.5025-0.25479 0.69801-0.1679 0.20489-0.4117 0.34251-0.67236 0.39017-0.08045 0.01471-0.16232 0.01621-0.24388 0.01621-1.1806-1.5e-5 -2.3611 0.0027-3.5417-2.3e-5 -0.25063-5.88e-4 -0.49904-0.08981-0.69485-0.24638-0.20857-0.16676-0.34987-0.41143-0.39937-0.67393-0.01539-0.08161-0.01744-0.16475-0.01741-0.24759 6e-5 -0.23103-0.0019-0.46206 9.1e-5 -0.69308 0.0022-0.25269 0.09457-0.5025 0.25479-0.69801 0.1679-0.20489 0.41119-0.34542 0.67236-0.39017 0.06327-0.01084 0.12746-0.01621 0.19165-0.01621z" fill="#3d0000" style="paint-order:stroke fill markers"/>
  </clipPath>
  <clipPath id="clipPath959">
   <path d="m36.901 51.916c-0.61987 0-1.1188 0.49892-1.1188 1.1188v0.7276c0 0.6181 0.49623 1.1154 1.1136 1.1183l-0.93431 3.7153 2.8593 1.8724 2.8598-1.8753-0.93999-3.7352h-0.02585c0.51021-0.10442 0.89193-0.55356 0.89193-1.0955v-0.7276c0-0.61987-0.49892-1.1188-1.1188-1.1188z" fill="#3d0000" style="paint-order:stroke fill markers"/>
  </clipPath>
  <clipPath id="clipPath963">
   <path d="m36.901 51.916c-0.61987 0-1.1188 0.49892-1.1188 1.1188v0.7276c0 0.6181 0.49623 1.1154 1.1136 1.1183l-0.93431 3.7153 2.8593 1.8724 2.8598-1.8753-0.93999-3.7352h-0.02585c0.51021-0.10442 0.89193-0.55356 0.89193-1.0955v-0.7276c0-0.61987-0.49892-1.1188-1.1188-1.1188z" fill="#3d0000" style="paint-order:stroke fill markers"/>
  </clipPath>
  <clipPath id="clipPath967">
   <path d="m36.901 51.916c-0.61987 0-1.1188 0.49892-1.1188 1.1188v0.7276c0 0.6181 0.49623 1.1154 1.1136 1.1183l-0.93431 3.7153 2.8593 1.8724 2.8598-1.8753-0.93999-3.7352h-0.02585c0.51021-0.10442 0.89193-0.55356 0.89193-1.0955v-0.7276c0-0.61987-0.49892-1.1188-1.1188-1.1188z" fill="#3d0000" style="paint-order:stroke fill markers"/>
  </clipPath>
  <clipPath id="clipPath971">
   <path d="m36.901 51.916c-0.61987 0-1.1188 0.49892-1.1188 1.1188v0.7276c0 0.6181 0.49623 1.1154 1.1136 1.1183l-0.93431 3.7153 2.8593 1.8724 2.8598-1.8753-0.93999-3.7352h-0.02585c0.51021-0.10442 0.89193-0.55356 0.89193-1.0955v-0.7276c0-0.61987-0.49892-1.1188-1.1188-1.1188z" fill="#3d0000" style="paint-order:stroke fill markers"/>
  </clipPath>
 </defs>
 <g>
  <path d="m36.919 56.266 1.775-2.8679 0.30202 0.17437-1.7075 2.7564z" fill="none"/>
 </g>
 <g transform="translate(-38.136 -44.878)">
  <g transform="translate(38.136 44.878)">
   <path d="m36.777 72.297-4.5052 13.945c4.1411 2.4783 9.1387 2.484 14.559 1.2681z" fill="#520000" stroke="#3d0000"/>
   <g>
    <path d="m18.362 47.094 20.399 5.1399 20.703-5.2421-20.644 14.061z" fill="#fff"/>
    <path transform="scale(.26458)" d="m62.426 175.72-49.256 80.416 35.885 7.8672 16.371-39.141c-3.1706 13.814-3.0849 26.739-1.0781 39.141-1.2752 8.5654-1.8908 18.01-5.8477 23l-34.5 79 111 25.5 11.723-127.5 11.723 127.5 111-25.5-34.5-79c-3.9569-4.9898-4.5725-14.435-5.8476-23 2.0068-12.402 2.0925-25.327-1.0781-39.141l16.371 39.141 35.885-7.8672-49.256-80.416-84.296 55.034z" fill="#251818" stroke="#000" stroke-width="3.7795"/>
    <g>
     <path transform="scale(.26458)" d="m139.47 196.22c-2.3428 0-4.2285 1.8857-4.2285 4.2285v2.75c0 2.3361 1.8755 4.2158 4.209 4.2266l-3.5312 14.042 10.807 7.0767 10.809-7.0877-3.5527-14.117h-0.0977c1.9284-0.39468 3.3711-2.0922 3.3711-4.1406v-2.75c0-2.3428-1.8857-4.2285-4.2285-4.2285z" fill="#3d0000" style="paint-order:stroke fill markers"/>
     <path d="m35.782 51.916c1.5041 1.1542 3.0082 2.3084 4.5124 3.4626" clip-path="url(#clipPath939)" fill="none" stroke="#ff850a" stroke-width=".26458px"/>
     <path d="m37.184 50.935c1.4741 1.3154 2.9483 2.6307 4.4224 3.9461" clip-path="url(#clipPath935)" fill="none" stroke="#ff850a" stroke-width=".26458px"/>
     <g fill="#e07000">
      <g clip-path="url(#clipPath971)" shape-rendering="auto">
       <path d="m38.54 54.993-3.0857 2.1897" color="#000000" color-rendering="auto" dominant-baseline="auto" image-rendering="auto" solid-color="#000000" stop-color="#000000" style="font-feature-settings:normal;font-variant-alternates:normal;font-variant-caps:normal;font-variant-east-asian:normal;font-variant-ligatures:normal;font-variant-numeric:normal;font-variant-position:normal;font-variation-settings:normal;inline-size:0;isolation:auto;mix-blend-mode:normal;shape-margin:0;shape-padding:0;text-decoration-color:#000000;text-decoration-line:none;text-decoration-style:solid;text-indent:0;text-orientation:mixed;text-transform:none;white-space:normal"/>
       <path d="m38.463 54.885-3.0859 2.1895 0.1543 0.2168 3.2892-2.4029z" color="#000000" color-rendering="auto" dominant-baseline="auto" image-rendering="auto" solid-color="#000000" stop-color="#000000" style="font-feature-settings:normal;font-variant-alternates:normal;font-variant-caps:normal;font-variant-east-asian:normal;font-variant-ligatures:normal;font-variant-numeric:normal;font-variant-position:normal;font-variation-settings:normal;inline-size:0;isolation:auto;mix-blend-mode:normal;shape-margin:0;shape-padding:0;text-decoration-color:#000000;text-decoration-line:none;text-decoration-style:solid;text-indent:0;text-orientation:mixed;text-transform:none;white-space:normal"/>
      </g>
      <g clip-path="url(#clipPath967)" shape-rendering="auto">
       <path d="m41.717 53.813-5.9723 4.7587" color="#000000" color-rendering="auto" dominant-baseline="auto" image-rendering="auto" solid-color="#000000" stop-color="#000000" style="font-feature-settings:normal;font-variant-alternates:normal;font-variant-caps:normal;font-variant-east-asian:normal;font-variant-ligatures:normal;font-variant-numeric:normal;font-variant-position:normal;font-variation-settings:normal;inline-size:0;isolation:auto;mix-blend-mode:normal;shape-margin:0;shape-padding:0;text-decoration-color:#000000;text-decoration-line:none;text-decoration-style:solid;text-indent:0;text-orientation:mixed;text-transform:none;white-space:normal"/>
       <path d="m40.161 54.884-4.4993 3.5827 0.16602 0.20703 4.6593-3.7928z" color="#000000" color-rendering="auto" dominant-baseline="auto" image-rendering="auto" solid-color="#000000" stop-color="#000000" style="font-feature-settings:normal;font-variant-alternates:normal;font-variant-caps:normal;font-variant-east-asian:normal;font-variant-ligatures:normal;font-variant-numeric:normal;font-variant-position:normal;font-variation-settings:normal;inline-size:0;isolation:auto;mix-blend-mode:normal;shape-margin:0;shape-padding:0;text-decoration-color:#000000;text-decoration-line:none;text-decoration-style:solid;text-indent:0;text-orientation:mixed;text-transform:none;white-space:normal"/>
      </g>
      <path d="m41.807 55.764-5.9723 4.7587" clip-path="url(#clipPath963)" stroke="#e07000" stroke-width=".26458px"/>
      <path d="m42.991 57.312-5.9723 4.7587" clip-path="url(#clipPath959)" stroke="#e07000" stroke-width=".26458px"/>
     </g>
    </g>
   </g>
  </g>
 </g>
</svg>
