<svg width="293.69" height="411.1" version="1.1" viewBox="0 0 77.707 108.77" xmlns="http://www.w3.org/2000/svg">
 <defs>
  <filter id="filter2029" x="-.00041084" y="-.00060731" width="1.0008" height="1.0012" color-interpolation-filters="sRGB">
   <feGaussianBlur stdDeviation="0.003872866"/>
  </filter>
 </defs>
 <g transform="translate(-38.136 -44.878)">
  <g stroke="#afc1d5">
   <path d="m54.656 94.425-6.1683 9.6851 4.116 2.7644 1.4075-1.9354 1.637 16.14h42.991l1.2628-16.14 1.1274 1.7483 4.6772-2.8579-6.3027-9.4045-11.459 2.3151s-6.9498 9.6692-10.393 9.3927c-7.8876-0.63339-11.319-9.5912-11.319-9.5912z" fill="#ff7f2a" stroke="#d45500" stroke-width=".99988"/>
   <g fill="#ff7f2a" stroke="#d45500" stroke-width=".26458px">
    <path d="m49.744 101.44-1.7826 2.7391 4.8058 3.2906 0.58896-0.9649z"/>
    <path d="m104.33 101.14 1.9112 2.8093-5.332 3.2672-0.3668-0.55564z"/>
    <path d="m77.552 106.13s4.1786-2.2817 7.2903-3.1981 4.4167 0.26269 4.4167 0.26269l-1.3144-6.4573z"/>
    <path d="m76.196 106.08s-4.1786-2.2817-7.2903-3.1981-4.4167 0.26269-4.4167 0.26269l1.7443-6.6061z"/>
   </g>
   <g transform="matrix(.11349 0 0 .11349 78.615 101.01)">
    <g transform="translate(-108.56 -43.984)">
     <circle cx="151.45" cy="164" r="29.314" fill="none" stroke="#000" stroke-width="2.1"/>
     <circle cx="151.45" cy="164" r="2.0299" fill-opacity="0" stroke="#000" stroke-width="2.1"/>
     <g fill="none">
      <g stroke="#000" stroke-width=".75642px">
       <path d="m151.5 162.13-0.0239-27.219"/>
       <path d="m153.72 164.01 27.219-0.0239"/>
       <path d="m153.13 162.57 19.23-19.264"/>
       <path d="m151.5 193.36-0.0239-27.219"/>
       <path d="m122.31 164.01 27.219-0.0239"/>
       <path d="m130.59 184.82 19.23-19.264"/>
       <path d="m153.05 165.35 19.264 19.23"/>
       <path d="m130.62 143.11 19.264 19.23"/>
       <path d="m153.34 164.65 25.156 10.394"/>
       <path d="m150.75 165.99-10.394 25.156"/>
       <path d="m152.31 165.99 10.438 25.138"/>
       <path d="m124.48 152.7 25.156 10.394"/>
       <path d="m162.77 136.96-10.394 25.156"/>
       <path d="m140.38 136.65 10.438 25.138"/>
       <path d="m149.76 164.85-25.138 10.438"/>
       <path d="m178.9 152.64-25.138 10.438"/>
      </g>
      <circle cx="151.45" cy="164" r="31.765" stroke="#009bff" stroke-width="3.354"/>
     </g>
    </g>
    <g transform="translate(-212.42 -43.984)">
     <circle cx="151.45" cy="164" r="29.314" fill="none" stroke="#000" stroke-width="2.1"/>
     <circle cx="151.45" cy="164" r="2.0299" fill-opacity="0" stroke="#000" stroke-width="2.1"/>
     <g fill="none">
      <g stroke="#000" stroke-width=".75642px">
       <path d="m151.5 162.13-0.0239-27.219"/>
       <path d="m153.72 164.01 27.219-0.0239"/>
       <path d="m153.13 162.57 19.23-19.264"/>
       <path d="m151.5 193.36-0.0239-27.219"/>
       <path d="m122.31 164.01 27.219-0.0239"/>
       <path d="m130.59 184.82 19.23-19.264"/>
       <path d="m153.05 165.35 19.264 19.23"/>
       <path d="m130.62 143.11 19.264 19.23"/>
       <path d="m153.34 164.65 25.156 10.394"/>
       <path d="m150.75 165.99-10.394 25.156"/>
       <path d="m152.31 165.99 10.438 25.138"/>
       <path d="m124.48 152.7 25.156 10.394"/>
       <path d="m162.77 136.96-10.394 25.156"/>
       <path d="m140.38 136.65 10.438 25.138"/>
       <path d="m149.76 164.85-25.138 10.438"/>
       <path d="m178.9 152.64-25.138 10.438"/>
      </g>
      <circle cx="151.45" cy="164" r="31.765" stroke="#009bff" stroke-width="3.354"/>
     </g>
    </g>
    <g transform="translate(-113.18 -42.669)" filter="url(#filter2029)" opacity=".99906">
     <path d="m130.39 113.66c0.0595 0.0259 3.5711-7.2665 4.5493-9.8463 2.8544-2.3534 8.9005-1.5086 8.9005-1.5086" fill="none" stroke="#646464" stroke-linejoin="round" stroke-width="2.065"/>
     <path d="m137.83 100.09c5.3708-3.1604 9.9243-1.0265 9.9243-1.0265 1.7056 1.7424-0.32308 2.9559-0.32308 2.9559s-21.147 1.7268-21.597 0 6.3647-1.7272 11.996-1.9294z" fill="#784421" stroke="none"/>
    </g>
    <g transform="translate(-113.18 -42.669)" fill="none" opacity=".99906" stroke="#000" stroke-width="3">
     <path d="m52.22 162.69 15.748-36.668 4.2993-21.292-12.422-2.4559" stroke-linejoin="round"/>
     <path d="m70.699 113.2 59.791 0.1582-20.842 56.96-40.83-47.13z" stroke-linejoin="round"/>
     <path d="m130.32 113.88 25.962 48.711-47.577 7.6115"/>
    </g>
   </g>
  </g>
 </g>
</svg>
