<svg width="293.69" height="411.1" version="1.1" viewBox="0 0 77.707 108.77" xmlns="http://www.w3.org/2000/svg" xmlns:xlink="http://www.w3.org/1999/xlink">
 <defs>
  <linearGradient id="linearGradient924" x1="148.37" x2="148.76" y1="186.88" y2="207.66" gradientUnits="userSpaceOnUse">
   <stop stop-color="#5f192d" offset="0"/>
   <stop stop-color="#7f192d" offset="1"/>
  </linearGradient>
  <mask id="mask1240" maskUnits="userSpaceOnUse">
   <g>
    <path transform="matrix(.26458 0 0 .26458 38.136 44.878)" d="m62.553 169.71-40.618 75.627 22.613 13.055 12.585-22.098v46.023h179.18v-46.023l11.634 25.719 22.611-13.055-38.902-79.839-84.933 32.606z" fill="#343945" stroke="#23262f" stroke-width="3.7795"/>
    <g>
     <path d="m77.991 102.23a1.0174 1.0174 0 0 1-1.0174 1.0174 1.0174 1.0174 0 0 1-1.0174-1.0174 1.0174 1.0174 0 0 1 1.0174-1.0174 1.0174 1.0174 0 0 1 1.0174 1.0174z" fill="#7f7d8c"/>
     <path d="m77.991 105.41a1.0174 1.0174 0 0 1-1.0174 1.0174 1.0174 1.0174 0 0 1-1.0174-1.0174 1.0174 1.0174 0 0 1 1.0174-1.0174 1.0174 1.0174 0 0 1 1.0174 1.0174z" fill="#7f7d8c"/>
     <path d="m77.991 108.58a1.0174 1.0174 0 0 1-1.0174 1.0174 1.0174 1.0174 0 0 1-1.0174-1.0174 1.0174 1.0174 0 0 1 1.0174-1.0174 1.0174 1.0174 0 0 1 1.0174 1.0174z" fill="#7f7d8c"/>
     <path d="m77.991 111.76a1.0174 1.0174 0 0 1-1.0174 1.0174 1.0174 1.0174 0 0 1-1.0174-1.0174 1.0174 1.0174 0 0 1 1.0174-1.0174 1.0174 1.0174 0 0 1 1.0174 1.0174z" fill="#7f7d8c"/>
     <path d="m77.991 114.93a1.0174 1.0174 0 0 1-1.0174 1.0174 1.0174 1.0174 0 0 1-1.0174-1.0174 1.0174 1.0174 0 0 1 1.0174-1.0174 1.0174 1.0174 0 0 1 1.0174 1.0174z" fill="#7f7d8c"/>
    </g>
   </g>
  </mask>
 </defs>
 <g transform="translate(-38.136 -44.878)">
  <g transform="translate(-.017097 -1.2208)">
   <g>
    <path d="m54.44 89.158 22.517 9.0917 22.766-9.2553-22.689 2.7804z" fill="#fff"/>
    <g>
     <path transform="matrix(.26458 0 0 .26458 38.136 44.878)" d="m146.72 183.68-5.3125 0.61133v15.279l5.3125 1.5195 5.3125-1.5195v-15.279z" fill="url(#linearGradient924)"/>
     <rect x="74.375" y="91.149" width="5.164" height="3.1644" ry="1.3439" fill="#6f192d"/>
    </g>
   </g>
   <g fill="#ededed">
    <path d="m44.57 110.15-1.0729 1.8584 4.7062 2.7171 1.073-1.8586z"/>
    <path d="m109.06 110.68 1.0729 1.8584-4.7062 2.7171-1.073-1.8586z"/>
   </g>
   <g>
    <path transform="matrix(.26458 0 0 .26458 38.136 44.878)" d="m62.553 169.71-40.618 75.627 22.613 13.055 12.585-22.098v46.023h179.18v-46.023l11.634 25.719 22.611-13.055-38.902-79.839-84.933 32.606z" fill="#859999" stroke="#6f8585" stroke-width="3.7795"/>
    <g fill="#9ca38f">
     <circle cx="76.974" cy="102.23" r="1.0174"/>
     <circle cx="76.974" cy="105.41" r="1.0174"/>
     <circle cx="76.974" cy="108.58" r="1.0174"/>
     <circle cx="76.974" cy="111.76" r="1.0174"/>
     <circle cx="76.974" cy="114.93" r="1.0174"/>
    </g>
   </g>
   <g fill="#ededed" mask="url(#mask1240)" stroke="#9babab" stroke-width=".5px">
    <path d="m99.428 89.623v29.794"/>
    <path d="m95.361 89.637v29.794"/>
    <path d="m91.294 89.651v29.794"/>
    <path d="m87.226 89.666v29.794"/>
    <path d="m83.159 89.68v29.794"/>
    <path d="m79.091 89.694v29.794"/>
    <path d="m75.024 89.708v29.794"/>
    <path d="m70.956 89.722v29.794"/>
    <path d="m66.889 89.737v29.794"/>
    <path d="m62.822 89.751v29.794"/>
    <path d="m58.754 89.765v29.794"/>
    <path d="m54.687 89.779v29.794"/>
   </g>
   <g stroke="#8ea0a0" stroke-width=".5">
    <path d="m46.628 110.79 8.0591-13.188" fill="#ededed"/>
    <path d="m45.22 109.93 9.4669-15.641" fill="#ededed"/>
    <path d="m48.446 111.78 6.2394-9.908" fill="#8ea0a0"/>
   </g>
   <g transform="matrix(-.99775 -.066989 -.066989 .99775 160.53 4.3911)" fill="#ededed" stroke="#9babab" stroke-opacity=".41803" stroke-width=".5">
    <path d="m46.628 110.79 8.0591-13.188"/>
    <path d="m45.22 109.93 9.7063-15.908"/>
    <path d="m48.447 111.81 5.924-9.5203"/>
   </g>
  </g>
 </g>
</svg>
