<svg width="293.69" height="411.1" version="1.1" viewBox="0 0 77.707 108.77" xmlns="http://www.w3.org/2000/svg">
 <g transform="translate(-38.136 -44.878)">
  <g>
   <g>
    <path transform="matrix(.26458 0 0 .26458 38.136 44.878)" d="m58.049 183.65c-0.69242 0.0178-1.3732 0.1852-2.0059 0.56445-1.2057 0.84445-2.4874 1.4716-3.0723 2.9668-1.2738 1.6417-1.2204 3.8322-0.83203 5.7676 0.03704 1.4703 1.9768 2.3922 1.8672 3.7988-0.10768 1.382-1.5979 2.2631-2.3906 3.4024-1.0876 2.0067-1.5 4.3465-1.5371 6.6074 0.61273 2.1935 3.5059 3.1973 4.0156 5.375 0.26706 1.1408-0.75852 2.2214-0.63477 3.459-0.14691 2.0966 1.0432 4.0868 2.4883 5.5117 1.0317 0.98846 2.1173 1.8042 3.4551 2.3184 0.47723 0.29707 1.6385 0.26569 1.7578 0.29102l-0.27344 40.289h171.67l-0.27343-40.289c0.11934-0.0253 1.2806 6e-3 1.7578-0.29102 1.3378-0.51413 2.4233-1.3299 3.4551-2.3184 1.4451-1.4249 2.6353-3.4151 2.4883-5.5117 0.12374-1.2376-0.90198-2.3181-0.63477-3.459 0.50975-2.1777 3.4029-3.1815 4.0156-5.375-0.0372-2.261-0.44952-4.6007-1.5371-6.6074-0.79268-1.1392-2.2829-2.0203-2.3906-3.4024-0.1096-1.4066 1.8294-2.3285 1.8672-3.7988 0.38842-1.9354 0.44178-4.1259-0.83203-5.7676-0.58488-1.4952-1.8666-2.1224-3.0723-2.9668-0.63269-0.37925-1.3134-0.54669-2.0059-0.56445-1.154-0.0297-2.3397 0.35357-3.377 0.85156 0 0-36.742 13.307-55.953 16-9.6864 1.3577-29.344 2-29.344 2s-19.657-0.64231-29.344-2c-19.211-2.6927-55.953-16-55.953-16-1.0372-0.49799-2.2229-0.88123-3.377-0.85156z" fill="#355882" stroke="#1e3148" stroke-width="3.7795"/>
    <g transform="translate(0 2.9104)">
     <circle cx="76.957" cy="99.468" r="1.6206" fill="#cebcb6" stroke="#9d786c" stroke-linecap="round" stroke-width=".5" style="paint-order:stroke fill markers"/>
     <g fill="#9d786c">
      <circle cx="76.46" cy="99.047" r=".15381" style="paint-order:stroke fill markers"/>
      <circle cx="77.519" cy="99.047" r=".15381" style="paint-order:stroke fill markers"/>
      <circle cx="76.46" cy="99.889" r=".15381" style="paint-order:stroke fill markers"/>
      <circle cx="77.519" cy="99.889" r=".15381" style="paint-order:stroke fill markers"/>
     </g>
    </g>
    <g transform="translate(0 7.2829)">
     <circle cx="76.957" cy="99.468" r="1.6206" fill="#cebcb6" stroke="#9d786c" stroke-linecap="round" stroke-width=".5" style="paint-order:stroke fill markers"/>
     <g fill="#9d786c">
      <circle cx="76.46" cy="99.047" r=".15381" style="paint-order:stroke fill markers"/>
      <circle cx="77.519" cy="99.047" r=".15381" style="paint-order:stroke fill markers"/>
      <circle cx="76.46" cy="99.889" r=".15381" style="paint-order:stroke fill markers"/>
      <circle cx="77.519" cy="99.889" r=".15381" style="paint-order:stroke fill markers"/>
     </g>
    </g>
    <g transform="translate(0 11.655)">
     <circle cx="76.957" cy="99.468" r="1.6206" fill="#cebcb6" stroke="#9d786c" stroke-linecap="round" stroke-width=".5" style="paint-order:stroke fill markers"/>
     <g fill="#9d786c">
      <circle cx="76.46" cy="99.047" r=".15381" style="paint-order:stroke fill markers"/>
      <circle cx="77.519" cy="99.047" r=".15381" style="paint-order:stroke fill markers"/>
      <circle cx="76.46" cy="99.889" r=".15381" style="paint-order:stroke fill markers"/>
      <circle cx="77.519" cy="99.889" r=".15381" style="paint-order:stroke fill markers"/>
     </g>
    </g>
    <path transform="matrix(.26458 0 0 .26458 38.136 44.878)" d="m53.115 185.07c-3.7052 3.5858 10.882 5.0782 14.76 8.1754 4.6228 3.6923 7.9946 9.558 13.625 11.375 5.5656 1.7961 11.766-2.3976 17.5-1.25 6.8153 1.3639 11.718 8.6033 18.625 9.375 6.699 0.74838 12.883-4.9652 19.623-4.8828 8.3397 0.10189 15.813 7.2965 24.127 6.6328 5.1054-0.40758 8.9366-5.4933 13.982-6.3711 6.7669-1.1773 13.869 3.3702 20.533 1.709 6.2384-1.555 10.257-8.0357 16.223-10.434 5.6113-2.2556 12.341-0.8874 17.807-3.4766 4.1298-1.9564 8.6395-2.6584 11.624-5.5192 2.0655-1.9796-1.4413-6.1869-3.967-7.3764-4.1759-1.9666-13.579 2.7119-13.579 2.7119-11.552 3.9606-33.764 11.564-47.838 13.537-9.6864 1.3577-29.437 2.1562-29.437 2.1562s-19.393-0.86144-29.079-2.2191c-19.211-2.6927-51.203-14.276-51.203-14.276-3.4623-1.2883-6.0422-2.12-7.7297-2.4426-2.5254-0.21738-4.0599 1.0882-5.5964 2.5752z" fill="#ded2ce" stroke="#9d786c" stroke-width="1.8898"/>
   </g>
   <g fill="#1e3148">
    <path d="m52.425 96.934 2.5707 0.19752-3.2032 0.70269z"/>
    <path d="m52.449 101 2.9981-0.18677-3.0896 1.6674z"/>
    <path d="m101.98 95.929-3.0214 1.2944 2.5274-0.28928z"/>
    <path d="m101.8 100.47-3.1798 0.6637 3.0122 0.78445z"/>
   </g>
  </g>
 </g>
</svg>
