<?xml version="1.0" encoding="UTF-8" standalone="no"?>
<svg
   xmlns:dc="http://purl.org/dc/elements/1.1/"
   xmlns:cc="http://creativecommons.org/ns#"
   xmlns:rdf="http://www.w3.org/1999/02/22-rdf-syntax-ns#"
   xmlns:svg="http://www.w3.org/2000/svg"
   xmlns="http://www.w3.org/2000/svg"
   id="svg8"
   version="1.1"
   viewBox="0 0 77.706579 108.77032"
   height="411.1004"
   width="293.69418">
  <defs
     id="defs2" />
  <metadata
     id="metadata5">
    <rdf:RDF>
      <cc:Work
         rdf:about="">
        <dc:format>image/svg+xml</dc:format>
        <dc:type
           rdf:resource="http://purl.org/dc/dcmitype/StillImage" />
        <dc:title></dc:title>
      </cc:Work>
    </rdf:RDF>
  </metadata>
  <g
     transform="translate(-38.136244,-44.878254)"
     style="display:inline"
     id="layer1">
    <g
       id="g1033">
      <g
         id="g975">
        <path
           transform="matrix(0.26458333,0,0,0.26458333,38.136244,44.878254)"
           d="m 58.048828,183.64844 c -0.692416,0.0178 -1.373172,0.1852 -2.005859,0.56445 -1.205726,0.84445 -2.487388,1.47164 -3.072266,2.9668 -1.273814,1.64166 -1.220446,3.83223 -0.832031,5.76758 0.03704,1.47034 1.976794,2.39223 1.867187,3.79882 -0.107678,1.38201 -1.597929,2.26314 -2.390625,3.40235 -1.08757,2.00672 -1.499983,4.34647 -1.537109,6.60742 0.612729,2.19351 3.505888,3.19731 4.015625,5.375 0.267061,1.14085 -0.758519,2.22142 -0.634766,3.45898 -0.14691,2.09658 1.043225,4.0868 2.488282,5.51172 1.031746,0.98846 2.117303,1.80423 3.455078,2.31836 0.477229,0.29707 1.63847,0.26569 1.757812,0.29102 L 60.886719,264 h 85.835941 85.83593 l -0.27343,-40.28906 c 0.11934,-0.0253 1.28059,0.006 1.75781,-0.29102 1.3378,-0.51413 2.42334,-1.3299 3.45508,-2.31836 1.44506,-1.42492 2.6353,-3.41514 2.48828,-5.51172 0.12374,-1.23756 -0.90198,-2.31813 -0.63477,-3.45898 0.50975,-2.17769 3.40289,-3.18151 4.01563,-5.375 -0.0372,-2.26095 -0.44952,-4.60071 -1.53711,-6.60742 -0.79268,-1.13921 -2.28291,-2.02034 -2.39063,-3.40235 -0.1096,-1.40659 1.8294,-2.32848 1.86719,-3.79882 0.38842,-1.93535 0.44178,-4.12592 -0.83203,-5.76758 -0.58488,-1.49516 -1.86656,-2.12235 -3.07227,-2.9668 -0.63269,-0.37925 -1.31345,-0.54669 -2.00586,-0.56445 -1.154,-0.0297 -2.33972,0.35357 -3.37695,0.85156 0,0 -36.7418,13.30727 -55.95312,16 -9.68644,1.35769 -29.34375,2 -29.34375,2 0,0 -19.65731,-0.64231 -29.34375,-2 -19.211327,-2.69273 -55.953129,-16 -55.953129,-16 -1.037227,-0.49799 -2.222926,-0.88123 -3.376953,-0.85156 z"
           style="fill:#355882;stroke:#1e3148;stroke-width:3.77953;stroke-linecap:butt;stroke-linejoin:miter;stroke-miterlimit:4;stroke-dasharray:none;stroke-opacity:1"
           id="path889" />
        <g
           transform="translate(0,2.9104166)"
           id="g915">
          <circle
             style="fill:#cebcb6;stroke:#9d786c;stroke-width:0.5;stroke-linecap:round;stroke-miterlimit:4;stroke-dasharray:none;paint-order:stroke fill markers"
             id="path896"
             cx="76.956612"
             cy="99.467972"
             r="1.6205729" />
          <circle
             style="fill:#9d786c;stroke:none;stroke-width:0.219011;stroke-linecap:round;stroke-miterlimit:4;stroke-dasharray:none;paint-order:stroke fill markers"
             id="path902"
             cx="76.460373"
             cy="99.047028"
             r="0.15381339" />
          <circle
             r="0.15381339"
             cy="99.047028"
             cx="77.518707"
             id="circle904"
             style="fill:#9d786c;stroke:none;stroke-width:0.219011;stroke-linecap:round;stroke-miterlimit:4;stroke-dasharray:none;paint-order:stroke fill markers" />
          <circle
             r="0.15381339"
             cy="99.888916"
             cx="76.460373"
             id="circle906"
             style="fill:#9d786c;stroke:none;stroke-width:0.219011;stroke-linecap:round;stroke-miterlimit:4;stroke-dasharray:none;paint-order:stroke fill markers" />
          <circle
             style="fill:#9d786c;stroke:none;stroke-width:0.219011;stroke-linecap:round;stroke-miterlimit:4;stroke-dasharray:none;paint-order:stroke fill markers"
             id="circle908"
             cx="77.518707"
             cy="99.888916"
             r="0.15381339" />
        </g>
        <g
           id="g927"
           transform="translate(0,7.282871)">
          <circle
             r="1.6205729"
             cy="99.467972"
             cx="76.956612"
             id="circle917"
             style="fill:#cebcb6;stroke:#9d786c;stroke-width:0.5;stroke-linecap:round;stroke-miterlimit:4;stroke-dasharray:none;paint-order:stroke fill markers" />
          <circle
             r="0.15381339"
             cy="99.047028"
             cx="76.460373"
             id="circle919"
             style="fill:#9d786c;stroke:none;stroke-width:0.219011;stroke-linecap:round;stroke-miterlimit:4;stroke-dasharray:none;paint-order:stroke fill markers" />
          <circle
             style="fill:#9d786c;stroke:none;stroke-width:0.219011;stroke-linecap:round;stroke-miterlimit:4;stroke-dasharray:none;paint-order:stroke fill markers"
             id="circle921"
             cx="77.518707"
             cy="99.047028"
             r="0.15381339" />
          <circle
             style="fill:#9d786c;stroke:none;stroke-width:0.219011;stroke-linecap:round;stroke-miterlimit:4;stroke-dasharray:none;paint-order:stroke fill markers"
             id="circle923"
             cx="76.460373"
             cy="99.888916"
             r="0.15381339" />
          <circle
             r="0.15381339"
             cy="99.888916"
             cx="77.518707"
             id="circle925"
             style="fill:#9d786c;stroke:none;stroke-width:0.219011;stroke-linecap:round;stroke-miterlimit:4;stroke-dasharray:none;paint-order:stroke fill markers" />
        </g>
        <g
           transform="translate(0,11.655327)"
           id="g939">
          <circle
             style="fill:#cebcb6;stroke:#9d786c;stroke-width:0.5;stroke-linecap:round;stroke-miterlimit:4;stroke-dasharray:none;paint-order:stroke fill markers"
             id="circle929"
             cx="76.956612"
             cy="99.467972"
             r="1.6205729" />
          <circle
             style="fill:#9d786c;stroke:none;stroke-width:0.219011;stroke-linecap:round;stroke-miterlimit:4;stroke-dasharray:none;paint-order:stroke fill markers"
             id="circle931"
             cx="76.460373"
             cy="99.047028"
             r="0.15381339" />
          <circle
             r="0.15381339"
             cy="99.047028"
             cx="77.518707"
             id="circle933"
             style="fill:#9d786c;stroke:none;stroke-width:0.219011;stroke-linecap:round;stroke-miterlimit:4;stroke-dasharray:none;paint-order:stroke fill markers" />
          <circle
             r="0.15381339"
             cy="99.888916"
             cx="76.460373"
             id="circle935"
             style="fill:#9d786c;stroke:none;stroke-width:0.219011;stroke-linecap:round;stroke-miterlimit:4;stroke-dasharray:none;paint-order:stroke fill markers" />
          <circle
             style="fill:#9d786c;stroke:none;stroke-width:0.219011;stroke-linecap:round;stroke-miterlimit:4;stroke-dasharray:none;paint-order:stroke fill markers"
             id="circle937"
             cx="77.518707"
             cy="99.888916"
             r="0.15381339" />
        </g>
        <path
           transform="matrix(0.26458333,0,0,0.26458333,38.136244,44.878254)"
           d="m 53.115308,185.07457 c -3.705199,3.58581 10.881935,5.07824 14.759692,8.17543 4.622823,3.69228 7.994566,9.55796 13.625,11.375 5.565555,1.7961 11.765504,-2.39759 17.5,-1.25 6.81534,1.36388 11.7175,8.60333 18.625,9.375 6.69897,0.74838 12.88291,-4.96516 19.62305,-4.88281 8.33974,0.10189 15.81304,7.29653 24.12695,6.63281 5.1054,-0.40758 8.93657,-5.49326 13.98242,-6.37109 6.76694,-1.17726 13.86854,3.37023 20.5332,1.70898 6.23836,-1.55495 10.25734,-8.03571 16.22266,-10.43359 5.61133,-2.25559 12.34121,-0.8874 17.80664,-3.47657 4.12978,-1.95641 8.6395,-2.65836 11.62444,-5.51916 2.06548,-1.97958 -1.44128,-6.18689 -3.96703,-7.37635 -4.17592,-1.96657 -13.57928,2.71192 -13.57928,2.71192 -11.55218,3.96059 -33.76355,11.5644 -47.83789,13.53711 -9.68644,1.35769 -29.43705,2.15625 -29.43705,2.15625 0,0 -19.39259,-0.86144 -29.07903,-2.21913 -19.211336,-2.69273 -51.202608,-14.27643 -51.202608,-14.27643 -3.462286,-1.28827 -6.042177,-2.12005 -7.729731,-2.44255 -2.525363,-0.21738 -4.059923,1.08817 -5.596433,2.57518 z"
           style="fill:#ded2ce;stroke:#9d786c;stroke-width:1.88976;stroke-linecap:butt;stroke-linejoin:miter;stroke-miterlimit:4;stroke-dasharray:none;stroke-opacity:1"
           id="path949" />
      </g>
      <path
         style="fill:#1e3148;stroke:none;stroke-width:0.265;stroke-linecap:butt;stroke-linejoin:miter;stroke-opacity:1;stroke-miterlimit:4;stroke-dasharray:none"
         d="m 52.425294,96.93399 2.570668,0.197519 -3.203188,0.702686 z"
         id="path941" />
      <path
         style="fill:#1e3148;stroke:none;stroke-width:0.264583px;stroke-linecap:butt;stroke-linejoin:miter;stroke-opacity:1"
         d="m 52.448548,101.00454 2.998062,-0.18677 -3.089573,1.66743 z"
         id="path943" />
      <path
         style="fill:#1e3148;stroke:none;stroke-width:0.264583px;stroke-linecap:butt;stroke-linejoin:miter;stroke-opacity:1"
         d="m 101.98196,95.928885 -3.021437,1.294382 2.527407,-0.289277 z"
         id="path945" />
      <path
         style="fill:#1e3148;stroke:none;stroke-width:0.264583px;stroke-linecap:butt;stroke-linejoin:miter;stroke-opacity:1"
         d="m 101.80019,100.47158 -3.179792,0.6637 3.012232,0.78445 z"
         id="path947" />
    </g>
  </g>
  <g
     id="layer4" />
  <g
     transform="translate(-38.136244,-44.878254)"
     style="display:inline"
     id="layer2" />
  <g
     transform="translate(-38.136244,-44.878254)"
     id="layer3" />
</svg>
