<?xml version="1.0" encoding="UTF-8" standalone="no"?>
<svg
   xmlns:dc="http://purl.org/dc/elements/1.1/"
   xmlns:cc="http://creativecommons.org/ns#"
   xmlns:rdf="http://www.w3.org/1999/02/22-rdf-syntax-ns#"
   xmlns:svg="http://www.w3.org/2000/svg"
   xmlns="http://www.w3.org/2000/svg"
   xmlns:xlink="http://www.w3.org/1999/xlink"
   width="293.69418"
   height="411.1004"
   viewBox="0 0 77.706579 108.77032"
   version="1.1"
   id="svg8">
  <defs
     id="defs2">
    <linearGradient
       id="linearGradient1271">
      <stop
         id="stop1267"
         offset="0"
         style="stop-color:#eb3f33;stop-opacity:1;" />
      <stop
         id="stop1269"
         offset="1"
         style="stop-color:#eb3f33;stop-opacity:0;" />
    </linearGradient>
    <linearGradient
       id="linearGradient1258">
      <stop
         id="stop1254"
         offset="0"
         style="stop-color:#f2857d;stop-opacity:1" />
      <stop
         id="stop1256"
         offset="1"
         style="stop-color:#eb3f33;stop-opacity:1" />
    </linearGradient>
    <linearGradient
       gradientUnits="userSpaceOnUse"
       y2="277.02285"
       x2="228.07843"
       y1="277.02285"
       x1="64.228516"
       id="linearGradient1260"
       xlink:href="#linearGradient1258" />
    <linearGradient
       gradientUnits="userSpaceOnUse"
       y2="266.55169"
       x2="230.52148"
       y1="266.55169"
       x1="61.567496"
       id="linearGradient1273"
       xlink:href="#linearGradient1271" />
  </defs>
  <metadata
     id="metadata5">
    <rdf:RDF>
      <cc:Work
         rdf:about="">
        <dc:format>image/svg+xml</dc:format>
        <dc:type
           rdf:resource="http://purl.org/dc/dcmitype/StillImage" />
        <dc:title></dc:title>
      </cc:Work>
    </rdf:RDF>
  </metadata>
  <g
     id="layer1"
     style="display:inline"
     transform="translate(-38.136244,-44.878254)" />
  <g
     style="display:inline"
     id="layer4" />
  <g
     style="display:inline"
     id="layer3"
     transform="translate(-38.136244,-44.878254)" />
  <g
     id="layer2"
     style="display:inline"
     transform="translate(-38.136244,-44.878254)">
    <g
       id="g1293"
       style="display:inline"
       transform="translate(38.136244,44.878254)">
      <path
         id="path1236"
         style="fill:#f2857d;stroke:#eb3f33;stroke-width:3.77953;stroke-linecap:butt;stroke-linejoin:miter;stroke-miterlimit:4;stroke-dasharray:none;stroke-opacity:1"
         d="m 63.392578,186.29297 c 0.570191,33.18279 -6.442656,70.01873 3.67183,94.7418 0,0 51.711862,24.83409 79.658702,19.21523 27.15646,-5.45995 80.93705,-17.75 80.93705,-17.75 5.91635,-26.50463 2.75303,-63.06635 3.05678,-96.67042 l -4.14077,-0.22411 c 0,0 0.14279,20.99865 -6.11133,26.375 -7.43719,6.39337 -25.74164,11.00666 -33.81445,11.98828 -14.65766,1.78232 -39.92773,3.35352 -39.92773,3.35352 0,0 -26.64508,-1.2587 -41.30274,-3.04102 -8.072804,-0.98162 -26.375303,-5.59491 -33.812498,-11.98828 -6.25412,-5.37635 -4.300781,-26.125 -4.300781,-26.125 z"
         transform="scale(0.26458333)" />
      <g
         id="g1285">
        <g
           id="g1279">
          <path
             id="path1262"
             style="fill:url(#linearGradient1273);fill-opacity:1;stroke:none;stroke-width:0.999999px;stroke-linecap:butt;stroke-linejoin:miter;stroke-opacity:1"
             d="M 159.16797,232.0293 C 150.87251,231.8402 146.29687,239.375 112.5,242 c -37.471134,2.91038 -38.163859,-2.90842 -50.888672,-2.69922 -0.274979,15.51262 0.650682,29.99565 5.453125,41.73438 0,0 51.711367,24.8337 79.658207,19.21484 27.15646,-5.45995 80.9375,-17.75 80.9375,-17.75 1.4249,-6.3834 2.31447,-13.36022 2.86132,-20.72852 C 220.15919,258.74689 201.35029,252.31355 180,240.5 c -11.12138,-6.15369 -16.48679,-8.37165 -20.83203,-8.4707 z"
             transform="scale(0.26458333)" />
          <path
             id="path1241"
             style="fill:url(#linearGradient1260);fill-opacity:1;stroke:none;stroke-width:0.999999px;stroke-linecap:butt;stroke-linejoin:miter;stroke-opacity:1"
             d="m 193.43555,252.99219 c -11.23778,-0.22774 -26.75787,3.7381 -59.43946,11.00781 -52.319706,11.63804 -47.668468,-2.9519 -69.767574,-2.16797 0.809256,6.88241 1.852397,12.37559 4.210937,18.14063 1.75,0.5625 50.336367,25.8962 78.283207,20.27734 27.15646,-5.45995 79.4349,-18.98744 79.4349,-18.98744 0.90203,-4.04103 1.39649,-8.07315 1.92087,-12.53561 -1.96706,-1.83659 -2.82206,-2.77 -6.04718,-4.72695 -12.09816,-7.34098 -18.68001,-10.80687 -28.5957,-11.00781 z"
             transform="scale(0.26458333)" />
        </g>
        <circle
           r="2.9434896"
           cy="62.573959"
           cx="56.025517"
           id="path1275"
           style="fill:#eb3f33;fill-opacity:1;stroke:none;stroke-width:1;stroke-linecap:square;stroke-linejoin:miter;stroke-miterlimit:4;stroke-dasharray:none;stroke-opacity:1;paint-order:stroke fill markers" />
      </g>
    </g>
  </g>
  <g
     style="display:inline"
     id="layer5" />
</svg>
