<svg width="293.69" height="411.1" version="1.1" viewBox="0 0 77.707 108.77" xmlns="http://www.w3.org/2000/svg" xmlns:xlink="http://www.w3.org/1999/xlink">
 <defs>
  <linearGradient id="linearGradient1260" x1="64.229" x2="228.08" y1="277.02" y2="277.02" gradientUnits="userSpaceOnUse">
   <stop stop-color="#f2857d" offset="0"/>
   <stop stop-color="#eb3f33" offset="1"/>
  </linearGradient>
  <linearGradient id="linearGradient1273" x1="61.567" x2="230.52" y1="266.55" y2="266.55" gradientUnits="userSpaceOnUse">
   <stop stop-color="#eb3f33" offset="0"/>
   <stop stop-color="#eb3f33" stop-opacity="0" offset="1"/>
  </linearGradient>
 </defs>
 <g transform="translate(-38.136 -44.878)">
  <g transform="translate(38.136 44.878)">
   <path transform="scale(.26458)" d="m63.393 186.29c0.57019 33.183-6.4427 70.019 3.6718 94.742 0 0 51.712 24.834 79.659 19.215 27.156-5.46 80.937-17.75 80.937-17.75 5.9164-26.505 2.753-63.066 3.0568-96.67l-4.1408-0.22411s0.14279 20.999-6.1113 26.375c-7.4372 6.3934-25.742 11.007-33.814 11.988-14.658 1.7823-39.928 3.3535-39.928 3.3535s-26.645-1.2587-41.303-3.041c-8.0728-0.98162-26.375-5.5949-33.812-11.988-6.2541-5.3764-4.3008-26.125-4.3008-26.125z" fill="#f2857d" stroke="#eb3f33" stroke-width="3.7795"/>
   <g>
    <g>
     <path transform="scale(.26458)" d="m159.17 232.03c-8.2955-0.1891-12.871 7.3457-46.668 9.9707-37.471 2.9104-38.164-2.9084-50.889-2.6992-0.27498 15.513 0.65068 29.996 5.4531 41.734 0 0 51.711 24.834 79.658 19.215 27.156-5.46 80.938-17.75 80.938-17.75 1.4249-6.3834 2.3145-13.36 2.8613-20.729-10.362-3.0246-29.171-9.4579-50.521-21.271-11.121-6.1537-16.487-8.3716-20.832-8.4707z" fill="url(#linearGradient1273)"/>
     <path transform="scale(.26458)" d="m193.44 252.99c-11.238-0.22774-26.758 3.7381-59.439 11.008-52.32 11.638-47.668-2.9519-69.768-2.168 0.80926 6.8824 1.8524 12.376 4.2109 18.141 1.75 0.5625 50.336 25.896 78.283 20.277 27.156-5.46 79.435-18.987 79.435-18.987 0.90203-4.041 1.3965-8.0732 1.9209-12.536-1.9671-1.8366-2.8221-2.77-6.0472-4.727-12.098-7.341-18.68-10.807-28.596-11.008z" fill="url(#linearGradient1260)"/>
    </g>
    <circle cx="56.026" cy="62.574" r="2.9435" fill="#eb3f33" style="paint-order:stroke fill markers"/>
   </g>
  </g>
 </g>
</svg>
