<svg width="293.69" height="411.1" version="1.1" viewBox="0 0 77.707 108.77" xmlns="http://www.w3.org/2000/svg">
 <g transform="translate(-38.136 -44.878)">
  <g transform="translate(-1.2708e-6)">
   <g stroke="#eb3f33">
    <path transform="matrix(.26458 0 0 .26458 38.136 44.878)" d="m63.243 181.12 0.069859 47.319-34.312 123.56s8.4114 10.882 23.34 7.9616c11.413-2.233 24.256-10.455 33.16-10.462 8.4606-6e-3 17.229 9.4966 28.189 11.571 15.863 3.0021 21.809-6.7864 33.034-6.5709 8.5663 0.16448 12.524 7.2132 24.999 5.9786 12.817-1.2685 25.73-10.985 36.223-10.979 8.1478 6e-3 19.884 9.9078 30.48 11.899 16.128 3.0316 26.52-10.399 26.52-10.399l-34.286-120.88 0.16053-49.624h-5.3125l-16.812 24s-14.5 12.5-32.5 14.5c-18 2-29.473 12.75-29.473 12.75s-11.473-10.75-29.473-12.75c-18-2-32.5-14.5-32.5-14.5l-16.352-23.47z" fill="#ee6258" stroke-width="3.7795"/>
    <g fill="#eb3f33" stroke-width=".26458px">
     <path d="m51.985 140.12 8.7735-25.39-1e-6 22.622z"/>
     <path d="m76.957 138.67 4.397-14.282 2.2173 15.864z"/>
     <path d="m97.371 138.95-0.03412-20.942 10.899 19.741c-1.9733 1.3354-3.2787 3.4349-7.0168 2.7515z"/>
    </g>
   </g>
   <g>
    <g>
     <path d="m61.121 103.27c0.05394 0.0938-0.09983 0.11898-0.15591 0.0896-0.15195-0.0795-0.12207-0.29355-0.02339-0.40146 0.17652-0.19302 0.48482-0.13802 0.64702 0.0429 0.23802 0.26546 0.15519 0.67896-0.10914 0.89257-0.35231 0.2847-0.87415 0.17293-1.1381-0.1754-0.33218-0.43834-0.19099-1.0699 0.24166-1.3837 0.52399-0.38007 1.2658-0.20921 1.6292 0.30792 0.42823 0.60942 0.22755 1.462-0.37418 1.8748-0.69472 0.47656-1.6583 0.24597-2.1203-0.44043-0.52498-0.77993-0.26443-1.8547 0.5067-2.3659 0.86508-0.57349 2.0511-0.28293 2.6114 0.57295 0.62206 0.9502 0.30146 2.2476-0.63922 2.857" fill="#ffe099" fill-rule="evenodd" stroke="#ffce5c" stroke-width=".26458"/>
     <path d="m58.094 99.914s-0.03921 1.4564 1.599 1.6656c0 0 0.03921-1.4564-1.599-1.6656z" fill="#99f368" stroke="#35c073" stroke-linecap="round" stroke-width=".1"/>
     <path d="m56.781 102.97s0.97366 1.0838 2.3064 0.10832c0 0-0.97365-1.0838-2.3064-0.10832z" fill="#99f368" stroke="#35c073" stroke-linecap="round" stroke-width=".1"/>
    </g>
    <g>
     <path transform="matrix(-.58467 .48613 -.48613 -.58467 161.28 133.48)" d="m69.223 105.95c0.05394 0.0938-0.09983 0.11898-0.15591 0.0896-0.15195-0.0795-0.12207-0.29355-0.02339-0.40146 0.17652-0.19302 0.48482-0.13802 0.64702 0.0429 0.23802 0.26546 0.15519 0.67896-0.10913 0.89256-0.35231 0.28471-0.87415 0.17294-1.1381-0.17539-0.33218-0.43834-0.19099-1.0699 0.24166-1.3837 0.52399-0.38008 1.2658-0.20921 1.6292 0.30792 0.42823 0.60942 0.22755 1.462-0.37418 1.8748-0.69472 0.47656-1.6583 0.24597-2.1203-0.44043-0.52498-0.77993-0.26442-1.8547 0.5067-2.3659 0.86508-0.57348 2.0511-0.28292 2.6114 0.57296 0.62206 0.9502 0.30146 2.2476-0.63922 2.857" fill="#ffe099" fill-rule="evenodd" stroke="#ffce5c" stroke-width=".26458"/>
     <g fill="#99f368" stroke="#35c073" stroke-linecap="round" stroke-width=".1">
      <path d="m65.194 103.64s0.61718 1.3197 2.1756 0.77309c0 0-0.61717-1.3197-2.1756-0.77309z"/>
      <path d="m65.211 107.02s1.2965 0.66445 2.1929-0.72267c0 0-1.2965-0.66447-2.1929 0.72267z"/>
      <path d="m70.872 105.97s0.52056 1.3607 2.1143 0.92772c0 0-0.52055-1.3607-2.1143-0.92772z"/>
     </g>
    </g>
    <g>
     <path transform="matrix(-.58467 .48613 -.48613 -.58467 175.96 133.77)" d="m69.223 105.95c0.05394 0.0938-0.09983 0.11898-0.15591 0.0896-0.15195-0.0795-0.12207-0.29355-0.02339-0.40146 0.17652-0.19302 0.48482-0.13802 0.64702 0.0429 0.23802 0.26546 0.15519 0.67896-0.10913 0.89256-0.35231 0.28471-0.87415 0.17294-1.1381-0.17539-0.33218-0.43834-0.19099-1.0699 0.24166-1.3837 0.52399-0.38008 1.2658-0.20921 1.6292 0.30792 0.42823 0.60942 0.22755 1.462-0.37418 1.8748-0.69472 0.47656-1.6583 0.24597-2.1203-0.44043-0.52498-0.77993-0.26442-1.8547 0.5067-2.3659 0.86508-0.57348 2.0511-0.28292 2.6114 0.57296 0.62206 0.9502 0.30146 2.2476-0.63922 2.857" fill="#ffe099" fill-rule="evenodd" stroke="#ffce5c" stroke-width=".26458"/>
     <g fill="#99f368" stroke="#35c073" stroke-linecap="round" stroke-width=".1">
      <path d="m87.933 104.14s-0.61718 1.3197-2.1756 0.77309c0 0 0.61717-1.3197 2.1756-0.77309z"/>
      <path d="m87.917 107.51s-1.2965 0.66445-2.1929-0.72267c0 0 1.2965-0.66447 2.1929 0.72267z"/>
      <path d="m82.255 106.46s-0.52056 1.3607-2.1143 0.92772c0 0 0.52055-1.3607 2.1143-0.92772z"/>
     </g>
    </g>
    <g>
     <path d="m92.539 103.41c0.05394 0.0938-0.09983 0.11899-0.15591 0.0897-0.15195-0.0795-0.12207-0.29356-0.02339-0.40146 0.17652-0.19302 0.48482-0.13802 0.64702 0.0429 0.23802 0.26547 0.15519 0.67896-0.10914 0.89257-0.35231 0.2847-0.87415 0.17294-1.1381-0.1754-0.33218-0.43834-0.19099-1.0698 0.24166-1.3837 0.52399-0.38008 1.2658-0.20922 1.6292 0.30791 0.42823 0.60942 0.22755 1.462-0.37418 1.8748-0.69472 0.47655-1.6583 0.24596-2.1203-0.44044-0.52498-0.77993-0.26443-1.8547 0.5067-2.3659 0.86508-0.57349 2.0511-0.28293 2.6114 0.57296 0.62206 0.95019 0.30146 2.2476-0.63922 2.857" fill="#ffe099" fill-rule="evenodd" stroke="#ffce5c" stroke-width=".26458"/>
     <path d="m96.241 100.29s0.03921 1.4564-1.599 1.6656c0 0-0.03921-1.4564 1.599-1.6656z" fill="#99f368" stroke="#35c073" stroke-linecap="round" stroke-width=".1"/>
     <path d="m97.554 103.34s-0.97366 1.0838-2.3064 0.10832c0 0 0.97365-1.0838 2.3064-0.10832z" fill="#99f368" stroke="#35c073" stroke-linecap="round" stroke-width=".1"/>
    </g>
    <g>
     <path d="m76.598 109.29c0.05394 0.0938-0.09983 0.11898-0.15591 0.0896-0.15195-0.0795-0.12207-0.29356-0.02339-0.40147 0.17652-0.19301 0.48482-0.13801 0.64702 0.0429 0.23802 0.26547 0.15519 0.67896-0.10914 0.89257-0.35231 0.2847-0.87415 0.17294-1.1381-0.1754-0.33218-0.43834-0.19099-1.0698 0.24166-1.3837 0.52399-0.38008 1.2658-0.20922 1.6292 0.30791 0.42823 0.60942 0.22755 1.462-0.37418 1.8748-0.69472 0.47655-1.6583 0.24596-2.1203-0.44044-0.52498-0.77993-0.26443-1.8547 0.5067-2.3659 0.86508-0.57349 2.0511-0.28293 2.6114 0.57295 0.62206 0.9502 0.30146 2.2476-0.63922 2.857" fill="#ffe099" fill-rule="evenodd" stroke="#ffce5c" stroke-width=".26458"/>
     <path d="m75.474 111.1s0.03836 1.4564-1.6 1.6647c0 0-0.03838-1.4564 1.6-1.6647z" fill="#99f368" stroke="#35c073" stroke-linecap="round" stroke-width=".1"/>
     <path d="m77.518 111.67s1.3288 0.59735 0.80558 2.1638c0 0-1.3288-0.59734-0.80558-2.1638z" fill="#99f368" stroke="#35c073" stroke-linecap="round" stroke-width=".1"/>
    </g>
   </g>
  </g>
 </g>
</svg>
