<svg width="293.69" height="411.1" version="1.1" viewBox="0 0 77.707 108.77" xmlns="http://www.w3.org/2000/svg">
 <g transform="translate(-38.136 -44.878)">
  <g stroke="#afc1d5">
   <path d="m54.656 94.425-6.1683 9.6851 4.116 2.7644 1.4075-1.9354 1.637 16.14h42.991l1.2628-16.14 1.1274 1.7483 4.6772-2.8579-6.3027-9.4045-11.459 2.3151s-6.9498 9.6692-10.393 9.3927c-7.8876-0.63339-11.319-9.5912-11.319-9.5912z" fill="#c9d5e3"/>
   <g fill="#bccbdc" stroke-width=".26458px">
    <path d="m49.744 101.44-1.7826 2.7391 4.8058 3.2906 0.58896-0.9649z"/>
    <path d="m104.33 101.14 1.9112 2.8093-5.332 3.2672-0.3668-0.55564z"/>
    <path d="m77.552 106.13s4.1786-2.2817 7.2903-3.1981 4.4167 0.26269 4.4167 0.26269l-1.3144-6.4573z"/>
    <path d="m76.626 105.93s-4.1786-2.2817-7.2903-3.1981-4.4167 0.26269-4.4167 0.26269l1.7443-6.6061z"/>
   </g>
  </g>
 </g>
</svg>
