<?xml version="1.0" encoding="UTF-8" standalone="no"?>
<svg
   xmlns:dc="http://purl.org/dc/elements/1.1/"
   xmlns:cc="http://creativecommons.org/ns#"
   xmlns:rdf="http://www.w3.org/1999/02/22-rdf-syntax-ns#"
   xmlns:svg="http://www.w3.org/2000/svg"
   xmlns="http://www.w3.org/2000/svg"
   width="293.69418"
   height="411.1004"
   viewBox="0 0 77.706579 108.77032"
   version="1.1"
   id="svg8">
  <defs
     id="defs2">
    <clipPath
       id="clipPath1442"
       clipPathUnits="userSpaceOnUse">
      <path
         style="display:inline;fill:#ad98c3;stroke:#987eb4;stroke-width:1.98279;stroke-linecap:butt;stroke-linejoin:miter;stroke-miterlimit:4;stroke-dasharray:none;stroke-opacity:1"
         d="M 73.37379,64.851237 45.029671,92.438902 61.077976,108.75559 74.536508,104.08176 67.724757,114.5992 84.076446,131.46894 119.4677,112.359 C 102.49456,94.676346 87.246463,79.354775 73.373644,64.851346 Z"
         id="path1444" />
    </clipPath>
    <clipPath
       id="clipPath1446"
       clipPathUnits="userSpaceOnUse">
      <path
         style="display:inline;fill:#ad98c3;stroke:#987eb4;stroke-width:1.98279;stroke-linecap:butt;stroke-linejoin:miter;stroke-miterlimit:4;stroke-dasharray:none;stroke-opacity:1"
         d="m 41.184125,78.924574 -28.344118,27.587666 16.048304,16.31669 13.458532,-4.67384 -6.811751,10.51744 16.351689,16.86975 35.39125,-19.10994 C 70.304893,108.74968 55.056798,93.428112 41.183979,78.924683 Z"
         id="path1448" />
    </clipPath>
    <clipPath
       id="clipPath1450"
       clipPathUnits="userSpaceOnUse">
      <path
         style="display:inline;fill:#ad98c3;stroke:#987eb4;stroke-width:1.98279;stroke-linecap:butt;stroke-linejoin:miter;stroke-miterlimit:4;stroke-dasharray:none;stroke-opacity:1"
         d="m 84.715908,76.551894 -28.344118,27.587666 16.048304,16.31669 13.458532,-4.67384 -6.811751,10.51744 16.351689,16.86975 35.391246,-19.10994 C 113.83668,106.377 98.588581,91.055432 84.715762,76.552003 Z"
         id="path1452" />
    </clipPath>
    <clipPath
       id="clipPath1454"
       clipPathUnits="userSpaceOnUse">
      <path
         style="display:inline;fill:#ad98c3;stroke:#987eb4;stroke-width:1.98279;stroke-linecap:butt;stroke-linejoin:miter;stroke-miterlimit:4;stroke-dasharray:none;stroke-opacity:1"
         d="m 41.074036,128.69246 20.234049,20.21059 28.356735,-16.41347 0.89582,-10.90779 9.70895,4.25206 29.19774,-16.76183 -6.14554,-27.622373 C 92.800252,98.875244 66.083751,114.44205 41.074098,128.69257 Z"
         id="path1456" />
    </clipPath>
    <clipPath
       id="clipPath1458"
       clipPathUnits="userSpaceOnUse">
      <path
         style="display:inline;fill:#ad98c3;stroke:#987eb4;stroke-width:1.08697;stroke-linecap:butt;stroke-linejoin:miter;stroke-miterlimit:4;stroke-dasharray:none;stroke-opacity:1"
         d="m 76.60593,120.5722 -0.670937,18.56342 14.539788,3.17856 4.054235,-5.20295 1.562368,6.12752 14.923106,3.3435 7.63768,-16.60496 c -15.56642,-3.5442 -29.30073,-6.48647 -42.046258,-9.40501 z"
         id="path1460" />
    </clipPath>
  </defs>
  <metadata
     id="metadata5">
    <rdf:RDF>
      <cc:Work
         rdf:about="">
        <dc:format>image/svg+xml</dc:format>
        <dc:type
           rdf:resource="http://purl.org/dc/dcmitype/StillImage" />
        <dc:title></dc:title>
      </cc:Work>
    </rdf:RDF>
  </metadata>
  <g
     id="layer1"
     style="display:inline"
     transform="translate(-38.136244,-44.878254)" />
  <g
     id="layer4" />
  <g
     style="display:inline"
     id="layer3"
     transform="translate(-38.136244,-44.878254)" />
  <g
     id="layer2"
     style="display:inline"
     transform="translate(-38.136244,-44.878254)">
    <g
       id="g1685">
      <path
         id="path893"
         style="display:inline;fill:#c9d5e3;stroke:#afc1d5;stroke-width:1;stroke-linecap:butt;stroke-linejoin:miter;stroke-miterlimit:4;stroke-dasharray:none;stroke-opacity:1"
         d="m 54.656165,94.424583 -6.168348,9.685147 4.115951,2.76436 1.407476,-1.93542 1.637026,16.13958 h 21.308344 21.682518 l 1.262849,-16.13958 1.127359,1.74833 4.67722,-2.8579 -6.302728,-9.404517 -11.45926,2.315104 c 0,0 -6.949765,9.669173 -10.392645,9.392713 -7.887638,-0.63339 -11.31869,-9.59115 -11.31869,-9.59115 z" />
      <path
         style="fill:#bccbdc;fill-opacity:1;stroke:#afc1d5;stroke-width:0.264583px;stroke-linecap:butt;stroke-linejoin:miter;stroke-opacity:1"
         d="m 49.744201,101.44079 -1.782571,2.7391 4.805841,3.29055 0.588963,-0.9649 z"
         id="path1073" />
      <path
         id="path1075"
         d="m 104.3311,101.14077 1.91119,2.80926 -5.33202,3.26716 -0.3668,-0.55564 z"
         style="fill:#bccbdc;fill-opacity:1;stroke:#afc1d5;stroke-width:0.264583px;stroke-linecap:butt;stroke-linejoin:miter;stroke-opacity:1" />
      <path
         style="fill:#bccbdc;stroke:#afc1d5;stroke-width:0.264583px;stroke-linecap:butt;stroke-linejoin:miter;stroke-opacity:1"
         d="m 77.551926,106.1324 c 0,0 4.17863,-2.28172 7.290343,-3.19811 3.111713,-0.91639 4.416678,0.26269 4.416678,0.26269 l -1.314375,-6.457293 z"
         id="path1113" />
      <path
         id="path1115"
         d="m 76.625883,105.93396 c 0,0 -4.17863,-2.28172 -7.290343,-3.19811 -3.111713,-0.91639 -4.416678,0.26269 -4.416678,0.26269 l 1.744323,-6.606118 z"
         style="fill:#bccbdc;stroke:#afc1d5;stroke-width:0.264583px;stroke-linecap:butt;stroke-linejoin:miter;stroke-opacity:1" />
    </g>
  </g>
</svg>
