<svg width="293.69" height="411.1" version="1.1" viewBox="0 0 77.707 108.77" xmlns="http://www.w3.org/2000/svg">
 <g transform="translate(-38.136 -44.878)">
  <g transform="translate(-1.2708e-6)" fill="#ffd970" stroke="#ffce47">
   <g transform="translate(.00012084 -.1023)">
    <path transform="matrix(.26458 0 0 .26458 38.136 44.878)" d="m63.107 173.44-1.8359 16.07-36.785 69.029 10.867 5.459 26.873-49.023 0.0332 18.969c-0.5232 22.276-0.24534 20.558 2.1953 30.055h165.13c2.4406-9.4967 2.8184-5.3076 2.2952-27.584l-0.6659-21.44 26.875 49.023 10.865-5.459-36.785-69.029-1.1368-16.07h-84.314z" stroke-width="3.4016"/>
    <path d="m54.348 95.02h45.218" stroke-width=".9"/>
    <g stroke-width=".9px">
     <path d="m60.552 90.768-0.7851 4.5134"/>
     <path d="m64.169 90.768-0.6107 4.5134"/>
     <path d="m67.786 90.768-0.4362 4.5134"/>
     <path d="m71.403 90.768-0.2617 4.5134"/>
     <path d="m75.02 90.768-0.0873 4.5134"/>
     <path d="m78.637 90.768 0.0872 4.5134"/>
     <path d="m82.254 90.768 0.2617 4.5134"/>
     <path d="m85.871 90.768 0.4362 4.5134"/>
     <path d="m89.488 90.768 0.6107 4.5134"/>
     <path d="m93.105 90.768 0.7852 4.5134"/>
    </g>
   </g>
   <path d="m56.935 90.768-0.95964 4.5134" stroke-width=".9"/>
   <path d="m96.722 90.768 0.95964 4.5134" stroke-width=".9"/>
  </g>
 </g>
</svg>
