<svg width="100mm" height="100mm" version="1.1" viewBox="0 0 100 100" xmlns="http://www.w3.org/2000/svg">
 <g>
  <path d="m1.0143 70.674 5.7934 5.8395-5.7934 5.8395h23.463v-11.679z" fill="#c01c28" style="paint-order:stroke fill markers"/>
  <path d="m9.7177 79.45 17.67 3.4745v-3.4745z" fill="#a51d2d"/>
  <path d="m98.957 70.464-5.7934 5.8395 5.7934 5.8395h-23.463v-11.679z" fill="#c01c28" style="paint-order:stroke fill markers"/>
  <path d="m90.282 79.45-17.67 3.4745v-3.4745z" fill="#a51d2d"/>
  <circle cx="50" cy="50" r="41.026" fill="#f6d32d" style="paint-order:stroke fill markers"/>
  <circle cx="50" cy="50" r="36.112" fill="#f8e45c" style="paint-order:stroke fill markers"/>
  <g transform="matrix(.53279 0 0 .53279 29.628 30.556)">
   <g transform="translate(-38.136 -44.878)" stroke-linecap="round">
    <g stroke="#3584e4">
     <path d="m55.976 95.281-10.299 19.447" fill="#be747c" stroke-width="4"/>
     <path d="m97.932 95.281 13.84-11.56 11.889-10.141" fill="#be747c" stroke-width="4"/>
     <path d="m66.295 54.094c-6.7097 3.8668-10.848 11.046-10.848 18.819v37.725c-1.26e-4 7.7053 4.0668 14.832 10.684 18.724 6.6758 3.9258 14.932 3.9621 21.641 0.0952 6.7098-3.8669 10.848-11.046 10.848-18.819v-37.725h-0.1079c0.022441-7.683-4.0006-14.805-10.577-18.723-6.6758-3.9258-14.932-3.9621-21.641-0.095171z" fill="#99c1f1" stroke-linejoin="bevel" stroke-width="2.0995"/>
    </g>
    <path d="m68.584 59.1c-4.2164 2.2128-4.1374 5.2036-6.8489 5.0691-2.4357-0.1208-0.14844-4.19 3.1366-6.3996 3.4423-2.3153 6.3684-3.6487 8.5508-3.0515 2.817 0.77079-3.3356 3.5933-4.8385 4.3821z" fill="#fff" stroke="#fff" stroke-linejoin="bevel" stroke-width=".33539"/>
   </g>
   <g>
    <g transform="translate(-41.279 -41.35)" stroke-linecap="round">
     <path d="m71.048 79.603s7.7237 8.7063 17.27 0.26978" fill="none" stroke="#000" stroke-width="1.165"/>
     <g stroke-linejoin="bevel">
      <g>
       <path d="m75.674 69.163a2.6594 4.6438 0 0 1-2.6594 4.6438 2.6594 4.6438 0 0 1-2.6594-4.6438 2.6594 4.6438 0 0 1 2.6594-4.6438 2.6594 4.6438 0 0 1 2.6594 4.6438" fill="#fff" stroke="#fff" stroke-width="1.4589"/>
       <path d="m75.821 71.147a2.8063 2.8063 0 0 1-2.8063 2.8063 2.8063 2.8063 0 0 1-2.8063-2.8063 2.8063 2.8063 0 0 1 2.8063-2.8063 2.8063 2.8063 0 0 1 2.8063 2.8063" stroke="#000" stroke-width="1.165"/>
      </g>
      <g>
       <path d="m89.791 68.854a2.6594 4.6438 0 0 1-2.6594 4.6438 2.6594 4.6438 0 0 1-2.6594-4.6438 2.6594 4.6438 0 0 1 2.6594-4.6438 2.6594 4.6438 0 0 1 2.6594 4.6438" fill="#fff" stroke="#fff" stroke-width="1.4589"/>
       <path d="m90.145 70.593a3.0068 3.0068 0 0 1-3.0068 3.0068 3.0068 3.0068 0 0 1-3.0068-3.0068 3.0068 3.0068 0 0 1 3.0068-3.0068 3.0068 3.0068 0 0 1 3.0068 3.0068" fill="#0a0003" stroke="#000" stroke-width="1.165"/>
      </g>
     </g>
    </g>
   </g>
  </g>
  <rect x="9.7177" y="67.772" width="80.565" height="11.679" ry="0" fill="#e01b24" style="paint-order:stroke fill markers"/>
  <path d="m38.77 42.106 19.14-6.0472-2.4072-9.2751-4.5511 6.6373-4.8316-4.8487-3.7471 5.5687-4.5339-3.043z" fill="#e5a50a"/>
  <g fill="#e01b24">
   <ellipse cx="39.806" cy="34.64" rx=".75433" ry=".75448" style="paint-order:stroke fill markers"/>
   <ellipse cx="46.324" cy="32.382" rx=".75433" ry=".75448" style="paint-order:stroke fill markers"/>
   <ellipse cx="54.651" cy="31.359" rx=".75433" ry=".75448" style="paint-order:stroke fill markers"/>
  </g>
  <path d="m42.806 36.16-1.1064 1.6992 1.5016 1.225 0.67177-1.6597z" fill="#33d17a"/>
  <path d="m50.786 34.257-0.16875 2.0206 1.9029 0.36679-0.19525-1.7798z" fill="#33d17a"/>
  <g fill="#1c71d8">
   <rect transform="rotate(16.223)" x="84.548" y="32.159" width="1.1057" height="2.4571" style="paint-order:stroke fill markers"/>
   <rect transform="rotate(93.649)" x="61.479" y="-66.505" width="1.2562" height="2.7916" style="paint-order:stroke fill markers"/>
   <rect transform="rotate(77.587)" x="29.893" y="-42.502" width="1.2419" height="2.7597" style="paint-order:stroke fill markers"/>
   <rect transform="rotate(28.868)" x="57.118" y="-6.3364" width="1.2349" height="2.7443" style="paint-order:stroke fill markers"/>
   <rect transform="rotate(-47.055)" x="26.571" y="65.359" width="1.2369" height="2.7487" style="paint-order:stroke fill markers"/>
   <rect transform="rotate(21.32)" x="65.543" y="6.6412" width="1.2331" height="2.7403" style="paint-order:stroke fill markers"/>
   <rect transform="rotate(25.181)" x="58.86" y="3.4258" width="1.0914" height="2.4253" style="paint-order:stroke fill markers"/>
   <rect transform="rotate(229.9)" x="-64.832" y="-11.264" width="1.2884" height="2.863" style="paint-order:stroke fill markers"/>
   <rect transform="rotate(38.927)" x="77.575" y="-10.325" width="1.1661" height="2.5913" style="paint-order:stroke fill markers"/>
  </g>
  <g fill="#33d17a">
   <rect transform="rotate(120.02)" x="33.21" y="-40.258" width="1.2858" height="2.8573" style="paint-order:stroke fill markers"/>
   <rect transform="rotate(133.24)" x="12.432" y="-43.199" width="1.133" height="2.5179" style="paint-order:stroke fill markers"/>
   <rect transform="rotate(-39.517)" x="2.1565" y="40.654" width="1.0835" height="2.4077" style="paint-order:stroke fill markers"/>
   <rect transform="rotate(241.78)" x="-37.726" y="18.907" width="1.2689" height="2.8197" style="paint-order:stroke fill markers"/>
   <rect transform="rotate(5.2471)" x="72.907" y="23.699" width="1.2668" height="2.8152" style="paint-order:stroke fill markers"/>
   <rect transform="rotate(89.66)" x="41.768" y="-65.07" width="1.1483" height="2.5518" style="paint-order:stroke fill markers"/>
   <rect transform="rotate(-75.576)" x="-50.759" y="46.631" width="1.2607" height="2.8015" style="paint-order:stroke fill markers"/>
   <rect transform="rotate(-51.375)" x="-13.909" y="84.974" width="1.1229" height="2.4952" style="paint-order:stroke fill markers"/>
   <rect transform="rotate(-7.817)" x="54.74" y="72.645" width="1.1395" height="2.5322" style="paint-order:stroke fill markers"/>
   <rect transform="rotate(.015493)" x="82.732" y="61.621" width="1.1485" height="2.5523" style="paint-order:stroke fill markers"/>
   <rect transform="rotate(69.897)" x="46.295" y="-19.83" width="1.2071" height="2.6825" style="paint-order:stroke fill markers"/>
   <rect transform="rotate(-85.141)" x="-50.678" y="26.99" width="1.2711" height="2.8247" style="paint-order:stroke fill markers"/>
  </g>
  <g fill="#e01b24">
   <rect transform="rotate(131.46)" x="6.9685" y="-56.303" width="1.0885" height="2.4189" style="paint-order:stroke fill markers"/>
   <rect transform="rotate(-25.674)" x="3.8816" y="57.142" width="1.2392" height="2.7537" style="paint-order:stroke fill markers"/>
   <rect transform="rotate(-23.972)" x="36.672" y="85.023" width="1.1775" height="2.6166" style="paint-order:stroke fill markers"/>
   <rect transform="rotate(-86.651)" x="-28.135" y="36.269" width="1.1402" height="2.5337" style="paint-order:stroke fill markers"/>
   <rect transform="rotate(-31.762)" x="39.981" y="78.255" width="1.1716" height="2.6036" style="paint-order:stroke fill markers"/>
   <rect transform="rotate(59.668)" x="62.936" y="-36.027" width="1.1249" height="2.4997" style="paint-order:stroke fill markers"/>
   <rect transform="rotate(112.98)" x="39.981" y="-38.504" width="1.1134" height="2.4742" style="paint-order:stroke fill markers"/>
  </g>
 </g>
</svg>
